<?xml version="1.0" standalone="no"?>
<!DOCTYPE svg PUBLIC "-//W3C//DTD SVG 1.1//EN" "http://www.w3.org/Graphics/SVG/1.1/DTD/svg11.dtd" >
<svg xmlns="http://www.w3.org/2000/svg" xmlns:xlink="http://www.w3.org/1999/xlink" version="1.1">
<metadata>
Created by FontForge 20161013 at Fri Feb 20 16:42:25 2015
 By ,,,
(c)2015 Wcie All right reserved.
</metadata>
<defs>
<font id="Lucien-Bold" horiz-adv-x="634" >
  <font-face 
    font-family="Lucien Bold"
    font-weight="600"
    font-stretch="normal"
    units-per-em="1000"
    panose-1="2 0 0 0 0 0 0 0 0 0"
    ascent="800"
    descent="-200"
    x-height="503"
    cap-height="624"
    bbox="-60 -261 1099 789"
    underline-thickness="125"
    underline-position="-338"
    unicode-range="U+0020-FB04"
  />
<missing-glyph horiz-adv-x="551" 
d="M343 382v-1q67 -5 117.5 -40.5t50.5 -96.5q0 -67 -56.5 -106t-139.5 -39v4q58 0 87.5 42t29.5 99q0 59 -32 95t-102 36h-44q-48 0 -76 -25t-30 -65h-3v339h148q75 0 133.5 -30t58.5 -95q0 -47 -43.5 -79.5t-98.5 -37.5zM224 386h74q52 0 84 32t32 83q0 53 -37 82.5
t-98 29.5h-55v-227zM145 216h3q0 -49 35 -81t87 -32v-4q-52 0 -87 -31.5t-35 -80.5h-3q0 49 -35.5 80.5t-89.5 31.5v4q54 0 89.5 32t35.5 81z" />
    <glyph glyph-name="f_f" unicode="ff" horiz-adv-x="704" 
d="M320 583q-42 0 -69.5 -20.5t-27.5 -59.5h190v34v15q-39 31 -93 31zM413 0v377h-190v-377h-131v377h-67v126h67v4q0 94 59.5 146.5t158.5 52.5q89 0 145 -39q54 68 160 68q53 0 110 -20l24 -133q-64 30 -120 30q-84 0 -84 -83v-26h151v-126h-151v-377h-132z" />
    <glyph glyph-name="fi" unicode="fi" horiz-adv-x="625" 
d="M413 0v377h-190v-377h-131v377h-67l67 126v34q0 89 58.5 143.5t153.5 54.5q64 0 121 -20l23 -133q-64 30 -129 30q-41 0 -68.5 -20.5t-27.5 -62.5v-26h327v-503h-137z" />
    <glyph glyph-name="fl" unicode="fl" horiz-adv-x="619" 
d="M413 0v377h-190v-377h-131v377h-67l67 126v50q0 84 50.5 134t137.5 50q44 0 80 -16l20 -132q-43 25 -85 25q-72 0 -72 -80v-31h190v221h131v-724h-131z" />
    <glyph glyph-name="f_f_i" unicode="ffi" horiz-adv-x="946" 
d="M320 583q-42 0 -69.5 -20.5t-27.5 -59.5h190v34v15q-39 31 -93 31zM413 0v377h-190v-377h-131v377h-67v126h67v4q0 93 61.5 146t160.5 53q89 0 141 -41q57 70 171 70q63 0 120 -20l24 -133q-64 30 -130 30q-95 0 -95 -83v-26h326v-503h-137v377h-189v-377h-132z" />
    <glyph glyph-name="f_f_l" unicode="ffl" horiz-adv-x="941" 
d="M320 583q-42 0 -69.5 -20.5t-27.5 -59.5h190v49q-40 31 -93 31zM413 0v377h-190v-377h-131v377h-67v126h67v4q0 94 59.5 146.5t158.5 52.5q82 0 138 -37q51 68 153 68q44 0 80 -16l20 -132q-43 25 -85 25q-71 0 -71 -80v-31h189v221h131v-724h-131v377h-189v-377h-132z
" />
    <glyph glyph-name=".notdef" horiz-adv-x="551" 
d="M343 382v-1q67 -5 117.5 -40.5t50.5 -96.5q0 -67 -56.5 -106t-139.5 -39v4q58 0 87.5 42t29.5 99q0 59 -32 95t-102 36h-44q-48 0 -76 -25t-30 -65h-3v339h148q75 0 133.5 -30t58.5 -95q0 -47 -43.5 -79.5t-98.5 -37.5zM224 386h74q52 0 84 32t32 83q0 53 -37 82.5
t-98 29.5h-55v-227zM145 216h3q0 -49 35 -81t87 -32v-4q-52 0 -87 -31.5t-35 -80.5h-3q0 49 -35.5 80.5t-89.5 31.5v4q54 0 89.5 32t35.5 81z" />
    <glyph glyph-name=".null" horiz-adv-x="0" 
 />
    <glyph glyph-name="nonmarkingreturn" horiz-adv-x="333" 
 />
    <glyph glyph-name="space" unicode=" " horiz-adv-x="238" 
 />
    <glyph glyph-name="exclam" unicode="!" horiz-adv-x="268" 
d="M78 168l-12 456h135l-12 -456h-111zM131 -16q-37 0 -56 21t-19 52q0 32 19 53t56 21q39 0 58 -21t19 -53q0 -31 -19 -52t-58 -21z" />
    <glyph glyph-name="quotedbl" unicode="&#x22;" horiz-adv-x="316" 
d="M96 435l-15 189h154l-13 -189h-126z" />
    <glyph glyph-name="numbersign" unicode="#" horiz-adv-x="681" 
d="M364 262l21 87h-86l-21 -87h86zM302 0l34 142h-86l-34 -142h-133l33 142h-91v120h120l20 87h-120v122h149l36 153h134l-36 -153h86l36 153h133l-36 -153h110v-122h-139l-20 -87h139v-120h-168l-33 -142h-134z" />
    <glyph glyph-name="dollar" unicode="$" horiz-adv-x="587" 
d="M377 -138h-137v129q-75 14 -128 53t-77 92l80 101q29 -64 80 -97t116 -33q107 0 107 66q0 29 -32 50.5t-77.5 39t-91.5 39.5t-78 64t-32 101q0 54 34 99.5t99 63.5v114h137v-113q77 -21 126 -93l-75 -100q-40 79 -117 79q-32 0 -50 -14.5t-18 -37.5q0 -27 32 -47.5
t77 -37t90.5 -38t77.5 -63t32 -100.5q0 -70 -46 -121.5t-129 -66.5v-129z" />
    <glyph glyph-name="percent" unicode="%" horiz-adv-x="1004" 
d="M220 234q-89 0 -142 60t-53 143t53 143t142 60q90 0 142.5 -60t52.5 -143t-52.5 -143t-142.5 -60zM456 0h-137l232 627h137zM220 531q-36 0 -56 -25t-20 -69q0 -43 20 -68.5t56 -25.5q37 0 56.5 25t19.5 69t-19.5 69t-56.5 25zM784 -16q-89 0 -142 60t-53 143t53 143
t142 60q90 0 142.5 -60t52.5 -143t-52.5 -143t-142.5 -60zM784 281q-36 0 -56 -25t-20 -69q0 -43 20 -68.5t56 -25.5q37 0 56.5 25t19.5 69t-19.5 69t-56.5 25z" />
    <glyph glyph-name="ampersand" unicode="&#x26;" horiz-adv-x="715" 
d="M329 101q54 0 93 17l-103 88q-44 37 -77 73q-59 -19 -59 -82q0 -46 37.5 -71t108.5 -25zM559 0l-43 37q-78 -52 -196 -52q-123 0 -194 55t-71 147q0 62 32.5 111t94.5 71q-19 43 -19 97q0 71 48.5 120t137.5 49q79 0 127 -44.5t55 -107.5l-110 -52q-6 81 -65 81
q-26 0 -42.5 -16t-16.5 -48q0 -66 110 -161l93 -80q4 16 4 36q0 44 -22 89l119 12q26 -46 26 -104q0 -60 -30 -117l143 -123h-181z" />
    <glyph glyph-name="quotesingle" unicode="'" horiz-adv-x="156" 
d="M15 624h127l-13 -189h-100z" />
    <glyph glyph-name="parenleft" unicode="(" horiz-adv-x="252" 
d="M267 -120h-137q-75 179 -75 432.5t75 431.5h137q-76 -179 -76 -431t76 -433z" />
    <glyph glyph-name="parenright" unicode=")" horiz-adv-x="252" 
d="M132 -120h-137q76 181 76 433t-76 431h137q75 -178 75 -431.5t-75 -432.5z" />
    <glyph glyph-name="asterisk" unicode="*" horiz-adv-x="420" 
d="M290 241l-81 128l-79 -127l-91 65l78 97l-112 28l34 107l123 -48l-9 133h114l-8 -132l122 49l34 -106l-113 -31l80 -96z" />
    <glyph glyph-name="plus" unicode="+" horiz-adv-x="479" 
d="M444 259h-136v-135h-138v135h-135v139h135v135h138v-135h136v-139z" />
    <glyph glyph-name="comma" unicode="," horiz-adv-x="190" 
d="M31 76h131l-56 -220l-95 40z" />
    <glyph glyph-name="hyphen" unicode="-" horiz-adv-x="482" 
d="M428 397v-139h-373v139h373z" />
    <glyph glyph-name="period" unicode="." horiz-adv-x="222" 
d="M110 -16q-37 0 -56 21t-19 52q0 32 19 53t56 21q39 0 58 -21t19 -53q0 -31 -19 -52t-58 -21z" />
    <glyph glyph-name="slash" unicode="/" horiz-adv-x="427" 
d="M122 -120h-137l320 864h137z" />
    <glyph glyph-name="zero" unicode="0" horiz-adv-x="726" 
d="M363 -15q-96 0 -167.5 47.5t-106 120.5t-34.5 159t34.5 159t106 120.5t167.5 47.5t167.5 -47.5t106 -120.5t34.5 -159t-34.5 -159t-106 -120.5t-167.5 -47.5zM363 510q-76 0 -121 -54t-45 -144t45 -144t121 -54t121 54t45 144t-45 144t-121 54z" />
    <glyph glyph-name="one" unicode="1" horiz-adv-x="418" 
d="M333 0h-137v437l-151 -114v164l171 137h117v-624z" />
    <glyph glyph-name="two" unicode="2" horiz-adv-x="622" 
d="M558 0h-517v22q78 59 121.5 94t95 81.5t77.5 79.5t44 70.5t18 72.5q0 42 -24.5 68t-72.5 26q-52 0 -83 -38t-7 -125l-128 28q-23 124 46 192t177 68q103 0 164.5 -61.5t61.5 -153.5q0 -148 -193 -295h220v-129z" />
    <glyph glyph-name="three" unicode="3" horiz-adv-x="637" 
d="M310 -15q-114 0 -187 58.5t-78 133.5l114 58q3 -54 42 -89.5t109 -35.5q60 0 92.5 27.5t32.5 71.5q0 50 -38 79.5t-114 29.5q-53 0 -130 -21v10l159 190h-220v127h474v-10l-171 -213q70 -8 123.5 -59t53.5 -136q0 -99 -69.5 -160t-192.5 -61z" />
    <glyph glyph-name="four" unicode="4" horiz-adv-x="657" 
d="M613 95h-87v-95h-137v95h-374v4l72 110l273 415h157l-268 -415h140v161h137v-161h87v-114z" />
    <glyph glyph-name="five" unicode="5" horiz-adv-x="618" 
d="M310 -15q-111 0 -181.5 54.5t-83.5 125.5l109 60q9 -50 51 -82.5t105 -32.5q57 0 88.5 29t31.5 76q0 46 -41 72t-111 25t-149 -33l-4 3v342h394v-127h-269v-79q39 7 81.5 9.5t84 -11.5t74 -36.5t53 -65.5t20.5 -99q0 -97 -67 -163.5t-186 -66.5z" />
    <glyph glyph-name="six" unicode="6" horiz-adv-x="659" 
d="M604 198q0 -92 -63.5 -152.5t-179.5 -60.5q-62 0 -114.5 18t-96.5 56t-69.5 104.5t-25.5 155.5q0 140 75.5 230t215.5 90q91 0 149.5 -37t82.5 -94l-79 -92q-47 99 -152 99q-73 0 -115 -42t-49 -123q76 51 177 51q108 0 176 -53t68 -150zM356 109q55 0 83 24t28 64
q0 37 -32.5 57.5t-80.5 20.5q-94 0 -160 -52q37 -114 162 -114z" />
    <glyph glyph-name="seven" unicode="7" horiz-adv-x="571" 
d="M196 0h-149l328 495h-334v129h556v-10z" />
    <glyph glyph-name="eight" unicode="8" horiz-adv-x="637" 
d="M318 -15q-121 0 -192 60.5t-71 153.5q0 114 107 165q-43 41 -43 101q0 72 53 123t148 51t148.5 -51t53.5 -123q0 -61 -47 -103q107 -49 107 -163q0 -93 -71 -153.5t-193 -60.5zM247 467q0 -26 19 -44.5t54 -18.5t54.5 18.5t19.5 44.5q0 27 -19.5 45t-54.5 18t-54 -18
t-19 -45zM189 207q0 -45 33 -72.5t96 -27.5t96.5 27.5t33.5 72.5q0 46 -33 73.5t-97 27.5q-63 0 -96 -27.5t-33 -73.5z" />
    <glyph glyph-name="nine" unicode="9" horiz-adv-x="654" 
d="M324 352q80 0 139 46q-32 117 -140 117q-42 0 -69.5 -22.5t-27.5 -58.5q0 -39 28 -60.5t70 -21.5zM311 -15q-96 0 -162.5 38.5t-93.5 106.5l90 88q47 -109 168 -109q141 0 157 160q-64 -43 -153 -43q-92 0 -158 54.5t-66 145.5q0 93 66 153t165 60q124 0 199.5 -82
t75.5 -243q0 -152 -71.5 -240.5t-216.5 -88.5z" />
    <glyph glyph-name="colon" unicode=":" horiz-adv-x="222" 
d="M110 260q-37 0 -56 21t-19 52q0 32 19 53t56 21q39 0 58 -21t19 -53q0 -31 -19 -52t-58 -21zM110 -16q-37 0 -56 21t-19 52q0 32 19 53t56 21q39 0 58 -21t19 -53q0 -31 -19 -52t-58 -21z" />
    <glyph glyph-name="semicolon" unicode=";" horiz-adv-x="190" 
d="M94 260q-37 0 -56 21t-19 52q0 32 19 53t56 21q39 0 58 -21t19 -53q0 -31 -19 -52t-58 -21zM33 76h131l-56 -220l-95 40z" />
    <glyph glyph-name="less" unicode="&#x3c;" horiz-adv-x="357" 
d="M249 85l-234 241v9l234 241l93 -96l-154 -150l153 -149z" />
    <glyph glyph-name="equal" unicode="=" horiz-adv-x="479" 
d="M444 528v-139h-409v139h409zM444 268v-139h-409v139h409z" />
    <glyph glyph-name="greater" unicode="&#x3e;" horiz-adv-x="357" 
d="M352 326l-234 -241l-93 96l154 150l-153 149l92 96l234 -241v-9z" />
    <glyph glyph-name="question" unicode="?" horiz-adv-x="461" 
d="M142 168v120q89 25 133.5 54t44.5 83q0 40 -23.5 64.5t-68.5 24.5q-57 0 -83.5 -39.5t-6.5 -116.5l-120 29q-17 118 43.5 184.5t170.5 66.5q100 0 157 -56t57 -145q0 -91 -49.5 -140.5t-135.5 -80.5l-5 -48h-114zM200 -16q-37 0 -56 21t-19 52q0 32 19 53t56 21
q39 0 58 -21t19 -53q0 -31 -19 -52t-58 -21z" />
    <glyph glyph-name="at" unicode="@" horiz-adv-x="771" 
d="M439 -103q-179 0 -281.5 89.5t-102.5 259.5q0 147 99 242t246 95q129 0 206.5 -69t77.5 -186v-241h-123l7 35q-50 -50 -139 -50q-83 0 -131 45t-48 117q0 68 51 112t127 44q82 0 132 -38q0 57 -44.5 87.5t-116.5 30.5q-99 0 -163.5 -57t-64.5 -167q0 -244 282 -244
q55 0 122.5 15t120.5 47l-26 -126q-95 -41 -231 -41zM442 179q61 0 118 26v45q-53 34 -118 34q-33 0 -53 -13.5t-20 -39.5q0 -25 19 -38.5t54 -13.5z" />
    <glyph glyph-name="A" unicode="A" horiz-adv-x="698" 
d="M422 218l-76 161l-75 -161h151zM524 0l-43 92h-270l-43 -92h-153l327 639h15l326 -639h-159z" />
    <glyph glyph-name="B" unicode="B" horiz-adv-x="644" 
d="M333 493h-101v-119h146q29 24 29 61q0 58 -74 58zM368 250h-136v-119h140q89 0 89 59q0 32 -23 45.5t-70 14.5zM95 0v624h248q98 0 149.5 -45.5t51.5 -127.5q0 -75 -48 -120q46 -15 77 -52t31 -92q0 -85 -53.5 -136t-167.5 -51h-288z" />
    <glyph glyph-name="C" unicode="C" horiz-adv-x="689" 
d="M609 425q-86 81 -205 81q-94 0 -150 -50.5t-56 -143.5q0 -92 58 -143t152 -51q120 0 206 81l30 -136q-36 -33 -101 -55.5t-138 -22.5q-84 0 -152 27t-110.5 72.5t-65 104t-22.5 123.5q0 137 90 232t255 95q77 0 140 -22.5t99 -55.5z" />
    <glyph glyph-name="D" unicode="D" horiz-adv-x="748" 
d="M321 490h-89v-356h89q113 0 170.5 37.5t57.5 140.5t-57.5 140.5t-170.5 37.5zM95 0v624h244q185 0 269.5 -84.5t84.5 -227.5t-84.5 -227.5t-269.5 -84.5h-244z" />
    <glyph glyph-name="E" unicode="E" 
d="M232 134h327v-134h-464v624h464v-134h-327v-109h317v-133h-317v-114z" />
    <glyph glyph-name="F" unicode="F" horiz-adv-x="594" 
d="M232 354h297v-133h-297v-221h-137v624h444v-134h-307v-136z" />
    <glyph glyph-name="G" unicode="G" horiz-adv-x="761" 
d="M558 0l17 62q-67 -77 -190 -77q-151 0 -240.5 94.5t-89.5 230.5q0 139 91.5 234t257.5 95q73 0 137.5 -22.5t100.5 -55.5l-31 -136q-84 81 -203 81q-94 0 -152 -51t-58 -144q0 -91 57 -142t146 -51q97 0 159 59l-1 119h137v-296h-138z" />
    <glyph glyph-name="H" unicode="H" horiz-adv-x="785" 
d="M553 393v231h137v-624h-137v260h-321v-260h-137v624h137v-231h321z" />
    <glyph glyph-name="I" unicode="I" horiz-adv-x="327" 
d="M95 0v624h137v-624h-137z" />
    <glyph glyph-name="J" unicode="J" horiz-adv-x="561" 
d="M471 624v-406q0 -233 -226 -233q-106 0 -158 54.5t-51 139.5l125 44q1 -59 22 -85t66 -26q85 0 85 101v411h137z" />
    <glyph glyph-name="K" unicode="K" horiz-adv-x="701" 
d="M95 0v624h137v-624h-137zM236 312l217 312h172l-213 -299l294 -325h-188z" />
    <glyph glyph-name="L" unicode="L" horiz-adv-x="592" 
d="M232 134h315v-134h-452v624h137v-490z" />
    <glyph glyph-name="M" unicode="M" horiz-adv-x="878" 
d="M439 292l330 342h14v-634h-137v328l-207 -218l-207 218v-328h-137v634h14z" />
    <glyph glyph-name="N" unicode="N" horiz-adv-x="788" 
d="M693 -10h-14l-447 365v-355h-137v634h14l447 -360v350h137v-634z" />
    <glyph glyph-name="O" unicode="O" horiz-adv-x="784" 
d="M392 -15q-83 0 -149 27t-106 73t-61 103.5t-21 123.5t21 123.5t61 103.5t106 73t149 27t149 -27t106 -73t61 -103.5t21 -123.5t-21 -123.5t-61 -103.5t-106 -73t-149 -27zM392 510q-87 0 -141 -53.5t-54 -144.5t54 -144.5t141 -53.5t140.5 53.5t53.5 144.5t-53.5 144.5
t-140.5 53.5z" />
    <glyph glyph-name="P" unicode="P" horiz-adv-x="649" 
d="M333 490h-101v-173h101q63 0 98.5 18t35.5 69t-35.5 68.5t-98.5 17.5zM337 184h-105v-184h-137v624h242q272 0 272 -220t-272 -220z" />
    <glyph glyph-name="Q" unicode="Q" horiz-adv-x="810" 
d="M645 -60l-88 79q-70 -34 -165 -34q-83 0 -149 27t-106 73t-61 103.5t-21 123.5t21 123.5t61 103.5t106 73t149 27t149 -27t106 -73t61 -103.5t21 -123.5q0 -121 -66 -208l103 -94zM392 114q28 0 54 6l-146 132l124 69l134 -121q28 47 28 112q0 91 -53.5 144.5
t-140.5 53.5t-141 -53.5t-54 -144.5t54 -144.5t141 -53.5z" />
    <glyph glyph-name="R" unicode="R" horiz-adv-x="676" 
d="M338 490h-106v-167h162q48 27 48 84q0 44 -25 63.5t-79 19.5zM489 0l-149 190h-108v-190h-137v624h235q128 0 191.5 -57.5t63.5 -159.5q0 -126 -105 -189l181 -218h-172z" />
    <glyph glyph-name="S" unicode="S" horiz-adv-x="586" 
d="M242 465q0 -27 32 -47.5t77 -37t90.5 -38t77.5 -63t32 -100.5q0 -84 -64.5 -139t-176.5 -55q-102 0 -174 42.5t-102 108.5l80 101q29 -64 80 -97t116 -33q107 0 107 66q0 29 -32 50.5t-77.5 39t-91.5 39.5t-78 64t-32 101q0 68 53 120t151 52q124 0 192 -101l-75 -100
q-40 79 -117 79q-32 0 -50 -14.5t-18 -37.5z" />
    <glyph glyph-name="T" unicode="T" horiz-adv-x="618" 
d="M240 490h-215v134h568v-134h-216v-490h-137v490z" />
    <glyph glyph-name="U" unicode="U" horiz-adv-x="773" 
d="M555 0l9 58q-78 -73 -204 -73q-270 0 -270 268v371h137v-358q0 -147 147 -147q100 0 167 58v447h137v-624h-123z" />
    <glyph glyph-name="V" unicode="V" horiz-adv-x="682" 
d="M334 -15l-319 639h150l176 -378l176 378h150l-320 -639h-13z" />
    <glyph glyph-name="W" unicode="W" horiz-adv-x="986" 
d="M633 -19l-140 328l-140 -328h-14l-324 643h157l168 -341l146 362h12l147 -362l169 341h157l-325 -643h-13z" />
    <glyph glyph-name="X" unicode="X" horiz-adv-x="740" 
d="M548 0l-184 231l-172 -231h-167l259 333l-231 291h170l153 -194l141 194h170l-230 -297l258 -327h-167z" />
    <glyph glyph-name="Y" unicode="Y" horiz-adv-x="694" 
d="M416 0h-137v259l-274 365h167l175 -242l176 242h166l-273 -364v-260z" />
    <glyph glyph-name="Z" unicode="Z" horiz-adv-x="689" 
d="M25 0v14l362 476h-282v134h545v-14l-363 -476h355v-134h-617z" />
    <glyph glyph-name="bracketleft" unicode="[" horiz-adv-x="349" 
d="M75 -120v864h319v-129h-182v-606h182v-129h-319z" />
    <glyph glyph-name="bracketright" unicode="]" horiz-adv-x="349" 
d="M-35 -120v129h182v606h-182v129h319v-864h-319z" />
    <glyph glyph-name="underscore" unicode="_" horiz-adv-x="484" 
d="M485 -1v-139h-494v139h494z" />
    <glyph glyph-name="grave" unicode="`" horiz-adv-x="371" 
d="M284 544h-105l-64 159h131z" />
    <glyph glyph-name="a" unicode="a" horiz-adv-x="567" 
d="M254 92q66 0 118 37v29q-55 38 -118 38q-72 0 -72 -53q0 -24 18.5 -37.5t53.5 -13.5zM373 0l4 39q-49 -54 -144 -54q-82 0 -130 45t-48 116q0 69 50.5 113t127.5 44q84 0 134 -40l-4 20q0 108 -105 108q-45 0 -81 -22.5t-56 -53.5l-59 92q31 49 88 76.5t126 27.5
q60 0 104.5 -20t67.5 -53.5t33.5 -70t10.5 -77.5v-290h-119z" />
    <glyph glyph-name="b" unicode="b" horiz-adv-x="618" 
d="M305 391q-58 0 -98 -32v-232h69q152 0 152 136q0 59 -34.5 93.5t-88.5 34.5zM75 0v724h132v-237q51 31 120 31q106 0 171 -69.5t65 -183.5q0 -128 -77.5 -196.5t-207.5 -68.5h-203z" />
    <glyph glyph-name="c" unicode="c" horiz-adv-x="571" 
d="M55 253q0 111 71.5 187.5t198.5 76.5q60 0 110.5 -18t80.5 -46l-20 -130q-75 68 -162 68q-63 0 -103.5 -36t-40.5 -102q0 -69 45 -105.5t110 -36.5q95 0 166 68l20 -132q-69 -62 -187 -62q-137 0 -213 77.5t-76 190.5z" />
    <glyph glyph-name="d" unicode="d" horiz-adv-x="638" 
d="M319 112q63 0 113 39v203q-49 37 -107 37q-63 0 -99 -39t-36 -104q0 -66 37.5 -101t91.5 -35zM433 0l10 39q-60 -54 -143 -54q-109 0 -177 71.5t-68 192.5q0 120 71.5 194.5t181.5 74.5q71 0 124 -32v238h131v-724h-130z" />
    <glyph glyph-name="e" unicode="e" horiz-adv-x="582" 
d="M303 396q-89 0 -111 -81h207q-4 37 -30 59t-66 22zM537 47q-31 -26 -84 -44t-111 -18q-140 0 -213.5 77.5t-73.5 188.5q0 115 64.5 190.5t183.5 75.5q123 0 181.5 -89.5t41.5 -211.5h-338q10 -57 54 -83.5t109 -26.5q93 0 166 65z" />
    <glyph glyph-name="f" unicode="f" horiz-adv-x="383" 
d="M375 377h-152v-377h-131v377h-67l20 42l47 84v34q0 90 54 144t148 54q53 0 110 -20l24 -133q-64 30 -120 30q-85 0 -85 -83v-26h152v-126z" />
    <glyph glyph-name="g" unicode="g" horiz-adv-x="586" 
d="M281 262q43 0 65.5 18.5t22.5 52.5t-22.5 53t-65.5 19q-42 0 -64.5 -19t-22.5 -53q0 -33 22.5 -52t64.5 -19zM551 -65q0 -84 -72.5 -140t-203.5 -56q-119 0 -179.5 42.5t-60.5 115.5q0 70 61 113q-37 33 -37 86q0 34 18.5 63.5t47.5 45.5q-52 52 -52 128q0 77 53.5 130.5
t155.5 53.5q50 0 90 -14h166v-112l-60 12q12 -33 12 -70q0 -76 -52.5 -129.5t-155.5 -53.5q-36 0 -68 8q-30 -14 -30 -40q0 -30 38 -30h146q89 0 136 -41.5t47 -111.5zM284 -148q71 0 105.5 21.5t34.5 56.5q0 21 -15.5 34t-44.5 13h-161q-40 -24 -40 -60q0 -65 121 -65z" />
    <glyph glyph-name="h" unicode="h" horiz-adv-x="645" 
d="M342 387q-77 0 -136 -65v-322h-131v724h131v-270q66 60 159 60q98 0 151.5 -60t53.5 -137v-317h-131v294q0 93 -97 93z" />
    <glyph glyph-name="i" unicode="i" horiz-adv-x="287" 
d="M143 597q-33 0 -56.5 23t-23.5 57t23.5 57.5t56.5 23.5q34 0 57.5 -23.5t23.5 -57.5t-23.5 -57t-57.5 -23zM212 0h-137v503h137v-503z" />
    <glyph glyph-name="j" unicode="j" horiz-adv-x="266" 
d="M127 597q-33 0 -56.5 23t-23.5 57t23.5 57.5t56.5 23.5q34 0 57.5 -23.5t23.5 -57.5t-23.5 -57t-57.5 -23zM191 503v-600q0 -79 -39 -121t-109 -42q-37 0 -69 14l-34 122q33 -14 57 -14q32 0 47.5 16t15.5 54v571h131z" />
    <glyph glyph-name="k" unicode="k" horiz-adv-x="556" 
d="M206 0h-131v724h131v-724zM211 251l179 252h156l-189 -240l234 -263h-172z" />
    <glyph glyph-name="l" unicode="l" horiz-adv-x="281" 
d="M206 0h-131v724h131v-724z" />
    <glyph glyph-name="m" unicode="m" horiz-adv-x="957" 
d="M330 387q-67 0 -124 -55v-332h-131v503h131v-42q66 53 153 53q108 0 156 -79q75 79 182 79q51 0 89 -18t57.5 -47t29 -60t9.5 -63v-326h-131v301q0 86 -83 86q-67 0 -124 -55v-6v-326h-131v301q0 86 -83 86z" />
    <glyph glyph-name="n" unicode="n" horiz-adv-x="645" 
d="M344 387q-78 0 -138 -65v-322h-131v503h131v-50q71 61 168 61q95 0 145.5 -59.5t50.5 -137.5v-317h-131v289q0 98 -95 98z" />
    <glyph glyph-name="o" unicode="o" horiz-adv-x="664" 
d="M332 -15q-131 0 -204 78t-73 188t73 188t204 78t204 -78t73 -188t-73 -188t-204 -78zM332 111q63 0 101.5 38t38.5 102t-38.5 102t-101.5 38t-101.5 -38t-38.5 -102t38.5 -102t101.5 -38z" />
    <glyph glyph-name="p" unicode="p" horiz-adv-x="638" 
d="M324 112q63 0 99 39t36 104q0 66 -37.5 101t-91.5 35q-63 0 -113 -39v-203q49 -37 107 -37zM341 -15q-71 0 -124 32v-262h-131v748h130l-10 -39q60 54 143 54q109 0 177 -71.5t68 -192.5q0 -120 -71.5 -194.5t-181.5 -74.5z" />
    <glyph glyph-name="q" unicode="q" horiz-adv-x="618" 
d="M554 -221h-132v237q-51 -31 -120 -31q-106 0 -171 69.5t-65 183.5q0 128 77.5 196.5t207.5 68.5h203v-724zM324 112q58 0 98 32v232h-69q-152 0 -152 -136q0 -59 34.5 -93.5t88.5 -34.5z" />
    <glyph glyph-name="r" unicode="r" horiz-adv-x="392" 
d="M315 386q-72 0 -109 -56v-330h-131v503h131l-7 -51q44 62 112 62q23 0 45 -6l31 -136q-36 14 -72 14z" />
    <glyph glyph-name="s" unicode="s" horiz-adv-x="502" 
d="M219 361q0 -20 25.5 -34.5t62 -27t73 -29t62 -50t25.5 -80.5q0 -69 -49.5 -112t-140.5 -43q-81 0 -144.5 34t-97.5 89l66 99q30 -53 79.5 -80t99.5 -27q61 0 61 40q0 18 -26 32.5t-63 27t-73.5 30.5t-62.5 52t-26 81q0 67 47 109t125 42q61 0 110 -23.5t71 -61.5l-69 -88
q-39 58 -106 58q-49 0 -49 -38z" />
    <glyph glyph-name="t" unicode="t" horiz-adv-x="411" 
d="M406 377h-151v-377h-131v377h-89v10l100 109l111 126h9v-119h151v-126z" />
    <glyph glyph-name="u" unicode="u" horiz-adv-x="642" 
d="M446 0v49q-69 -60 -167 -60q-95 0 -145.5 59.5t-50.5 137.5v317h131v-289q0 -98 95 -98q77 0 137 65v322h132v-503h-132z" />
    <glyph glyph-name="v" unicode="v" horiz-adv-x="543" 
d="M276 -15h-8l-263 518h150l116 -258l116 258h151z" />
    <glyph glyph-name="w" unicode="w" horiz-adv-x="790" 
d="M504 -15l-109 241l-107 -241h-9l-274 518h144l126 -258l113 275h8l118 -278l127 261h144l-273 -518h-8z" />
    <glyph glyph-name="x" unicode="x" horiz-adv-x="574" 
d="M407 0l-120 160l-119 -160h-156l196 266l-177 237h159l97 -131l97 131h159l-177 -238l196 -265h-155z" />
    <glyph glyph-name="y" unicode="y" horiz-adv-x="600" 
d="M367 -245h-134v299l-218 449h150l135 -310l135 310h150l-218 -452v-296z" />
    <glyph glyph-name="z" unicode="z" horiz-adv-x="561" 
d="M25 0v8l274 374h-231v121h469v-8l-274 -374h265v-121h-503z" />
    <glyph glyph-name="braceleft" unicode="{" horiz-adv-x="302" 
d="M15 309v6q55 33 70 73t15 130q0 42 5 75.5t20.5 66t41 52t69 29t101.5 3.5l30 -111q-66 14 -102 -4.5t-36 -89.5q0 -51 -1 -75t-7 -56.5t-20.5 -54t-38.5 -41.5q24 -20 38.5 -42t20.5 -54.5t7 -56.5t1 -75q0 -70 36 -88.5t102 -4.5l-30 -111q-58 -6 -101.5 3.5t-69 29
t-41 52t-20.5 66t-5 75.5q0 90 -15 130t-70 73z" />
    <glyph glyph-name="bar" unicode="|" horiz-adv-x="287" 
d="M212 -120h-137v864h137v-864z" />
    <glyph glyph-name="braceright" unicode="}" horiz-adv-x="302" 
d="M297 315v-6q-55 -33 -70 -73t-15 -130q0 -42 -5 -75.5t-20.5 -66t-41 -52t-69 -29t-101.5 -3.5l-30 111q66 -14 102 4.5t36 89.5q0 51 1 75t7 56.5t20.5 54t38.5 41.5q-24 20 -38.5 42t-20.5 54.5t-7 56.5t-1 75q0 70 -36 88.5t-102 4.5l30 111q58 6 101.5 -3.5t69 -29
t41 -52t20.5 -66t5 -75.5q0 -90 15 -130t70 -73z" />
    <glyph glyph-name="exclamdown" unicode="&#xa1;" horiz-adv-x="268" 
d="M56 567q0 31 19 52t56 21q39 0 58 -21t19 -52q0 -32 -19 -53t-58 -21q-37 0 -56 21t-19 53zM66 0l12 456h111l12 -456h-135z" />
    <glyph glyph-name="cent" unicode="&#xa2;" horiz-adv-x="594" 
d="M559 47q-46 -42 -140 -57v-110h-137v111q-109 19 -168 92t-59 170t60.5 170t166.5 90v111h137v-114q86 -15 133 -57l-21 -130q-75 68 -179 68q-71 0 -116.5 -35.5t-45.5 -102.5q0 -69 46.5 -105.5t121.5 -36.5q110 0 181 68z" />
    <glyph glyph-name="sterling" unicode="&#xa3;" horiz-adv-x="622" 
d="M577 0h-512v129h117q32 49 24 98h-124v129h73q-21 51 -21 99q0 79 55 131t149 52q95 0 151 -47t63 -111l-118 -64q-2 40 -23.5 61.5t-56.5 21.5t-53 -19.5t-18 -51.5t20 -72h156l-10 -129h-103q0 -47 -17 -98h248v-129z" />
    <glyph glyph-name="currency" unicode="&#xa4;" horiz-adv-x="676" 
d="M556 -56l-74 73q-62 -32 -142 -32q-83 0 -144 33l-74 -74l-91 83l74 74q-42 66 -42 150q0 82 41 147l-73 73l91 83l71 -72q64 35 147 35q85 0 145 -34l71 71l90 -83l-71 -71q42 -66 42 -149q0 -86 -43 -151l72 -73zM340 111q63 0 101.5 38t38.5 102t-38.5 102t-101.5 38
t-101.5 -38t-38.5 -102t38.5 -102t101.5 -38z" />
    <glyph glyph-name="yen" unicode="&#xa5;" horiz-adv-x="687" 
d="M564 200h-155v-200h-131v200h-154v110h105l-224 328h154l184 -288l185 288h154l-224 -328h106v-110z" />
    <glyph glyph-name="section" unicode="&#xa7;" horiz-adv-x="549" 
d="M173 300q0 -23 18 -42t38 -29t61 -26.5t62 -26.5q24 20 24 63q0 23 -18 42t-38 29t-61 26.5t-62 26.5q-24 -20 -24 -63zM275 -178q-76 0 -132.5 32.5t-84.5 84.5l82 102q36 -102 133 -102q70 0 70 62q0 22 -16.5 38.5t-42.5 29t-58 24.5t-64 28.5t-58 37.5t-42.5 55
t-16.5 78q0 93 59 143q-31 42 -31 103q0 75 50.5 127t151.5 52q75 0 132 -32.5t85 -84.5l-83 -102q-36 102 -133 102q-70 0 -70 -62q0 -22 16.5 -38.5t43 -29t58 -24.5t63.5 -28.5t58.5 -37.5t43 -55t16.5 -78q0 -92 -60 -143q31 -42 31 -103q0 -75 -50.5 -127t-150.5 -52z
" />
    <glyph glyph-name="dieresis" unicode="&#xa8;" horiz-adv-x="455" 
d="M321 556q-35 0 -53 20.5t-18 49.5q0 31 18 52t53 21t53.5 -21.5t18.5 -51.5q0 -29 -18.5 -49.5t-53.5 -20.5zM133 556q-35 0 -53 20.5t-18 49.5q0 31 18 52t53 21t53.5 -21.5t18.5 -51.5q0 -29 -18.5 -49.5t-53.5 -20.5z" />
    <glyph glyph-name="copyright" unicode="&#xa9;" horiz-adv-x="636" 
d="M318 -15q-131 0 -197 77t-66 189t66 189t197 77t197 -77t66 -189t-66 -189t-197 -77zM318 8q110 0 174.5 65.5t64.5 177.5q0 113 -64 178t-175 65t-175 -65t-64 -178q0 -112 64.5 -177.5t174.5 -65.5zM432 273q-18 16 -44 26.5t-47 10.5q-89 0 -89 -63t87 -63q52 0 93 39
l25 -100q-17 -15 -54 -27.5t-74 -12.5q-86 0 -136 47t-50 117q0 71 49.5 117.5t136.5 46.5q38 0 75.5 -12t52.5 -27z" />
    <glyph glyph-name="guillemotleft" unicode="&#xab;" horiz-adv-x="621" 
d="M435 57l-132 209v9l132 209l178 -20l-147 -193l147 -194zM152 57l-131 209v9l132 209l177 -20l-146 -193l146 -194z" />
    <glyph glyph-name="registered" unicode="&#xae;" horiz-adv-x="636" 
d="M318 -15q-131 0 -197 77t-66 189t66 189t197 77t197 -77t66 -189t-66 -189t-197 -77zM318 8q110 0 174.5 65.5t64.5 177.5q0 113 -64 178t-175 65t-175 -65t-64 -178q0 -112 64.5 -177.5t174.5 -65.5zM312 326h-30v-64h50q24 8 24 30q0 20 -9.5 27t-34.5 7zM347 103
l-44 70h-21v-70h-104v312h141q70 0 104.5 -33.5t34.5 -89.5q0 -58 -51 -94l70 -95h-130z" />
    <glyph glyph-name="degree" unicode="&#xb0;" horiz-adv-x="326" 
d="M163 374q-66 0 -104.5 39.5t-38.5 94.5q0 54 38.5 93.5t104.5 39.5t104.5 -39.5t38.5 -93.5t-38.5 -94t-104.5 -40zM163 467q19 0 31 11t12 30q0 18 -12 30t-31 12q-18 0 -30.5 -12t-12.5 -30q0 -19 12 -30t31 -11z" />
    <glyph glyph-name="twosuperior" unicode="&#xb2;" horiz-adv-x="371" 
d="M334 244h-318v18q97 79 147.5 140t50.5 96q0 39 -41 39q-58 0 -38 -73l-99 16q-14 65 24 113t117 48q67 0 108 -36.5t41 -93.5q0 -77 -82 -158h90v-109z" />
    <glyph glyph-name="threesuperior" unicode="&#xb3;" horiz-adv-x="422" 
d="M193 234q-74 0 -116.5 31t-53.5 83l93 44q17 -54 80 -54q71 0 71 48q0 75 -159 46v6l75 88h-138v105h346v-6l-104 -125q40 -11 67 -44t27 -78q0 -61 -51 -102.5t-137 -41.5z" />
    <glyph glyph-name="acute" unicode="&#xb4;" horiz-adv-x="371" 
d="M210 544h-105l38 159h131z" />
    <glyph glyph-name="periodcentered" unicode="&#xb7;" horiz-adv-x="222" 
d="M110 262q-37 0 -56 21t-19 51q0 32 19 53.5t56 21.5q39 0 58 -21.5t19 -53.5q0 -31 -19 -51.5t-58 -20.5z" />
    <glyph glyph-name="cedilla" unicode="&#xb8;" horiz-adv-x="763" 
d="M335 -120l66 120h107l-41 -120h-132z" />
    <glyph glyph-name="onesuperior" unicode="&#xb9;" horiz-adv-x="281" 
d="M236 244h-116v250l-94 -68v121l106 85h104v-388z" />
    <glyph glyph-name="guillemotright" unicode="&#xbb;" horiz-adv-x="621" 
d="M613 266l-132 -209l-177 20l146 194l-146 193l178 20l131 -209v-9zM331 266l-132 -209l-178 20l147 194l-147 193l178 20l132 -209v-9z" />
    <glyph glyph-name="onequarter" unicode="&#xbc;" horiz-adv-x="846" 
d="M251 244h-116v250l-94 -68v121l106 85h104v-388zM355 0h-137l232 627h137zM827 49h-43v-49h-106v49h-246l59 94l156 245h118l-153 -245h66v69h106v-69h43v-94z" />
    <glyph glyph-name="onehalf" unicode="&#xbd;" horiz-adv-x="843" 
d="M250 244h-116v250l-94 -68v121l106 85h104v-388zM354 0h-137l232 627h137zM823 0h-318v18q198 161 198 236q0 39 -41 39q-58 0 -38 -73l-99 16q-14 65 24 113t117 48q67 0 108 -36.5t41 -93.5q0 -77 -82 -158h90v-109z" />
    <glyph glyph-name="threequarters" unicode="&#xbe;" horiz-adv-x="942" 
d="M450 0h-137l232 627h137zM198 234q-74 0 -116.5 31t-53.5 83l93 44q17 -54 80 -54q71 0 71 48q0 75 -159 46v6l75 88h-138v105h346v-6l-104 -125q40 -11 67 -44t27 -78q0 -61 -51 -102.5t-137 -41.5zM923 49h-43v-49h-106v49h-246l59 94l156 245h118l-153 -245h66v69h106
v-69h43v-94z" />
    <glyph glyph-name="questiondown" unicode="&#xbf;" horiz-adv-x="461" 
d="M261 640q37 0 56 -21t19 -52q0 -32 -19 -53t-56 -21q-39 0 -58 21t-19 53q0 31 19 52t58 21zM319 456v-120q-89 -25 -133.5 -54t-44.5 -83q0 -40 23.5 -64.5t68.5 -24.5q57 0 83.5 39.5t6.5 116.5l120 -29q17 -118 -43.5 -184.5t-170.5 -66.5q-100 0 -157 56t-57 145
q0 91 49.5 140.5t135.5 80.5l5 48h114z" />
    <glyph glyph-name="Agrave" unicode="&#xc0;" horiz-adv-x="698" 
d="M292 658l-54 109h135l43 -109h-124zM422 218l-76 161l-75 -161h151zM524 0l-43 92h-270l-43 -92h-153l327 639h15l326 -639h-159z" />
    <glyph glyph-name="Acircumflex" unicode="&#xc2;" horiz-adv-x="698" 
d="M476 646l-129 40l-128 -40l-5 93l133 50l133 -50zM422 218l-76 161l-75 -161h151zM524 0l-43 92h-270l-43 -92h-153l327 639h15l326 -639h-159z" />
    <glyph glyph-name="Adieresis" unicode="&#xc4;" horiz-adv-x="698" 
d="M453 646q-35 0 -52.5 20.5t-17.5 48.5q0 30 17.5 50.5t52.5 20.5t52.5 -20.5t17.5 -50.5q0 -28 -18 -48.5t-52 -20.5zM249 646q-34 0 -52 20.5t-18 48.5q0 30 17.5 50.5t52.5 20.5t52.5 -20.5t17.5 -50.5q0 -28 -18 -48.5t-52 -20.5zM422 218l-76 161l-75 -161h151z
M524 0l-43 92h-270l-43 -92h-153l327 639h15l326 -639h-159z" />
    <glyph glyph-name="AE" unicode="&#xc6;" horiz-adv-x="912" 
d="M422 225l-73 146l-72 -146h145zM534 0l-52 105h-265l-53 -105h-149l322 624h491v-134h-398l56 -109h332v-133h-263l59 -114h214v-134h-294z" />
    <glyph glyph-name="Ccedilla" unicode="&#xc7;" horiz-adv-x="689" 
d="M644 63q-69 -62 -190 -75l-37 -108h-132l60 109q-138 17 -214 108.5t-76 214.5q0 137 90 232t255 95q77 0 140 -22.5t99 -55.5l-30 -136q-86 81 -205 81q-94 0 -150 -50.5t-56 -143.5q0 -92 58 -143t152 -51q120 0 206 81z" />
    <glyph glyph-name="Egrave" unicode="&#xc8;" 
d="M288 658l-54 109h135l43 -109h-124zM232 134h327v-134h-464v624h464v-134h-327v-109h317v-133h-317v-114z" />
    <glyph glyph-name="Eacute" unicode="&#xc9;" 
d="M450 767l-54 -109h-123l42 109h135zM232 134h327v-134h-464v624h464v-134h-327v-109h317v-133h-317v-114z" />
    <glyph glyph-name="Ecircumflex" unicode="&#xca;" 
d="M459 646l-129 40l-128 -40l-5 93l133 50l133 -50zM232 134h327v-134h-464v624h464v-134h-327v-109h317v-133h-317v-114z" />
    <glyph glyph-name="Edieresis" unicode="&#xcb;" 
d="M431 646q-35 0 -52.5 20.5t-17.5 48.5q0 30 17.5 50.5t52.5 20.5t52.5 -20.5t17.5 -50.5q0 -28 -18 -48.5t-52 -20.5zM227 646q-34 0 -52 20.5t-18 48.5q0 30 17.5 50.5t52.5 20.5t52.5 -20.5t17.5 -50.5q0 -28 -18 -48.5t-52 -20.5zM232 134h327v-134h-464v624h464v-134
h-327v-109h317v-133h-317v-114z" />
    <glyph glyph-name="Icircumflex" unicode="&#xce;" horiz-adv-x="327" 
d="M293 646l-129 40l-128 -40l-5 93l133 50l133 -50zM95 0v624h137v-624h-137z" />
    <glyph glyph-name="Idieresis" unicode="&#xcf;" horiz-adv-x="327" 
d="M265 647q-35 0 -52.5 20.5t-17.5 48.5q0 30 17.5 50.5t52.5 20.5t52.5 -20.5t17.5 -50.5q0 -28 -18 -48.5t-52 -20.5zM61 647q-34 0 -52 20.5t-18 48.5q0 30 17.5 50.5t52.5 20.5t52.5 -20.5t17.5 -50.5q0 -28 -18 -48.5t-52 -20.5zM95 0v624h137v-624h-137z" />
    <glyph glyph-name="Ocircumflex" unicode="&#xd4;" horiz-adv-x="784" 
d="M519 646l-129 40l-128 -40l-5 93l133 50l133 -50zM392 -15q-83 0 -149 27t-106 73t-61 103.5t-21 123.5t21 123.5t61 103.5t106 73t149 27t149 -27t106 -73t61 -103.5t21 -123.5t-21 -123.5t-61 -103.5t-106 -73t-149 -27zM392 510q-87 0 -141 -53.5t-54 -144.5
t54 -144.5t141 -53.5t140.5 53.5t53.5 144.5t-53.5 144.5t-140.5 53.5z" />
    <glyph glyph-name="Odieresis" unicode="&#xd6;" horiz-adv-x="784" 
d="M491 647q-35 0 -52.5 20.5t-17.5 48.5q0 30 17.5 50.5t52.5 20.5t52.5 -20.5t17.5 -50.5q0 -28 -18 -48.5t-52 -20.5zM287 647q-34 0 -52 20.5t-18 48.5q0 30 17.5 50.5t52.5 20.5t52.5 -20.5t17.5 -50.5q0 -28 -18 -48.5t-52 -20.5zM392 -15q-83 0 -149 27t-106 73
t-61 103.5t-21 123.5t21 123.5t61 103.5t106 73t149 27t149 -27t106 -73t61 -103.5t21 -123.5t-21 -123.5t-61 -103.5t-106 -73t-149 -27zM392 510q-87 0 -141 -53.5t-54 -144.5t54 -144.5t141 -53.5t140.5 53.5t53.5 144.5t-53.5 144.5t-140.5 53.5z" />
    <glyph glyph-name="Ugrave" unicode="&#xd9;" horiz-adv-x="773" 
d="M338 658l-54 109h135l43 -109h-124zM555 0l9 58q-78 -73 -204 -73q-270 0 -270 268v371h137v-358q0 -147 147 -147q100 0 167 58v447h137v-624h-123z" />
    <glyph glyph-name="Ucircumflex" unicode="&#xdb;" horiz-adv-x="773" 
d="M512 646l-129 40l-128 -40l-5 93l133 50l133 -50zM555 0l9 58q-78 -73 -204 -73q-270 0 -270 268v371h137v-358q0 -147 147 -147q100 0 167 58v447h137v-624h-123z" />
    <glyph glyph-name="Udieresis" unicode="&#xdc;" horiz-adv-x="773" 
d="M490 647q-35 0 -52.5 20.5t-17.5 48.5q0 30 17.5 50.5t52.5 20.5t52.5 -20.5t17.5 -50.5q0 -28 -18 -48.5t-52 -20.5zM286 647q-34 0 -52 20.5t-18 48.5q0 30 17.5 50.5t52.5 20.5t52.5 -20.5t17.5 -50.5q0 -28 -18 -48.5t-52 -20.5zM555 0l9 58q-78 -73 -204 -73
q-270 0 -270 268v371h137v-358q0 -147 147 -147q100 0 167 58v447h137v-624h-123z" />
    <glyph glyph-name="germandbls" unicode="&#xdf;" horiz-adv-x="714" 
d="M462 -15q-99 0 -154.5 53.5t-62.5 136.5l113 56q2 -57 28 -89t71 -32q39 0 63 22t24 65q0 61 -57.5 85.5t-186.5 -4.5l-3 9l171 197q-44 28 -113 28q-156 0 -156 -178v-334h-124v362q0 74 24 129t65.5 86.5t90.5 46.5t106 15q173 0 275 -123v-10l-116 -130
q66 -9 112.5 -57t46.5 -126q0 -93 -59.5 -150.5t-157.5 -57.5z" />
    <glyph glyph-name="agrave" unicode="&#xe0;" horiz-adv-x="567" 
d="M331 544h-105l-64 159h131zM254 92q66 0 118 37v29q-55 38 -118 38q-72 0 -72 -53q0 -24 18.5 -37.5t53.5 -13.5zM373 0l4 39q-49 -54 -144 -54q-82 0 -130 45t-48 116q0 69 50.5 113t127.5 44q84 0 134 -40l-4 20q0 108 -105 108q-45 0 -81 -22.5t-56 -53.5l-59 92
q31 49 88 76.5t126 27.5q60 0 104.5 -20t67.5 -53.5t33.5 -70t10.5 -77.5v-290h-119z" />
    <glyph glyph-name="acircumflex" unicode="&#xe2;" horiz-adv-x="567" 
d="M317 544l-47 77l-47 -77l-109 5l102 154h108l103 -154zM254 92q66 0 118 37v29q-55 38 -118 38q-72 0 -72 -53q0 -24 18.5 -37.5t53.5 -13.5zM373 0l4 39q-49 -54 -144 -54q-82 0 -130 45t-48 116q0 69 50.5 113t127.5 44q84 0 134 -40l-4 20q0 108 -105 108
q-45 0 -81 -22.5t-56 -53.5l-59 92q31 49 88 76.5t126 27.5q60 0 104.5 -20t67.5 -53.5t33.5 -70t10.5 -77.5v-290h-119z" />
    <glyph glyph-name="adieresis" unicode="&#xe4;" horiz-adv-x="567" 
d="M362 556q-35 0 -53 20.5t-18 49.5q0 31 18 52t53 21t53.5 -21.5t18.5 -51.5q0 -29 -18.5 -49.5t-53.5 -20.5zM174 556q-35 0 -53 20.5t-18 49.5q0 31 18 52t53 21t53.5 -21.5t18.5 -51.5q0 -29 -18.5 -49.5t-53.5 -20.5zM254 92q66 0 118 37v29q-55 38 -118 38
q-72 0 -72 -53q0 -24 18.5 -37.5t53.5 -13.5zM373 0l4 39q-49 -54 -144 -54q-82 0 -130 45t-48 116q0 69 50.5 113t127.5 44q84 0 134 -40l-4 20q0 108 -105 108q-45 0 -81 -22.5t-56 -53.5l-59 92q31 49 88 76.5t126 27.5q60 0 104.5 -20t67.5 -53.5t33.5 -70t10.5 -77.5
v-290h-119z" />
    <glyph glyph-name="ae" unicode="&#xe6;" horiz-adv-x="906" 
d="M612 396q-89 0 -111 -81h207q-4 37 -30 59t-66 22zM846 47q-31 -26 -84 -44t-111 -18q-136 0 -214 78q-27 -33 -78.5 -55.5t-118.5 -22.5q-85 0 -135 45t-50 116q0 69 50.5 113t127.5 44q82 0 130 -37v17q0 108 -105 108q-45 0 -81 -22.5t-56 -53.5l-59 92q31 49 88 76.5
t126 27.5q103 0 161 -61q65 67 175 67q123 0 181.5 -89.5t41.5 -211.5h-338q10 -57 54 -83.5t109 -26.5q93 0 166 65zM260 92q69 0 127 45q-6 14 -8 22q-56 37 -125 37q-72 0 -72 -53q0 -24 20.5 -37.5t57.5 -13.5z" />
    <glyph glyph-name="ccedilla" unicode="&#xe7;" horiz-adv-x="570" 
d="M531 47q-55 -50 -152 -60l-36 -107h-132l61 112q-104 19 -160.5 92t-56.5 169q0 111 71.5 187.5t198.5 76.5q60 0 110.5 -18t80.5 -46l-20 -130q-75 68 -162 68q-63 0 -103.5 -36t-40.5 -102q0 -69 45 -105.5t110 -36.5q95 0 166 68z" />
    <glyph glyph-name="egrave" unicode="&#xe8;" horiz-adv-x="582" 
d="M358 544h-105l-64 159h131zM303 396q-89 0 -111 -81h207q-4 37 -30 59t-66 22zM537 47q-31 -26 -84 -44t-111 -18q-140 0 -213.5 77.5t-73.5 188.5q0 115 64.5 190.5t183.5 75.5q123 0 181.5 -89.5t41.5 -211.5h-338q10 -57 54 -83.5t109 -26.5q93 0 166 65z" />
    <glyph glyph-name="eacute" unicode="&#xe9;" horiz-adv-x="582" 
d="M350 544h-105l38 159h131zM303 396q-89 0 -111 -81h207q-4 37 -30 59t-66 22zM537 47q-31 -26 -84 -44t-111 -18q-140 0 -213.5 77.5t-73.5 188.5q0 115 64.5 190.5t183.5 75.5q123 0 181.5 -89.5t41.5 -211.5h-338q10 -57 54 -83.5t109 -26.5q93 0 166 65z" />
    <glyph glyph-name="ecircumflex" unicode="&#xea;" horiz-adv-x="582" 
d="M342 544l-47 77l-47 -77l-109 5l102 154h108l103 -154zM303 396q-89 0 -111 -81h207q-4 37 -30 59t-66 22zM537 47q-31 -26 -84 -44t-111 -18q-140 0 -213.5 77.5t-73.5 188.5q0 115 64.5 190.5t183.5 75.5q123 0 181.5 -89.5t41.5 -211.5h-338q10 -57 54 -83.5
t109 -26.5q93 0 166 65z" />
    <glyph glyph-name="edieresis" unicode="&#xeb;" horiz-adv-x="582" 
d="M391 556q-35 0 -53 20.5t-18 49.5q0 31 18 52t53 21t53.5 -21.5t18.5 -51.5q0 -29 -18.5 -49.5t-53.5 -20.5zM203 556q-35 0 -53 20.5t-18 49.5q0 31 18 52t53 21t53.5 -21.5t18.5 -51.5q0 -29 -18.5 -49.5t-53.5 -20.5zM303 396q-89 0 -111 -81h207q-4 37 -30 59t-66 22
zM537 47q-31 -26 -84 -44t-111 -18q-140 0 -213.5 77.5t-73.5 188.5q0 115 64.5 190.5t183.5 75.5q123 0 181.5 -89.5t41.5 -211.5h-338q10 -57 54 -83.5t109 -26.5q93 0 166 65z" />
    <glyph glyph-name="icircumflex" unicode="&#xee;" horiz-adv-x="287" 
d="M187 544l-47 77l-47 -77l-109 5l102 154h108l103 -154zM212 0h-137v503h137v-503z" />
    <glyph glyph-name="idieresis" unicode="&#xef;" horiz-adv-x="287" 
d="M236 556q-35 0 -53 20.5t-18 49.5q0 31 18 52t53 21t53.5 -21.5t18.5 -51.5q0 -29 -18.5 -49.5t-53.5 -20.5zM48 556q-35 0 -53 20.5t-18 49.5q0 31 18 52t53 21t53.5 -21.5t18.5 -51.5q0 -29 -18.5 -49.5t-53.5 -20.5zM212 0h-137v503h137v-503z" />
    <glyph glyph-name="ocircumflex" unicode="&#xf4;" horiz-adv-x="664" 
d="M373 544l-47 77l-47 -77l-109 5l102 154h108l103 -154zM332 -15q-131 0 -204 78t-73 188t73 188t204 78t204 -78t73 -188t-73 -188t-204 -78zM332 111q63 0 101.5 38t38.5 102t-38.5 102t-101.5 38t-101.5 -38t-38.5 -102t38.5 -102t101.5 -38z" />
    <glyph glyph-name="odieresis" unicode="&#xf6;" horiz-adv-x="664" 
d="M420 556q-35 0 -53 20.5t-18 49.5q0 31 18 52t53 21t53.5 -21.5t18.5 -51.5q0 -29 -18.5 -49.5t-53.5 -20.5zM232 556q-35 0 -53 20.5t-18 49.5q0 31 18 52t53 21t53.5 -21.5t18.5 -51.5q0 -29 -18.5 -49.5t-53.5 -20.5zM332 -15q-131 0 -204 78t-73 188t73 188t204 78
t204 -78t73 -188t-73 -188t-204 -78zM332 111q63 0 101.5 38t38.5 102t-38.5 102t-101.5 38t-101.5 -38t-38.5 -102t38.5 -102t101.5 -38z" />
    <glyph glyph-name="divide" unicode="&#xf7;" horiz-adv-x="479" 
d="M238 436q-35 0 -55.5 21.5t-20.5 51.5q0 32 20.5 53.5t55.5 21.5q36 0 56.5 -21.5t20.5 -53.5q0 -30 -20.5 -51.5t-56.5 -21.5zM444 398v-139h-409v139h409zM238 72q-35 0 -55.5 21t-20.5 52q0 32 20.5 53.5t55.5 21.5q36 0 56.5 -21.5t20.5 -53.5q0 -31 -20.5 -52
t-56.5 -21z" />
    <glyph glyph-name="ugrave" unicode="&#xf9;" horiz-adv-x="645" 
d="M377 544h-105l-64 159h131zM439 0v50q-71 -61 -168 -61q-95 0 -145.5 59.5t-50.5 137.5v317h131v-289q0 -98 95 -98q78 0 138 65v322h131v-503h-131z" />
    <glyph glyph-name="ucircumflex" unicode="&#xfb;" horiz-adv-x="645" 
d="M366 544l-47 77l-47 -77l-109 5l102 154h108l103 -154zM439 0v50q-71 -61 -168 -61q-95 0 -145.5 59.5t-50.5 137.5v317h131v-289q0 -98 95 -98q78 0 138 65v322h131v-503h-131z" />
    <glyph glyph-name="udieresis" unicode="&#xfc;" horiz-adv-x="645" 
d="M418 556q-35 0 -53 20.5t-18 49.5q0 31 18 52t53 21t53.5 -21.5t18.5 -51.5q0 -29 -18.5 -49.5t-53.5 -20.5zM230 556q-35 0 -53 20.5t-18 49.5q0 31 18 52t53 21t53.5 -21.5t18.5 -51.5q0 -29 -18.5 -49.5t-53.5 -20.5zM439 0v50q-71 -61 -168 -61q-95 0 -145.5 59.5
t-50.5 137.5v317h131v-289q0 -98 95 -98q78 0 138 65v322h131v-503h-131z" />
    <glyph glyph-name="dotlessi" unicode="&#x131;" horiz-adv-x="287" 
d="M212 0h-137v503h137v-503z" />
    <glyph glyph-name="OE" unicode="&#x152;" horiz-adv-x="1061" 
d="M392 510q-87 0 -141 -53.5t-54 -144.5t54 -144.5t141 -53.5t140.5 53.5t53.5 144.5t-53.5 144.5t-140.5 53.5zM987 0h-481q-51 -15 -114 -15q-83 0 -149 27t-106 73t-61 103.5t-21 123.5t21 123.5t61 103.5t106 73t149 27q63 0 114 -15h481v-134h-304q29 -48 40 -109h254
v-133h-253q-10 -60 -41 -114h304v-134z" />
    <glyph glyph-name="oe" unicode="&#x153;" horiz-adv-x="1011" 
d="M726 396q-90 0 -114 -81h214q-5 36 -31.5 58.5t-68.5 22.5zM332 111q63 0 101.5 38t38.5 102t-38.5 102t-101.5 38t-101.5 -38t-38.5 -102t38.5 -102t101.5 -38zM966 47q-30 -26 -85 -44t-115 -18q-149 0 -226 106q-74 -106 -211 -106q-131 0 -202.5 78t-71.5 188
t71.5 188t202.5 78q132 0 207 -100q67 100 192 100t184.5 -89.5t42.5 -211.5h-347q11 -57 57.5 -83.5t114.5 -26.5q89 0 166 67z" />
    <glyph glyph-name="florin" unicode="&#x192;" horiz-adv-x="481" 
d="M382 233h-152v-233h-126v233h-79v7l79 113v82q0 95 57.5 149t141.5 54q131 1 183 -116l-92 -80q-16 42 -35.5 60.5t-54.5 18.5q-32 0 -53 -21.5t-21 -63.5v-83h152v-120z" />
    <glyph glyph-name="circumflex" unicode="&#x2c6;" horiz-adv-x="403" 
d="M248 544l-47 77l-47 -77l-109 5l102 154h108l103 -154z" />
    <glyph glyph-name="endash" unicode="&#x2013;" horiz-adv-x="604" 
d="M549 397v-139h-494v139h494z" />
    <glyph glyph-name="emdash" unicode="&#x2014;" horiz-adv-x="917" 
d="M862 397v-139h-807v139h807z" />
    <glyph glyph-name="quoteleft" unicode="&#x2018;" horiz-adv-x="179" 
d="M152 460h-131l69 179l81 -40z" />
    <glyph glyph-name="quoteright" unicode="&#x2019;" horiz-adv-x="179" 
d="M33 624h131l-68 -179l-81 39z" />
    <glyph glyph-name="quotesinglbase" unicode="&#x201a;" horiz-adv-x="179" 
d="M33 76h131l-68 -194l-81 39z" />
    <glyph glyph-name="quotedblleft" unicode="&#x201c;" horiz-adv-x="352" 
d="M329 445h-131l68 179l81 -39zM157 445h-131l68 179l81 -39z" />
    <glyph glyph-name="quotedblright" unicode="&#x201d;" horiz-adv-x="352" 
d="M206 624h131l-68 -179l-81 39zM33 624h131l-68 -179l-81 39z" />
    <glyph glyph-name="quotedblbase" unicode="&#x201e;" horiz-adv-x="331" 
d="M185 76h131l-68 -179l-81 39zM33 76h131l-68 -179l-81 39z" />
    <glyph glyph-name="bullet" unicode="&#x2022;" horiz-adv-x="322" 
d="M161 184q-52 0 -89 37t-37 89t37 89t89 37t89 -37t37 -89t-37 -89t-89 -37z" />
    <glyph glyph-name="ellipsis" unicode="&#x2026;" horiz-adv-x="747" 
d="M635 -16q-37 0 -56 21.5t-19 51.5q0 32 19 53t56 21q39 0 58 -21t19 -53q0 -31 -19 -52t-58 -21zM373 -16q-37 0 -56 21t-19 52q0 32 19 53t56 21q38 0 57.5 -21t19.5 -53q0 -30 -19.5 -51.5t-57.5 -21.5zM111 -16q-37 0 -56.5 21.5t-19.5 51.5q0 32 19 53t57 21
t57.5 -21t19.5 -53q0 -30 -19.5 -51.5t-57.5 -21.5z" />
    <glyph glyph-name="guilsinglleft" unicode="&#x2039;" horiz-adv-x="341" 
d="M147 57l-132 209v9l132 209l180 -20l-147 -193l147 -194z" />
    <glyph glyph-name="guilsinglright" unicode="&#x203a;" horiz-adv-x="341" 
d="M337 266l-132 -209l-180 20l147 194l-147 193l180 20l132 -209v-9z" />
    <glyph glyph-name="fraction" unicode="&#x2044;" horiz-adv-x="359" 
d="M132 0h-137l232 627h137z" />
    <glyph glyph-name="zerosuperior" unicode="&#x2070;" horiz-adv-x="454" 
d="M227 234q-89 0 -142 60t-53 143t53 143t142 60q90 0 142.5 -60t52.5 -143t-52.5 -143t-142.5 -60zM227 531q-36 0 -56 -25t-20 -69q0 -43 20 -68.5t56 -25.5q37 0 56.5 25t19.5 69t-19.5 69t-56.5 25z" />
    <glyph glyph-name="foursuperior" unicode="&#x2074;" horiz-adv-x="420" 
d="M398 293h-43v-49h-106v49h-246l59 94l156 245h118l-153 -245h66v69h106v-69h43v-94z" />
    <glyph glyph-name="fivesuperior" unicode="&#x2075;" horiz-adv-x="394" 
d="M192 234q-72 0 -115.5 31t-54.5 74l85 46q6 -22 27.5 -36t52.5 -14q65 0 65 39q0 44 -78 44q-52 0 -107 -18v231h269v-93h-161v-34q87 9 137.5 -21.5t50.5 -104.5q0 -60 -46 -102t-125 -42z" />
    <glyph glyph-name="sixsuperior" unicode="&#x2076;" horiz-adv-x="440" 
d="M409 374q0 -63 -44 -101.5t-128 -38.5q-87 0 -141 51.5t-54 144.5q0 95 52.5 152.5t151.5 57.5q118 0 167 -67l-63 -76q-36 44 -100 44q-79 0 -98 -66q42 20 92 20q73 0 119 -33t46 -88zM239 338q57 0 57 30q0 28 -52 28q-45 0 -85 -15q20 -43 80 -43z" />
    <glyph glyph-name="sevensuperior" unicode="&#x2077;" horiz-adv-x="376" 
d="M146 244h-122l198 289h-195v99h383v-6z" />
    <glyph glyph-name="eightsuperior" unicode="&#x2078;" horiz-adv-x="413" 
d="M209 234q-83 0 -130 36.5t-47 95.5q0 74 69 109q-25 28 -25 65q0 40 35.5 70t100.5 30q63 0 100 -31t37 -69q0 -41 -34 -72q66 -36 66 -102q0 -59 -46 -95.5t-126 -36.5zM177 524q0 -28 35 -28q36 0 36 28q0 13 -9 22t-27 9q-35 0 -35 -31zM141 375q0 -51 68 -51
q65 0 65 51t-65 51q-68 0 -68 -51z" />
    <glyph glyph-name="ninesuperior" unicode="&#x2079;" horiz-adv-x="434" 
d="M198 478q45 0 85 15q-20 43 -80 43q-57 0 -57 -30q0 -28 52 -28zM196 234q-125 0 -176 71l63 76q39 -48 109 -48q79 0 98 66q-42 -20 -92 -20q-72 0 -118.5 33.5t-46.5 87.5q0 63 43.5 101.5t128.5 38.5q87 0 141 -51.5t54 -144.5q0 -95 -52.5 -152.5t-151.5 -57.5z" />
    <glyph glyph-name="Euro" unicode="&#x20ac;" horiz-adv-x="734" 
d="M709 63q-36 -33 -101 -55.5t-138 -22.5q-129 0 -214 59.5t-118 156.5h-83v99h65v12v14h-65v99h83q32 96 115.5 155t211.5 59q77 0 140 -22.5t99 -55.5l-30 -136q-86 81 -205 81q-123 0 -176 -81h201v-99h-231v-14v-12h231v-99h-200q55 -83 179 -83q120 0 206 81z" />
    <glyph glyph-name="trademark" unicode="&#x2122;" horiz-adv-x="729" 
d="M519 470l181 159h9v-317h-100v87l-90 -65l-88 65v-87h-101v317h9zM101 527h-106v97h310v-97h-104v-215h-100v215z" />
    <glyph glyph-name="minus" unicode="&#x2212;" horiz-adv-x="479" 
d="M444 398v-139h-409v139h409z" />
    <glyph glyph-name="star" unicode="&#x22c6;" horiz-adv-x="723" 
d="M360 499h4q0 -80 52.5 -133.5t131.5 -53.5v-3q-79 0 -131.5 -52t-52.5 -131h-4q0 79 -52.5 131t-132.5 52v3q79 0 132 53.5t53 133.5z" />
    <glyph glyph-name="u2661" unicode="&#x2661;" horiz-adv-x="652" 
d="M597 358q0 -44 -21.5 -85t-56 -74.5t-70.5 -66t-70.5 -74t-51.5 -83.5q-17 42 -52.5 83.5t-71.5 74t-70.5 66.5t-56 74.5t-21.5 85.5q0 68 37 106t95 38q94 0 140 -105q44 105 132 105q60 0 99 -38.5t39 -106.5z" />
    <glyph glyph-name="u2662" unicode="&#x2662;" horiz-adv-x="648" 
d="M45 251q106 42 172 108.5t107 167.5q41 -101 107.5 -167t171.5 -109q-105 -43 -171.5 -109t-107.5 -167q-41 101 -107 167.5t-172 108.5z" />
    <glyph glyph-name="u2664" unicode="&#x2664;" horiz-adv-x="594" 
d="M388 -3q-88 7 -182 0q62 96 70 163q-38 -59 -100 -59q-56 0 -88.5 34t-32.5 89q0 40 19 69.5t49 50.5t62 42.5t63.5 57.5t48.5 83q17 -47 48.5 -83t63.5 -57.5t62 -42.5t49 -50.5t19 -69.5q0 -54 -31 -88.5t-78 -34.5q-40 0 -66 12.5t-45 46.5q5 -44 20.5 -78.5
t48.5 -84.5z" />
    <glyph glyph-name="u2667" unicode="&#x2667;" horiz-adv-x="670" 
d="M352 225q0 -69 17 -117t60 -112q-90 7 -186 0q43 65 59.5 112.5t15.5 116.5q-15 0 -27.5 -9.5t-22.5 -22.5t-21.5 -26t-32 -22.5t-48.5 -9.5q-43 0 -77 28.5t-34 77.5q0 50 34 78.5t77 28.5q34 0 58 -14t34.5 -31t26 -31t34.5 -14q0 18 -14.5 36t-32 31.5t-32 37.5
t-14.5 53q0 41 29.5 71t79.5 30t80 -30t30 -71q0 -29 -14.5 -53t-32.5 -37.5t-32.5 -31.5t-14.5 -36q19 0 34.5 14t26 31t34.5 31t58 14q43 0 77 -28.5t34 -78.5q0 -49 -34 -77.5t-77 -28.5q-28 0 -48.5 9.5t-32 22.5t-21.5 26t-22 22.5t-28 9.5z" />
    <glyph glyph-name="leftwardsarrow" horiz-adv-x="784" 
d="M427 82l-159 -34l-216 275v13l216 276l159 -35l-162 -181h481v-134h-480z" />
    <glyph glyph-name="rightwardsarrow" horiz-adv-x="784" 
d="M746 324l-216 -276l-159 35l162 181h-481v134h480l-161 180l159 34l216 -275v-13z" />
    <glyph glyph-name="downwardsarrow" horiz-adv-x="713" 
d="M350 1l-275 216l34 159l181 -162v481h134v-480l180 161l35 -159l-276 -216h-13z" />
    <glyph glyph-name="upwardsarrow" horiz-adv-x="713" 
d="M424 1h-134v481l-181 -162l-34 159l275 216h13l276 -216l-35 -159l-180 161v-480z" />
    <glyph glyph-name="acute.cap" horiz-adv-x="384" 
d="M287 767l-54 -109h-123l42 109h135z" />
    <glyph glyph-name="grave.cap" horiz-adv-x="384" 
d="M149 658l-54 109h135l43 -109h-124z" />
    <glyph glyph-name="circumflex.cap" horiz-adv-x="417" 
d="M337 646l-129 40l-128 -40l-5 93l133 50l133 -50z" />
    <glyph glyph-name="dieresis.cap" horiz-adv-x="427" 
d="M316 647q-35 0 -52.5 20.5t-17.5 48.5q0 30 17.5 50.5t52.5 20.5t52.5 -20.5t17.5 -50.5q0 -28 -18 -48.5t-52 -20.5zM112 647q-34 0 -52 20.5t-18 48.5q0 30 17.5 50.5t52.5 20.5t52.5 -20.5t17.5 -50.5q0 -28 -18 -48.5t-52 -20.5z" />
    <glyph glyph-name="a.alt" horiz-adv-x="633" 
d="M317 112q63 0 110 39v204q-47 36 -104 36q-63 0 -98 -39t-35 -104q0 -66 36.5 -101t90.5 -35zM428 0l9 37q-60 -52 -139 -52q-110 0 -176.5 71t-66.5 193q0 121 68 195t179 74q81 0 138 -51l-7 36h126v-503h-131z" />
    <glyph glyph-name="g.alt" horiz-adv-x="639" 
d="M319 112q63 0 113 39v203q-49 37 -107 37q-63 0 -99 -39t-36 -104q0 -66 37.5 -101t91.5 -35zM304 -260q-99 0 -179 45l-18 145q96 -62 181 -62q144 0 144 121v41q-57 -45 -132 -45q-109 0 -177 71.5t-68 192.5t69.5 195t180.5 74q77 0 132 -46l-5 30h131l1 -511
q0 -124 -71.5 -187.5t-188.5 -63.5z" />
    <glyph glyph-name="y.alt" horiz-adv-x="565" 
d="M231 -260l-98 97l80 172l-198 494h150l119 -324l121 324h145z" />
    <glyph glyph-name="hyphen.alt" horiz-adv-x="418" 
d="M383 448v-139l-348 -100v139z" />
    <glyph glyph-name="zero.osf" horiz-adv-x="730" 
d="M348 -15q-130 0 -211.5 84t-81.5 199q0 114 81.5 197.5t211.5 83.5q131 0 212 -83.5t81 -197.5q0 -115 -81 -199t-212 -84zM348 108q71 0 114 45.5t43 114.5q0 68 -43 113t-114 45t-114 -45t-43 -113q0 -69 43 -114.5t114 -45.5z" />
    <glyph glyph-name="one.osf" horiz-adv-x="432" 
d="M337 0h-131v353l-151 -113v156l171 137h111v-533z" />
    <glyph glyph-name="two.osf" horiz-adv-x="612" 
d="M547 0h-496v22q180 114 256 184.5t76 139.5q0 84 -76 84q-54 0 -80.5 -39.5t-1.5 -128.5l-122 27q-23 125 38 192.5t166 67.5q96 0 150.5 -56.5t54.5 -145.5q0 -126 -132 -224h167v-123z" />
    <glyph glyph-name="three.osf" horiz-adv-x="637" 
d="M310 -105q-114 0 -187 58.5t-78 133.5l114 58q3 -54 42 -89.5t109 -35.5q60 0 92.5 27.5t32.5 71.5q0 50 -38 79.5t-114 29.5q-53 0 -130 -21v10l159 190h-220v127h474v-10l-171 -213q70 -8 123.5 -59t53.5 -136q0 -99 -69.5 -160t-192.5 -61z" />
    <glyph glyph-name="four.osf" horiz-adv-x="657" 
d="M613 0h-87v-91h-137v91h-374v4l72 111l273 418h157l-268 -418h140v161h137v-161h87v-115z" />
    <glyph glyph-name="five.osf" horiz-adv-x="638" 
d="M310 -106q-111 0 -181.5 54.5t-83.5 125.5l109 60q9 -50 51 -82.5t105 -32.5q57 0 88.5 29t31.5 76q0 46 -41 72t-111 25t-149 -33l-4 3v342h394v-127h-269v-79q39 7 81.5 9.5t84 -11.5t74 -36.5t53 -65.5t20.5 -99q0 -97 -67 -163.5t-186 -66.5z" />
    <glyph glyph-name="six.osf" horiz-adv-x="689" 
d="M614 198q0 -92 -63.5 -152.5t-179.5 -60.5q-62 0 -114.5 18t-96.5 56t-69.5 104.5t-25.5 155.5q0 140 75.5 230t215.5 90q91 0 149.5 -37t82.5 -94l-79 -92q-47 99 -152 99q-73 0 -115 -42t-49 -123q76 51 177 51q108 0 176 -53t68 -150zM366 109q55 0 83 24t28 64
q0 37 -32.5 57.5t-80.5 20.5q-94 0 -160 -52q37 -114 162 -114z" />
    <glyph glyph-name="seven.osf" horiz-adv-x="571" 
d="M196 -91h-149l328 495h-334v129h556v-10z" />
    <glyph glyph-name="eight.osf" horiz-adv-x="637" 
d="M318 -15q-121 0 -192 60.5t-71 153.5q0 114 107 165q-43 41 -43 101q0 72 53 123t148 51t148.5 -51t53.5 -123q0 -61 -47 -103q107 -49 107 -163q0 -93 -71 -153.5t-193 -60.5zM247 467q0 -26 19 -44.5t54 -18.5t54.5 18.5t19.5 44.5q0 27 -19.5 45t-54.5 18t-54 -18
t-19 -45zM189 207q0 -45 33 -72.5t96 -27.5t96.5 27.5t33.5 72.5q0 46 -33 73.5t-97 27.5q-63 0 -96 -27.5t-33 -73.5z" />
    <glyph glyph-name="nine.osf" horiz-adv-x="654" 
d="M324 261q80 0 139 46q-32 117 -140 117q-42 0 -69.5 -22.5t-27.5 -58.5q0 -39 28 -60.5t70 -21.5zM311 -106q-96 0 -162.5 38.5t-93.5 106.5l90 88q47 -109 168 -109q141 0 157 160q-64 -43 -153 -43q-92 0 -158 54.5t-66 145.5q0 93 66 153t165 60q124 0 199.5 -82
t75.5 -243q0 -152 -71.5 -240.5t-216.5 -88.5z" />
    <glyph glyph-name="dollar.osf" horiz-adv-x="531" 
d="M355 -120h-131v112q-76 15 -123 59t-56 101l113 58q28 -110 138 -110q36 0 50.5 11.5t14.5 36.5q0 23 -27.5 41t-67 33t-79 34.5t-67 56.5t-27.5 88q0 46 26.5 84.5t80.5 54.5v84h131v-83q48 -12 80 -41.5t44 -67.5l-96 -69q-15 36 -36 53.5t-55 17.5q-22 0 -34 -9.5
t-12 -23.5q0 -23 27 -41t66 -32.5t77.5 -33t65.5 -54.5t27 -86q0 -64 -33 -107t-97 -56v-111z" />
    <glyph glyph-name="cent.osf" horiz-adv-x="594" 
d="M559 47q-46 -42 -140 -57v-110h-137v111q-109 19 -168 92t-59 170t60.5 170t166.5 90v111h137v-114q86 -15 133 -57l-21 -130q-75 68 -179 68q-71 0 -116.5 -35.5t-45.5 -102.5q0 -69 46.5 -105.5t121.5 -36.5q110 0 181 68z" />
    <glyph glyph-name="sterling.osf" horiz-adv-x="549" 
d="M508 0h-443v121h109q18 38 11 72h-101v123h51q-12 36 -12 73q0 65 49 112t133 47q79 0 127.5 -38t55.5 -89l-107 -70q-12 67 -67 67q-54 0 -54 -50q0 -20 16 -52h131l-10 -123h-86q1 -29 -9 -72h206v-121z" />
    <glyph glyph-name="yen.osf" horiz-adv-x="587" 
d="M511 176h-149v-176h-131v176h-150v110h106l-157 247h150l116 -211l118 211h148l-157 -247h106v-110z" />
    <glyph glyph-name="Euro.osf" horiz-adv-x="631" 
d="M597 48q-32 -27 -86 -45t-118 -18q-124 0 -206 61.5t-104 158.5h-53v120h50q16 99 87.5 162t196.5 63q131 0 209 -65l-22 -117q-77 68 -178 68q-71 0 -113.5 -25.5t-55.5 -85.5h224v-120h-220q31 -106 188 -106q102 0 178 68z" />
    <glyph glyph-name="florin.osf" horiz-adv-x="471" 
d="M372 180h-152v-180h-126v180h-79l79 120v45q0 94 57.5 148t141.5 55q131 1 183 -115l-92 -80q-16 41 -35.5 59t-54.5 18q-32 0 -53 -21.5t-21 -61.5v-47h152v-120z" />
    <glyph glyph-name="rightpointedhand" horiz-adv-x="1143" 
d="M77 525v-332l142 7l9 316zM1021 521l-374 3l68 -66l305 7q48 1 48 28q0 28 -47 28zM205 438q-24 -7 -34.5 -17t-15.5 -32h-7q-6 22 -16.5 32.5t-33.5 16.5v7q22 5 33 16.5t17 34.5h7q9 -42 50 -51v-7zM760 348q-10 -16 -22 -22l48 20q2 10 2 14q0 16 -15 26
q-1 -20 -13 -38zM544 143q10 0 26 2q-11 14 -11 33q0 9 2 19q-63 14 -63 70q0 9 3 17q-24 -6 -50 -6q-54 0 -99 34l11 74q38 -31 95 -31q51 0 85 25q-34 26 -58 50l20 63q112 -128 187 -128q46 0 50 34l-151 138q-34 31 -72 31q-42 0 -134.5 -63.5t-139.5 -71.5l-4 -174
q47 -7 91 -26.5t71.5 -38.5t65 -34.5t75.5 -16.5zM553 249l158 66q-12 -3 -24 -3q-40 0 -92 32q-32 -34 -60 -47q-4 -8 -4 -21q0 -26 22 -27zM605 175l205 77q3 7 3 12q0 19 -24 24l-197 -81q-3 -7 -3 -13q0 -16 16 -19zM649 105l168 55q4 5 4 14q0 14 -14 20l-170 -64
q-1 -4 -1 -10q0 -12 13 -15zM548 53q-45 0 -88.5 16t-73 36t-69.5 38.5t-77 21.5l-2 -71l-181 -9v472l191 -13l-2 -80q31 6 81.5 40t100 64t83.5 31q57 2 97 -37l13 -13l395 -4q38 0 60.5 -18t22.5 -49q0 -70 -83 -74l-211 -7q20 -18 20 -45q0 -23 -12 -49q34 -14 34 -52
q0 -22 -16 -41q24 -18 24 -47q0 -48 -43 -61l-160 -49q-17 3 -26 11q-34 -11 -78 -11z" />
    </font>
</defs>
</svg>
