<?xml version="1.0" standalone="no"?>
<!DOCTYPE svg PUBLIC "-//W3C//DTD SVG 1.1//EN" "http://www.w3.org/Graphics/SVG/1.1/DTD/svg11.dtd" >
<svg xmlns="http://www.w3.org/2000/svg" xmlns:xlink="http://www.w3.org/1999/xlink" version="1.1">
<metadata>
Created by FontForge 20161013 at Fri Feb 20 16:41:33 2015
 By ,,,
(c)2015 Wcie All right reserved.
</metadata>
<defs>
<font id="Lucien-Light" horiz-adv-x="619" >
  <font-face 
    font-family="Lucien Light"
    font-weight="200"
    font-stretch="normal"
    units-per-em="1000"
    panose-1="2 0 0 0 0 0 0 0 0 0"
    ascent="800"
    descent="-200"
    x-height="503"
    cap-height="624"
    bbox="-68 -261 1120 757"
    underline-thickness="35"
    underline-position="-158"
    unicode-range="U+0020-FB02"
  />
<missing-glyph horiz-adv-x="551" 
d="M343 382v-1q67 -5 117.5 -40.5t50.5 -96.5q0 -67 -56.5 -106t-139.5 -39v4q58 0 87.5 42t29.5 99q0 59 -32 95t-102 36h-44q-48 0 -76 -25t-30 -65h-3v339h148q75 0 133.5 -30t58.5 -95q0 -47 -43.5 -79.5t-98.5 -37.5zM224 386h74q52 0 84 32t32 83q0 53 -37 82.5
t-98 29.5h-55v-227zM145 216h3q0 -49 35 -81t87 -32v-4q-52 0 -87 -31.5t-35 -80.5h-3q0 49 -35.5 80.5t-89.5 31.5v4q54 0 89.5 32t35.5 81z" />
    <glyph glyph-name="fi" unicode="fi" horiz-adv-x="515" 
d="M379 0v465h-260v-465h-39v465h-34l19 38h15v31q0 98 45.5 149.5t132.5 51.5q60 0 110 -23l7 -42q-61 28 -115 28q-141 0 -141 -164v-31h300v-503h-40z" />
    <glyph glyph-name="fl" unicode="fl" horiz-adv-x="514" 
d="M379 0v465h-260v-465h-39v465h-34l19 38h15v37q0 94 44 145t120 51q48 0 96 -21l7 -42q-59 26 -100 26q-128 0 -128 -163v-33h260v221h39v-724h-39z" />
    <glyph glyph-name="f_f" unicode="ff" horiz-adv-x="650" 
d="M119 504v-1h260v31q0 60 16 99q-52 35 -123 35q-153 0 -153 -164zM379 0v465h-260v-465h-39v465h-34v6l21 32h13v1q0 95 52.5 148t140.5 53q81 0 138 -39q44 69 146 69q60 0 110 -23l7 -42q-61 28 -115 28q-140 0 -140 -164v-31h207v-38h-207v-465h-40z" />
    <glyph glyph-name="f_f_i" unicode="ffi" horiz-adv-x="815" 
d="M119 504v-1h260v31q0 60 16 99q-52 35 -123 35q-153 0 -153 -164zM379 0v465h-260v-465h-39v465h-34v5l21 33h13v1q0 95 53 148t142 53q80 0 136 -40q44 70 146 70q60 0 110 -23l7 -42q-61 28 -115 28q-140 0 -140 -164v-31h300v-503h-41v465h-259v-465h-40z" />
    <glyph glyph-name="f_f_l" unicode="ffl" horiz-adv-x="814" 
d="M119 504v-1h260v37q0 55 15 94q-52 34 -122 34q-153 0 -153 -164zM379 0v465h-260v-465h-39v465h-34v5l21 33h13v1q0 95 52.5 148t140.5 53q81 0 136 -40q42 71 134 71q48 0 96 -21l7 -42q-57 25 -100 25q-127 0 -127 -162v-33h259v221h39v-724h-39v465h-259v-465h-40z
" />
    <glyph glyph-name=".notdef" horiz-adv-x="551" 
d="M343 382v-1q67 -5 117.5 -40.5t50.5 -96.5q0 -67 -56.5 -106t-139.5 -39v4q58 0 87.5 42t29.5 99q0 59 -32 95t-102 36h-44q-48 0 -76 -25t-30 -65h-3v339h148q75 0 133.5 -30t58.5 -95q0 -47 -43.5 -79.5t-98.5 -37.5zM224 386h74q52 0 84 32t32 83q0 53 -37 82.5
t-98 29.5h-55v-227zM145 216h3q0 -49 35 -81t87 -32v-4q-52 0 -87 -31.5t-35 -80.5h-3q0 49 -35.5 80.5t-89.5 31.5v4q54 0 89.5 32t35.5 81z" />
    <glyph glyph-name=".null" horiz-adv-x="0" 
 />
    <glyph glyph-name="nonmarkingreturn" horiz-adv-x="333" 
 />
    <glyph glyph-name="space" unicode=" " horiz-adv-x="240" 
 />
    <glyph glyph-name="exclam" unicode="!" horiz-adv-x="228" 
d="M98 119l-6 505h44l-6 -505h-32zM115 -10q-13 0 -19.5 8t-6.5 18q0 26 26 26q27 0 27 -26q0 -10 -7 -18t-20 -8z" />
    <glyph glyph-name="quotedbl" unicode="&#x22;" horiz-adv-x="221" 
d="M135 624h42l-9 -179h-26zM28 624h42l-9 -179h-27z" />
    <glyph glyph-name="numbersign" unicode="#" horiz-adv-x="643" 
d="M369 245l31 127h-139l-32 -127h140zM308 0l51 207h-139l-52 -207h-39l51 207h-134v38h144l31 127h-163v38h173l53 214h40l-53 -214h139l53 214h40l-53 -214h147v-38h-157l-32 -127h177v-38h-186l-52 -207h-39z" />
    <glyph glyph-name="dollar" unicode="$" horiz-adv-x="617" 
d="M351 -138h-40v123q-112 2 -176.5 59t-82.5 141l32 29q17 -87 75.5 -139.5t158.5 -52.5q99 0 151 38t52 97q0 44 -29 74.5t-72 45.5t-93.5 33t-93.5 35.5t-72 54t-29 87.5q0 63 46.5 105.5t125.5 46.5v105h40v-106q66 -6 109 -39.5t62 -86.5l-27 -32q-39 122 -170 122
q-67 0 -106.5 -33t-39.5 -82q0 -43 29 -73.5t72 -45t93.5 -32t93.5 -35t72 -54.5t29 -89q0 -70 -53 -117.5t-157 -54.5v-124z" />
    <glyph glyph-name="percent" unicode="%" horiz-adv-x="992" 
d="M232 234q-88 0 -137 59.5t-49 143.5t49 143.5t137 59.5t137 -59.5t49 -143.5t-49 -143.5t-137 -59.5zM394 0h-41l231 624h41zM232 603q-64 0 -105 -45.5t-41 -120.5t41 -120.5t105 -45.5t105 45.5t41 120.5t-41 120.5t-105 45.5zM760 -16q-88 0 -137 59.5t-49 143.5
t49 143.5t137 59.5t137 -59.5t49 -143.5t-49 -143.5t-137 -59.5zM760 353q-64 0 -105 -45.5t-41 -120.5t41 -120.5t105 -45.5t105 45.5t41 120.5t-41 120.5t-105 45.5z" />
    <glyph glyph-name="ampersand" unicode="&#x26;" horiz-adv-x="700" 
d="M337 21q135 0 199 71l-203 170q-50 43 -72 66q-72 -7 -109 -47t-37 -99q0 -77 61 -119t161 -42zM646 0l-81 68q-73 -83 -229 -83q-123 0 -191.5 52.5t-68.5 143.5q0 71 41.5 117.5t116.5 59.5q-38 52 -38 113q0 69 45.5 115.5t130.5 46.5q77 0 122.5 -42.5t52.5 -104.5
l-34 -18q-24 129 -141 129q-63 0 -99.5 -36.5t-36.5 -92.5q0 -36 19 -69.5t39.5 -53.5t61.5 -54l201 -168q19 37 19 81q0 66 -46 121l41 5q44 -55 44 -127q0 -58 -28 -105l117 -98h-58z" />
    <glyph glyph-name="quotesingle" unicode="'" horiz-adv-x="114" 
d="M36 624h42l-9 -179h-27z" />
    <glyph glyph-name="parenleft" unicode="(" horiz-adv-x="197" 
d="M191 -120h-40q-75 179 -75 432.5t75 431.5h40q-76 -178 -76 -432t76 -432z" />
    <glyph glyph-name="parenright" unicode=")" horiz-adv-x="197" 
d="M86 -120h-40q76 178 76 432t-76 432h40q75 -178 75 -431.5t-75 -432.5z" />
    <glyph glyph-name="asterisk" unicode="*" horiz-adv-x="327" 
d="M229 399l-66 100l-65 -100l-33 26l71 92l-110 30l13 39l108 -39l-6 116h42l-5 -116l109 40l14 -39l-111 -31l72 -92z" />
    <glyph glyph-name="plus" unicode="+" horiz-adv-x="521" 
d="M465 308h-184v-184h-41v184h-184v41h184v184h41v-184h184v-41z" />
    <glyph glyph-name="comma" unicode="," horiz-adv-x="154" 
d="M65 76h40l-48 -207l-25 18z" />
    <glyph glyph-name="hyphen" unicode="-" horiz-adv-x="420" 
d="M360 348v-40h-300v40h300z" />
    <glyph glyph-name="period" unicode="." horiz-adv-x="161" 
d="M80 -10q-13 0 -19.5 8t-6.5 18q0 26 26 26q27 0 27 -26q0 -10 -7 -18t-20 -8z" />
    <glyph glyph-name="slash" unicode="/" horiz-adv-x="357" 
d="M47 -120h-41l320 864h41z" />
    <glyph glyph-name="zero" unicode="0" horiz-adv-x="744" 
d="M372 -15q-96 0 -164.5 47.5t-100 120t-31.5 159.5t31.5 159.5t100 120t164.5 47.5t164.5 -47.5t100 -120t31.5 -159.5t-31.5 -159.5t-100 -120t-164.5 -47.5zM372 601q-111 0 -183 -80t-72 -209t72 -209t183 -80t183 80t72 209t-72 209t-183 80z" />
    <glyph glyph-name="one" unicode="1" horiz-adv-x="363" 
d="M257 0h-40v558l-151 -118v47l171 137h20v-624z" />
    <glyph glyph-name="two" unicode="2" horiz-adv-x="625" 
d="M539 0h-477v10q62 41 91 61t80.5 57.5t76.5 60t59 57.5t50 62.5t28 62t12 69.5q0 73 -42.5 117t-114.5 44q-88 0 -131.5 -60t-19.5 -172l-40 10q-23 125 34.5 192.5t157.5 67.5q90 0 143 -56t53 -146q0 -56 -23.5 -108t-74 -102.5t-103 -91.5t-135.5 -97h376v-38z" />
    <glyph glyph-name="three" unicode="3" horiz-adv-x="573" 
d="M272 -15q-81 0 -138 44t-68 104l32 25q12 -62 58.5 -98.5t117.5 -36.5q74 0 123.5 40t49.5 115q0 73 -43 119.5t-145 46.5q-35 0 -86 -8v10l222 239h-295v39h372v-10l-220 -239q118 11 177 -45t59 -150q0 -87 -60 -141t-156 -54z" />
    <glyph glyph-name="four" unicode="4" horiz-adv-x="624" 
d="M558 131h-135v-131h-40v131h-347v5l21 31l321 457h45l-319 -457h279v224h40v-224h135v-36z" />
    <glyph glyph-name="five" unicode="5" horiz-adv-x="574" 
d="M281 -15q-95 0 -151.5 50t-63.5 121l36 19q6 -66 52 -109t127 -43q84 0 130 47t46 127q0 33 -9 61.5t-32.5 53t-59 37t-92.5 9.5t-128 -26l-3 3v289h321v-38h-282v-207q139 40 232.5 -8t93.5 -174q0 -93 -57.5 -152.5t-159.5 -59.5z" />
    <glyph glyph-name="six" unicode="6" horiz-adv-x="616" 
d="M540 182q0 -85 -59.5 -141t-157.5 -56q-51 0 -93 16t-78 51.5t-56 100.5t-20 154q0 146 61 239t177 93q73 0 121.5 -34t71.5 -88l-29 -29q-52 113 -164 113q-98 0 -148 -81t-50 -215v-19q33 36 89.5 61.5t121.5 25.5q94 0 153.5 -51.5t59.5 -139.5zM322 23q81 0 128 42.5
t47 114.5q0 70 -47.5 111.5t-122.5 41.5q-127 0 -208 -91q13 -115 67.5 -167t135.5 -52z" />
    <glyph glyph-name="seven" unicode="7" horiz-adv-x="525" 
d="M141 0h-45l370 586h-406v38h469v-10z" />
    <glyph glyph-name="eight" unicode="8" horiz-adv-x="602" 
d="M300 -15q-103 0 -163.5 54.5t-60.5 136.5q0 66 38 113t102 65q-33 17 -56 52.5t-23 80.5q0 61 43 106.5t122 45.5t122 -45t43 -106q0 -45 -23.5 -81.5t-57.5 -53.5q63 -19 101.5 -65.5t38.5 -111.5q0 -82 -61 -136.5t-165 -54.5zM177 488q0 -52 32.5 -86.5t92.5 -34.5
t93 34.5t33 86.5q0 50 -32.5 82.5t-93.5 32.5q-60 0 -92.5 -32.5t-32.5 -82.5zM117 177q0 -66 47 -110.5t136 -44.5t137.5 44.5t48.5 110.5t-48.5 110.5t-137.5 44.5t-136 -44.5t-47 -110.5z" />
    <glyph glyph-name="nine" unicode="9" horiz-adv-x="624" 
d="M299 291q128 0 207 92q-13 113 -66.5 165.5t-132.5 52.5t-127 -42.5t-48 -112.5q0 -71 46.5 -113t120.5 -42zM282 -15q-76 0 -129 36.5t-77 95.5l30 29q50 -123 177 -123q111 0 168.5 80.5t57.5 215.5v19q-33 -35 -88.5 -60t-121.5 -25q-92 0 -150.5 50.5t-58.5 138.5
q0 85 60 141t156 56q107 0 174.5 -76t67.5 -246q0 -147 -68 -239.5t-198 -92.5z" />
    <glyph glyph-name="colon" unicode=":" horiz-adv-x="161" 
d="M80 266q-13 0 -19.5 8t-6.5 18q0 26 26 26q27 0 27 -26q0 -10 -7 -18t-20 -8zM80 -10q-13 0 -19.5 8t-6.5 18q0 26 26 26q27 0 27 -26q0 -10 -7 -18t-20 -8z" />
    <glyph glyph-name="semicolon" unicode=";" horiz-adv-x="154" 
d="M81 266q-13 0 -19.5 8t-6.5 18q0 26 26 26q27 0 27 -26q0 -10 -7 -18t-20 -8zM65 76h40l-48 -207l-25 18z" />
    <glyph glyph-name="less" unicode="&#x3c;" horiz-adv-x="332" 
d="M270 85l-234 241v9l234 241l25 -26l-216 -219l217 -220z" />
    <glyph glyph-name="equal" unicode="=" horiz-adv-x="521" 
d="M457 479v-41h-409v41h409zM457 219v-41h-409v41h409z" />
    <glyph glyph-name="greater" unicode="&#x3e;" horiz-adv-x="332" 
d="M296 326l-234 -241l-25 26l216 219l-217 220l26 26l234 -241v-9z" />
    <glyph glyph-name="question" unicode="?" horiz-adv-x="444" 
d="M190 119l-1 141q90 34 135 76t45 116q0 69 -39.5 109.5t-106.5 40.5q-74 0 -118 -48.5t-28 -139.5l-38 9q-15 101 40 159t146 58q83 0 133 -51.5t50 -133.5t-49 -131.5t-133 -81.5l-2 -123h-34zM208 -10q-13 0 -19.5 8t-6.5 18q0 26 26 26q27 0 27 -26q0 -10 -7 -18
t-20 -8z" />
    <glyph glyph-name="at" unicode="@" horiz-adv-x="716" 
d="M385 -43q-131 0 -220 80t-89 223q0 130 85 213.5t208 83.5q117 0 184 -59.5t67 -150.5v-232h-40l2 71q-27 -35 -74.5 -60.5t-103.5 -25.5q-82 0 -129 44.5t-47 114.5q0 71 49.5 115t125.5 44q105 0 177 -62q-1 66 -54.5 115t-156.5 49q-107 0 -181.5 -72t-74.5 -188
q0 -127 78.5 -198t194.5 -71q120 0 213 66l-8 -44q-82 -56 -206 -56zM406 137q104 0 174 90v91q-83 63 -174 63q-64 0 -101.5 -34t-37.5 -87q0 -57 38.5 -90t100.5 -33z" />
    <glyph glyph-name="A" unicode="A" horiz-adv-x="692" 
d="M516 195l-170 363l-171 -363h341zM608 0l-73 155h-379l-73 -155h-47l307 639h6l307 -639h-48z" />
    <glyph glyph-name="B" unicode="B" horiz-adv-x="633" 
d="M295 585h-139v-258h252q64 43 64 122q0 64 -44.5 100t-132.5 36zM388 289h-232v-250h208q88 0 127.5 39t39.5 93q0 53 -39 85.5t-104 32.5zM116 0v624h181q107 0 162 -46t55 -128q0 -87 -64 -136q48 -10 85 -47t37 -96q0 -74 -52 -122.5t-155 -48.5h-249z" />
    <glyph glyph-name="C" unicode="C" horiz-adv-x="687" 
d="M625 512q-95 87 -229 87q-126 0 -202 -79t-76 -208t76 -208t202 -79q134 0 229 87v-49q-83 -78 -231 -78q-79 0 -142 28.5t-100 76t-56.5 104t-19.5 118.5t19.5 118.5t56.5 104t100 76t142 28.5q144 0 231 -78v-49z" />
    <glyph glyph-name="D" unicode="D" horiz-adv-x="734" 
d="M299 585h-143v-546h143q164 0 241 72.5t77 200.5t-77 200.5t-241 72.5zM116 0v624h188q185 0 269.5 -84.5t84.5 -227.5t-84.5 -227.5t-269.5 -84.5h-188z" />
    <glyph glyph-name="E" unicode="E" horiz-adv-x="640" 
d="M156 39h388v-39h-428v624h428v-39h-388v-240h378v-39h-378v-267z" />
    <glyph glyph-name="F" unicode="F" horiz-adv-x="584" 
d="M156 327h342v-39h-342v-288h-40v624h392v-39h-352v-258z" />
    <glyph glyph-name="G" unicode="G" horiz-adv-x="724" 
d="M597 0l3 49q-77 -64 -208 -64q-79 0 -141 28.5t-99 76t-56.5 104t-19.5 118.5t19.5 118.5t56.5 104t100 76t142 28.5q144 0 231 -78v-49q-95 87 -229 87q-126 0 -202 -79t-76 -208t75.5 -208t198.5 -79q119 0 205 70v201h41v-296h-41z" />
    <glyph glyph-name="H" unicode="H" horiz-adv-x="755" 
d="M599 350v274h40v-624h-40v311h-443v-311h-40v624h40v-274h443z" />
    <glyph glyph-name="I" unicode="I" horiz-adv-x="272" 
d="M116 0v624h40v-624h-40z" />
    <glyph glyph-name="J" unicode="J" horiz-adv-x="569" 
d="M458 624v-415q0 -112 -50.5 -168t-155.5 -56q-100 0 -148 54.5t-47 139.5l37 20q0 -176 159 -176q165 0 165 185v416h40z" />
    <glyph glyph-name="K" unicode="K" horiz-adv-x="618" 
d="M116 0v624h40v-624h-40zM163 312l314 312h52l-314 -308l387 -316h-60z" />
    <glyph glyph-name="L" unicode="L" horiz-adv-x="574" 
d="M156 39h352v-39h-392v624h40v-585z" />
    <glyph glyph-name="M" unicode="M" horiz-adv-x="868" 
d="M434 256l310 378h8v-634h-40v536l-278 -340l-278 340v-536h-40v634h8z" />
    <glyph glyph-name="N" unicode="N" horiz-adv-x="802" 
d="M686 -10h-8l-522 556v-546h-40v634h8l522 -557v547h40v-634z" />
    <glyph glyph-name="O" unicode="O" horiz-adv-x="788" 
d="M394 -15q-80 0 -143 28.5t-100 76t-56 104t-19 118.5t19 118.5t56 104t100 76t143 28.5t143 -28.5t100 -76t56 -104t19 -118.5t-19 -118.5t-56 -104t-100 -76t-143 -28.5zM394 601q-126 0 -201.5 -81t-75.5 -208t75.5 -208t201.5 -81t201.5 81t75.5 208t-75.5 208
t-201.5 81z" />
    <glyph glyph-name="P" unicode="P" horiz-adv-x="616" 
d="M322 585h-166v-310h166q90 0 136.5 46t46.5 110q0 63 -46.5 108.5t-136.5 45.5zM324 236h-168v-236h-40v624h208q107 0 165 -55t58 -138q0 -84 -58 -139.5t-165 -55.5z" />
    <glyph glyph-name="Q" unicode="Q" horiz-adv-x="819" 
d="M715 -20l-104 82q-85 -77 -217 -77q-80 0 -143 28.5t-100 76t-56 104t-19 118.5t19 118.5t56 104t100 76t143 28.5t143 -28.5t100 -76t56 -104t19 -118.5q0 -131 -74 -220l116 -91zM394 23q109 0 184 64l-183 144l36 23l175 -137q65 77 65 195q0 127 -75.5 208t-201.5 81
t-201.5 -81t-75.5 -208t75.5 -208t201.5 -81z" />
    <glyph glyph-name="R" unicode="R" horiz-adv-x="642" 
d="M312 585h-156v-301h229q49 15 79.5 54.5t30.5 96.5q0 72 -47.5 111t-135.5 39zM555 0l-195 245h-204v-245h-40v624h194q109 0 167 -50t58 -139q0 -134 -130 -186l201 -249h-51z" />
    <glyph glyph-name="S" unicode="S" horiz-adv-x="617" 
d="M172 487q0 -43 29 -73.5t72 -45t93.5 -32t93.5 -35t72 -54.5t29 -89q0 -75 -61.5 -124t-181.5 -49q-115 0 -181 57.5t-85 142.5l32 29q17 -87 75.5 -139.5t158.5 -52.5q99 0 151 38t52 97q0 44 -29 74.5t-72 45.5t-93.5 33t-93.5 35.5t-72 54t-29 87.5q0 66 50.5 109
t135.5 43q76 0 126.5 -34.5t70.5 -92.5l-27 -32q-39 122 -170 122q-67 0 -106.5 -33t-39.5 -82z" />
    <glyph glyph-name="T" unicode="T" horiz-adv-x="632" 
d="M296 585h-250v39h540v-39h-250v-585h-40v585z" />
    <glyph glyph-name="U" unicode="U" horiz-adv-x="777" 
d="M623 0l2 106q-36 -52 -101.5 -86.5t-155.5 -34.5q-129 0 -193 62t-64 198v379h40v-378q0 -119 55 -170.5t163 -51.5q163 0 252 136v464h40v-624h-38z" />
    <glyph glyph-name="V" unicode="V" horiz-adv-x="724" 
d="M360 -15l-324 639h45l281 -561l281 561h45l-324 -639h-4z" />
    <glyph glyph-name="W" unicode="W" horiz-adv-x="1010" 
d="M688 -16l-183 531l-183 -531h-3l-283 640h46l235 -543l185 546h5l186 -546l236 543h45l-283 -640h-3z" />
    <glyph glyph-name="X" unicode="X" horiz-adv-x="650" 
d="M572 0l-248 315l-246 -315h-48l271 344l-221 280h52l197 -252l190 252h51l-217 -282l267 -342h-48z" />
    <glyph glyph-name="Y" unicode="Y" horiz-adv-x="636" 
d="M338 0h-40v246l-272 378h49l243 -343l243 343h49l-272 -378v-246z" />
    <glyph glyph-name="Z" unicode="Z" horiz-adv-x="658" 
d="M38 0v8l470 577h-406v39h481v-8l-472 -579h492v-37h-565z" />
    <glyph glyph-name="bracketleft" unicode="[" horiz-adv-x="223" 
d="M96 -120v864h151v-38h-111v-788h111v-38h-151z" />
    <glyph glyph-name="bracketright" unicode="]" horiz-adv-x="223" 
d="M-40 -120v38h111v788h-111v38h151v-864h-151z" />
    <glyph glyph-name="underscore" unicode="_" horiz-adv-x="426" 
d="M410 -33v-40h-426v40h426z" />
    <glyph glyph-name="grave" unicode="`" horiz-adv-x="353" 
d="M245 544h-31l-78 159h42z" />
    <glyph glyph-name="a" unicode="a" horiz-adv-x="564" 
d="M254 22q104 0 174 90v91q-83 63 -174 63q-64 0 -101.5 -34t-37.5 -86q0 -58 38.5 -91t100.5 -33zM428 0l2 71q-27 -35 -74.5 -60.5t-103.5 -25.5q-82 0 -129 45t-47 116q0 69 49.5 113t126.5 44q104 0 176 -62v75q0 72 -40 114.5t-116 42.5q-118 0 -171 -112l-20 36
q29 56 79.5 85t112.5 29q94 0 144.5 -54.5t50.5 -141.5v-315h-40z" />
    <glyph glyph-name="b" unicode="b" horiz-adv-x="612" 
d="M132 55l1 -17h125q109 0 173.5 59.5t64.5 170.5q0 101 -52.5 156.5t-142.5 55.5q-93 0 -166 -64v-336zM96 0v724h39v-268q68 62 169 62q106 0 169 -65.5t63 -184.5q0 -126 -76 -197t-197 -71h-167z" />
    <glyph glyph-name="c" unicode="c" horiz-adv-x="597" 
d="M76 251q0 111 65.5 188.5t190.5 77.5q113 0 182 -64l-7 -43q-69 69 -172 69q-104 0 -161.5 -65t-57.5 -163q0 -96 62.5 -162t167.5 -66q106 0 183 69l7 -42q-73 -65 -190 -65q-127 0 -198.5 77.5t-71.5 188.5z" />
    <glyph glyph-name="d" unicode="d" horiz-adv-x="632" 
d="M321 23q107 0 176 83v298q-71 76 -171 76q-93 0 -151.5 -65.5t-58.5 -169.5q0 -102 59 -162t146 -60zM495 0l3 61q-70 -76 -180 -76q-106 0 -174 70t-68 190q0 122 68.5 197.5t177.5 75.5q104 0 175 -67v273h39v-724h-41z" />
    <glyph glyph-name="e" unicode="e" horiz-adv-x="594" 
d="M314 479q-79 0 -129.5 -48t-64.5 -125h366q-1 85 -48 129t-124 44zM525 50q-69 -65 -184 -65q-130 0 -197.5 77.5t-67.5 188.5q0 115 62.5 190.5t175.5 75.5q111 0 166 -70t46 -177h-410q-1 -6 -1 -19q0 -99 59.5 -163.5t168.5 -64.5q108 0 174 72z" />
    <glyph glyph-name="f" unicode="f" horiz-adv-x="351" 
d="M351 465h-232v-465h-39v465h-34l2 4l32 34v30q0 98 45.5 149.5t132.5 51.5q60 0 110 -22l7 -43q-61 28 -115 28q-141 0 -141 -164v-30h232v-38z" />
    <glyph glyph-name="g" unicode="g" horiz-adv-x="599" 
d="M292 190q72 0 115.5 40t43.5 105q0 66 -43 106t-116 40q-72 0 -115 -40t-43 -106q0 -65 43.5 -105t114.5 -40zM551 -88q0 -77 -68 -125t-199 -48q-112 0 -174 42t-62 113q0 87 85 127q-33 27 -33 74q0 34 19.5 59.5t47.5 37.5q-70 50 -70 143q0 78 52.5 130t142.5 52
q45 0 82 -14h164v-37l-111 6q61 -50 61 -137q0 -77 -52.5 -129t-143.5 -52q-50 0 -93 19q-61 -24 -61 -75q0 -30 21 -48t59 -18h180q75 0 114 -31t39 -89zM283 -225q114 0 171.5 36.5t57.5 99.5q0 86 -116 86h-185q-25 0 -44 6q-81 -31 -81 -106q0 -54 50 -88t147 -34z" />
    <glyph glyph-name="h" unicode="h" 
d="M334 476q-55 0 -109 -27.5t-90 -74.5v-374h-39v724h39v-302q33 37 87 64.5t116 27.5q84 0 134.5 -50t50.5 -138v-326h-39v322q0 74 -40.5 114t-109.5 40z" />
    <glyph glyph-name="i" unicode="i" horiz-adv-x="221" 
d="M110 649q-12 0 -19.5 8.5t-7.5 19.5t7.5 19t19.5 8t20 -8t8 -19t-8 -19.5t-20 -8.5zM131 0h-41v502h41v-502z" />
    <glyph glyph-name="j" unicode="j" horiz-adv-x="237" 
d="M131 649q-12 0 -19.5 8.5t-7.5 19.5t7.5 19t19.5 8t19.5 -8t7.5 -19t-7.5 -19.5t-19.5 -8.5zM150 503v-626q0 -63 -29.5 -100t-89.5 -37q-29 0 -54 9l-16 43q33 -13 60 -13q90 0 90 101v623h39z" />
    <glyph glyph-name="k" unicode="k" horiz-adv-x="489" 
d="M135 0h-39v724h39v-724zM140 251l240 252h54l-243 -249l312 -254h-60z" />
    <glyph glyph-name="l" unicode="l" horiz-adv-x="231" 
d="M135 0h-39v724h39v-724z" />
    <glyph glyph-name="m" unicode="m" horiz-adv-x="931" 
d="M308 476q-99 0 -173 -90v-386h-39v503h39v-69q76 80 177 80q119 0 158 -98q76 98 192 98q83 0 128 -49.5t45 -138.5v-326h-39v322q0 75 -35.5 114.5t-102.5 39.5q-103 0 -178 -96q5 -27 5 -54v-326h-39v322q0 75 -35.5 114.5t-102.5 39.5z" />
    <glyph glyph-name="n" unicode="n" 
d="M327 476q-54 0 -105 -27t-87 -74v-375h-39v503h39v-81q33 38 84 65t112 27q86 0 139 -50.5t53 -137.5v-326h-39v322q0 73 -43.5 113.5t-113.5 40.5z" />
    <glyph glyph-name="o" unicode="o" horiz-adv-x="682" 
d="M341 -15q-126 0 -195.5 78t-69.5 188t69.5 188t195.5 78t195.5 -78t69.5 -188t-69.5 -188t-195.5 -78zM341 23q97 0 161 62t64 166t-63 166t-162 62t-162 -62t-63 -166t64 -166t161 -62z" />
    <glyph glyph-name="p" unicode="p" horiz-adv-x="632" 
d="M306 23q93 0 151.5 65.5t58.5 169.5q0 102 -59 162t-146 60q-107 0 -176 -83v-298q71 -76 171 -76zM310 -15q-104 0 -175 67v-297h-39v748h41l-3 -61q70 76 180 76q106 0 174 -70t68 -190q0 -122 -68.5 -197.5t-177.5 -75.5z" />
    <glyph glyph-name="q" unicode="q" horiz-adv-x="612" 
d="M516 -221h-39v268q-68 -62 -169 -62q-106 0 -169 65.5t-63 184.5q0 126 76 197t197 71h167v-724zM311 23q93 0 166 64v336l3 25l-1 17h-125q-109 0 -173.5 -59.5t-64.5 -170.5q0 -101 52.5 -156.5t142.5 -55.5z" />
    <glyph glyph-name="r" unicode="r" horiz-adv-x="316" 
d="M135 0h-39v503h39l-2 -76q49 85 128 85q19 0 34 -4l11 -43q-24 7 -41 7q-81 0 -130 -97v-375z" />
    <glyph glyph-name="s" unicode="s" horiz-adv-x="512" 
d="M160 389q0 -39 30.5 -62.5t74 -36t87 -27t74 -47.5t30.5 -85q0 -62 -45.5 -104t-132.5 -42q-79 0 -138 36t-84 93l23 30q26 -56 77.5 -89.5t121.5 -33.5q68 0 103.5 31.5t35.5 77.5q0 43 -30.5 69t-74 39t-87 27t-74 44.5t-30.5 79.5q0 52 37.5 88.5t106.5 36.5
q56 0 96 -24.5t59 -64.5l-26 -31q-34 84 -129 84q-50 0 -77.5 -26t-27.5 -63z" />
    <glyph glyph-name="t" unicode="t" horiz-adv-x="304" 
d="M278 465h-151v-465h-40v465h-31v4l31 31v61l33 56h7v-114h151v-38z" />
    <glyph glyph-name="u" unicode="u" 
d="M484 0v81q-33 -38 -84 -65t-112 -27q-86 0 -139 50.5t-53 137.5v326h39v-322q0 -73 43.5 -113.5t113.5 -40.5q54 0 105 27t87 74v375h39v-503h-39z" />
    <glyph glyph-name="v" unicode="v" horiz-adv-x="561" 
d="M285 -15h-8l-251 518h45l210 -444l209 444h45z" />
    <glyph glyph-name="w" unicode="w" horiz-adv-x="819" 
d="M534 -15l-124 414l-125 -414h-8l-251 518h44l204 -432l130 434h9l131 -435l205 433h44l-251 -518h-8z" />
    <glyph glyph-name="x" unicode="x" horiz-adv-x="532" 
d="M447 0l-181 244l-182 -244h-49l207 276l-169 227h48l145 -194l145 194h48l-169 -226l207 -277h-50z" />
    <glyph glyph-name="y" unicode="y" horiz-adv-x="565" 
d="M302 -245h-40v257l-226 491h45l201 -452l202 452h45l-227 -495v-253z" />
    <glyph glyph-name="z" unicode="z" horiz-adv-x="554" 
d="M46 0v8l367 457h-315v38h386v-8l-367 -457h391v-38h-462z" />
    <glyph glyph-name="braceleft" unicode="{" horiz-adv-x="239" 
d="M36 309v6q55 33 70 73t15 130q0 112 30.5 170.5t118.5 55.5l13 -36q-58 4 -89.5 -26t-31.5 -120q0 -62 -1 -90t-7.5 -64.5t-21 -57.5t-39.5 -38q25 -16 39.5 -37t21 -58t7.5 -65t1 -90q0 -47 9 -78t27 -45.5t37.5 -19.5t47.5 -3l-13 -36q-88 -3 -118.5 55.5t-30.5 170.5
q0 90 -15 130t-70 73z" />
    <glyph glyph-name="bar" unicode="|" horiz-adv-x="232" 
d="M136 -120h-40v864h40v-864z" />
    <glyph glyph-name="braceright" unicode="}" horiz-adv-x="239" 
d="M179 315v-6q-55 -33 -70 -73t-15 -130q0 -112 -30.5 -170.5t-118.5 -55.5l-13 36q58 -4 89.5 26t31.5 120q0 62 1 90t7.5 64.5t21 57.5t39.5 38q-25 16 -39.5 37t-21 58t-7.5 65t-1 90q0 47 -9 78t-27 45.5t-37.5 19.5t-47.5 3l13 36q88 3 118.5 -55.5t30.5 -170.5
q0 -90 15 -130t70 -73z" />
    <glyph glyph-name="exclamdown" unicode="&#xa1;" horiz-adv-x="228" 
d="M89 608q0 10 6.5 18t19.5 8t20 -8t7 -18q0 -26 -27 -26q-26 0 -26 26zM92 0l6 505h32l6 -505h-44z" />
    <glyph glyph-name="cent" unicode="&#xa2;" 
d="M563 50q-70 -61 -194 -65v-105h-40v106q-120 7 -186.5 83.5t-66.5 181.5q0 107 65 184t188 82v107h40v-108q113 -6 176 -63l-8 -43q-69 69 -190 69q-109 0 -170 -66t-61 -162q0 -97 64 -162.5t175 -65.5q126 0 201 69z" />
    <glyph glyph-name="sterling" unicode="&#xa3;" horiz-adv-x="604" 
d="M538 0h-452v38h85q39 50 51.5 95.5t6.5 74t-24 68.5h-102v38h84q-32 70 -32 127q0 88 49.5 142.5t138.5 54.5q79 0 127 -47t55 -111l-35 -19q-6 59 -44.5 98t-99.5 39q-75 0 -112 -43.5t-37 -114.5q0 -46 36 -126h223l-10 -38h-197q15 -37 20 -68.5t-5.5 -76.5t-42.5 -93
h317v-38z" />
    <glyph glyph-name="currency" unicode="&#xa4;" horiz-adv-x="658" 
d="M580 -26l-73 73q-70 -62 -178 -62q-107 0 -178 61l-72 -72l-27 26l72 74q-60 74 -60 177q0 102 59 175l-71 72l27 27l71 -71q69 63 179 63q111 0 180 -63l71 71l27 -27l-71 -72q58 -73 58 -175q0 -104 -60 -176l73 -75zM329 23q97 0 161 62t64 166t-63 166t-162 62
t-162 -62t-63 -166t64 -166t161 -62z" />
    <glyph glyph-name="yen" unicode="&#xa5;" horiz-adv-x="636" 
d="M538 234h-200v-234h-40v234h-200v36h177l-249 356h49l243 -353l243 353h49l-249 -356h177v-36z" />
    <glyph glyph-name="section" unicode="&#xa7;" horiz-adv-x="512" 
d="M106 274q0 -21 5 -38t16.5 -30.5t21.5 -23.5t30 -20t32 -15.5t37 -15.5t36 -15q122 48 122 149q0 21 -5 38t-16.5 30.5t-21.5 23.5t-30 20t-32 15.5t-37 15.5t-36 15q-122 -48 -122 -149zM256 -178q-109 0 -156 93l27 34q35 -90 129 -90q56 0 86.5 29.5t30.5 70.5
q0 46 -31.5 75.5t-77 46.5t-90.5 36.5t-76.5 57.5t-31.5 97q0 114 119 171q-86 48 -86 137q0 53 40.5 95t116.5 42q109 0 156 -93l-27 -34q-35 90 -129 90q-56 0 -86 -29.5t-30 -70.5q0 -46 31.5 -75.5t76.5 -47t90 -36.5t76.5 -57.5t31.5 -96.5q0 -114 -119 -171
q86 -48 86 -137q0 -53 -40.5 -95t-116.5 -42z" />
    <glyph glyph-name="dieresis" unicode="&#xa8;" horiz-adv-x="362" 
d="M250 589q-12 0 -20.5 8.5t-8.5 20.5t8 20.5t21 8.5t21 -8.5t8 -20.5t-8 -20.5t-21 -8.5zM112 589q-12 0 -20.5 8.5t-8.5 20.5t8 20.5t21 8.5t21 -8.5t8 -20.5t-8.5 -20.5t-20.5 -8.5z" />
    <glyph glyph-name="copyright" unicode="&#xa9;" horiz-adv-x="678" 
d="M339 -14q-126 0 -194.5 78t-68.5 188t68.5 188t194.5 78t194.5 -78t68.5 -188t-68.5 -188t-194.5 -78zM339 9q104 0 171.5 66.5t67.5 176.5q0 111 -67 177t-172 66t-172 -66t-67 -177q0 -110 67.5 -176.5t171.5 -66.5zM461 335q-48 42 -110 42q-58 0 -93 -34.5t-35 -92.5
t35 -93t93 -35q63 0 110 44l5 -40q-42 -40 -118 -40q-79 0 -122 49t-43 115q0 67 43 115.5t122 48.5q73 0 118 -39z" />
    <glyph glyph-name="guillemotleft" unicode="&#xab;" horiz-adv-x="420" 
d="M335 73l-142 193v9l142 193l49 -4l-147 -193l147 -194zM179 73l-143 193v9l142 193l49 -4l-147 -193l147 -194z" />
    <glyph glyph-name="registered" unicode="&#xae;" horiz-adv-x="678" 
d="M339 -15q-126 0 -194.5 78t-68.5 188t68.5 188t194.5 78t194.5 -78t68.5 -188t-68.5 -188t-194.5 -78zM339 8q104 0 171.5 66.5t67.5 176.5q0 111 -67 177t-172 66t-172 -66t-67 -177q0 -110 67.5 -176.5t171.5 -66.5zM343 373h-68v-132h102q47 15 47 66q0 66 -81 66z
M454 95l-90 111h-89v-111h-38v312h106q58 0 88.5 -27t30.5 -73q0 -63 -58 -93l97 -119h-47z" />
    <glyph glyph-name="degree" unicode="&#xb0;" horiz-adv-x="351" 
d="M176 374q-66 0 -100.5 39t-34.5 95t34.5 94.5t100.5 38.5q65 0 99.5 -39t34.5 -94q0 -56 -34.5 -95t-99.5 -39zM176 409q44 0 70.5 27t26.5 72t-26.5 71.5t-70.5 26.5t-71 -26.5t-27 -71.5q0 -46 27 -72.5t71 -26.5z" />
    <glyph glyph-name="twosuperior" unicode="&#xb2;" horiz-adv-x="395" 
d="M337 244h-300v8q61 43 95.5 69t72 60.5t54 66.5t16.5 66q0 42 -24 67t-65 25q-49 0 -74 -34.5t-11 -99.5l-36 8q-14 75 21.5 118t99.5 43q58 0 92.5 -35t34.5 -91q0 -61 -46.5 -116t-138.5 -118h209v-37z" />
    <glyph glyph-name="threesuperior" unicode="&#xb3;" horiz-adv-x="375" 
d="M179 234q-54 0 -90.5 28t-44.5 67l31 19q8 -36 35 -57.5t70 -21.5q44 0 73 23.5t29 66.5q0 51 -40 78t-129 12v6l128 140h-176v36h250v-6l-132 -144q67 4 102.5 -31t35.5 -92q0 -55 -39.5 -89.5t-102.5 -34.5z" />
    <glyph glyph-name="acute" unicode="&#xb4;" horiz-adv-x="353" 
d="M157 544h-31l67 159h42z" />
    <glyph glyph-name="periodcentered" unicode="&#xb7;" horiz-adv-x="161" 
d="M65 273q-13 0 -19.5 8t-6.5 18q0 26 26 26q27 0 27 -26q0 -10 -7 -18t-20 -8z" />
    <glyph glyph-name="cedilla" unicode="&#xb8;" horiz-adv-x="716" 
d="M356 -99l55 99h29l-42 -99h-42z" />
    <glyph glyph-name="onesuperior" unicode="&#xb9;" horiz-adv-x="246" 
d="M180 244h-39v332l-94 -73v44l106 85h27v-388z" />
    <glyph glyph-name="guillemotright" unicode="&#xbb;" horiz-adv-x="420" 
d="M69 73l-49 4l147 194l-147 193l49 4l142 -193v-9zM225 73l-48 4l147 194l-147 193l49 4l142 -193v-9z" />
    <glyph glyph-name="onequarter" unicode="&#xbc;" horiz-adv-x="817" 
d="M195 244h-39v332l-94 -73v44l106 85h27v-388zM276 0h-41l231 624h41zM765 77h-78v-77h-37v77h-221l21 32l193 279h42l-192 -279h157v130h37v-130h78v-32z" />
    <glyph glyph-name="onehalf" unicode="&#xbd;" horiz-adv-x="847" 
d="M194 244h-39v332l-94 -73v44l106 85h27v-388zM272 0h-41l231 624h41zM796 0h-300v8q61 43 95.5 69t72 60.5t54 66.5t16.5 66q0 42 -24 67t-65 25q-49 0 -74 -34.5t-11 -99.5l-36 8q-14 75 21.5 118t99.5 43q58 0 92.5 -35t34.5 -91q0 -61 -46.5 -116t-138.5 -118h209v-37
z" />
    <glyph glyph-name="threequarters" unicode="&#xbe;" horiz-adv-x="903" 
d="M355 0h-41l231 624h41zM175 234q-54 0 -90.5 28t-44.5 67l31 19q8 -36 35 -57.5t70 -21.5q44 0 73 23.5t29 66.5q0 51 -40 78t-129 12v6l128 140h-176v36h250v-6l-132 -144q67 4 102.5 -31t35.5 -92q0 -55 -39.5 -89.5t-102.5 -34.5zM851 77h-78v-77h-37v77h-221l21 32
l193 279h42l-192 -279h157v130h37v-130h78v-32z" />
    <glyph glyph-name="questiondown" unicode="&#xbf;" horiz-adv-x="444" 
d="M236 634q13 0 19.5 -8t6.5 -18q0 -26 -26 -26q-27 0 -27 26q0 10 7 18t20 8zM254 505l1 -141q-90 -34 -135 -76t-45 -116q0 -69 39.5 -109.5t106.5 -40.5q74 0 118 48.5t28 139.5l38 -9q15 -101 -40 -159t-146 -58q-83 0 -133 51.5t-50 133.5t49 131.5t133 81.5l2 123h34
z" />
    <glyph glyph-name="Agrave" unicode="&#xc0;" horiz-adv-x="692" 
d="M328 658l-49 99h42l40 -99h-33zM516 195l-170 363l-171 -363h341zM608 0l-73 155h-379l-73 -155h-47l307 639h6l307 -639h-48z" />
    <glyph glyph-name="Acircumflex" unicode="&#xc2;" horiz-adv-x="692" 
d="M462 660l-118 42l-118 -42l-2 31l120 50l120 -50zM516 195l-170 363l-171 -363h341zM608 0l-73 155h-379l-73 -155h-47l307 639h6l307 -639h-48z" />
    <glyph glyph-name="Adieresis" unicode="&#xc4;" horiz-adv-x="692" 
d="M420 672q-12 0 -20.5 8t-8.5 20t8.5 21t20.5 9q13 0 21 -9t8 -21t-8 -20t-21 -8zM262 672q-12 0 -20.5 8t-8.5 20t8.5 21t20.5 9t20.5 -9t8.5 -21t-8.5 -20t-20.5 -8zM516 195l-170 363l-171 -363h341zM608 0l-73 155h-379l-73 -155h-47l307 639h6l307 -639h-48z" />
    <glyph glyph-name="AE" unicode="&#xc6;" horiz-adv-x="882" 
d="M517 196l-171 360l-171 -360h342zM610 0l-75 157h-378l-75 -157h-46l301 624h439v-39h-402l116 -240h276v-39h-258l129 -267h139v-39h-166z" />
    <glyph glyph-name="Ccedilla" unicode="&#xc7;" horiz-adv-x="687" 
d="M625 63q-80 -75 -221 -78l-36 -84h-42l47 85q-74 4 -132.5 33.5t-93.5 76t-53 101.5t-18 115q0 62 19.5 118.5t56.5 104t100 76t142 28.5q144 0 231 -78v-49q-95 87 -229 87q-126 0 -202 -79t-76 -208t76 -208t202 -79q134 0 229 87v-49z" />
    <glyph glyph-name="Egrave" unicode="&#xc8;" horiz-adv-x="640" 
d="M321 658l-49 99h42l40 -99h-33zM156 39h388v-39h-428v624h428v-39h-388v-240h378v-39h-378v-267z" />
    <glyph glyph-name="Eacute" unicode="&#xc9;" horiz-adv-x="640" 
d="M400 757l-49 -99h-33l40 99h42zM156 39h388v-39h-428v624h428v-39h-388v-240h378v-39h-378v-267z" />
    <glyph glyph-name="Ecircumflex" unicode="&#xca;" horiz-adv-x="640" 
d="M450 660l-118 42l-118 -42l-2 31l120 50l120 -50zM156 39h388v-39h-428v624h428v-39h-388v-240h378v-39h-378v-267z" />
    <glyph glyph-name="Edieresis" unicode="&#xcb;" horiz-adv-x="640" 
d="M406 672q-12 0 -20.5 8t-8.5 20t8.5 21t20.5 9q13 0 21 -9t8 -21t-8 -20t-21 -8zM248 672q-12 0 -20.5 8t-8.5 20t8.5 21t20.5 9t20.5 -9t8.5 -21t-8.5 -20t-20.5 -8zM156 39h388v-39h-428v624h428v-39h-388v-240h378v-39h-378v-267z" />
    <glyph glyph-name="Icircumflex" unicode="&#xce;" horiz-adv-x="272" 
d="M252 660l-118 42l-118 -42l-2 31l120 50l120 -50zM116 0v624h40v-624h-40z" />
    <glyph glyph-name="Idieresis" unicode="&#xcf;" horiz-adv-x="272" 
d="M210 672q-12 0 -20.5 8t-8.5 20t8.5 21t20.5 9q13 0 21 -9t8 -21t-8 -20t-21 -8zM52 672q-12 0 -20.5 8t-8.5 20t8.5 21t20.5 9t20.5 -9t8.5 -21t-8.5 -20t-20.5 -8zM116 0v624h40v-624h-40z" />
    <glyph glyph-name="Ocircumflex" unicode="&#xd4;" horiz-adv-x="788" 
d="M503 660l-118 42l-118 -42l-2 31l120 50l120 -50zM394 -15q-80 0 -143 28.5t-100 76t-56 104t-19 118.5t19 118.5t56 104t100 76t143 28.5t143 -28.5t100 -76t56 -104t19 -118.5t-19 -118.5t-56 -104t-100 -76t-143 -28.5zM394 601q-126 0 -201.5 -81t-75.5 -208
t75.5 -208t201.5 -81t201.5 81t75.5 208t-75.5 208t-201.5 81z" />
    <glyph glyph-name="Odieresis" unicode="&#xd6;" horiz-adv-x="788" 
d="M466 672q-12 0 -20.5 8t-8.5 20t8.5 21t20.5 9q13 0 21 -9t8 -21t-8 -20t-21 -8zM308 672q-12 0 -20.5 8t-8.5 20t8.5 21t20.5 9t20.5 -9t8.5 -21t-8.5 -20t-20.5 -8zM394 -15q-80 0 -143 28.5t-100 76t-56 104t-19 118.5t19 118.5t56 104t100 76t143 28.5t143 -28.5
t100 -76t56 -104t19 -118.5t-19 -118.5t-56 -104t-100 -76t-143 -28.5zM394 601q-126 0 -201.5 -81t-75.5 -208t75.5 -208t201.5 -81t201.5 81t75.5 208t-75.5 208t-201.5 81z" />
    <glyph glyph-name="Ugrave" unicode="&#xd9;" horiz-adv-x="777" 
d="M369 658l-49 99h42l40 -99h-33zM623 0l2 106q-36 -52 -101.5 -86.5t-155.5 -34.5q-129 0 -193 62t-64 198v379h40v-378q0 -119 55 -170.5t163 -51.5q163 0 252 136v464h40v-624h-38z" />
    <glyph glyph-name="Ucircumflex" unicode="&#xdb;" horiz-adv-x="777" 
d="M499 660l-118 42l-118 -42l-2 31l120 50l120 -50zM623 0l2 106q-36 -52 -101.5 -86.5t-155.5 -34.5q-129 0 -193 62t-64 198v379h40v-378q0 -119 55 -170.5t163 -51.5q163 0 252 136v464h40v-624h-38z" />
    <glyph glyph-name="Udieresis" unicode="&#xdc;" horiz-adv-x="777" 
d="M459 672q-13 0 -21 8t-8 20t8.5 21t20.5 9q13 0 21 -9t8 -21t-8 -20t-21 -8zM301 672q-13 0 -21 8t-8 20t8.5 21t20.5 9t20.5 -9t8.5 -21t-8 -20t-21 -8zM623 0l2 106q-36 -52 -101.5 -86.5t-155.5 -34.5q-129 0 -193 62t-64 198v379h40v-378q0 -119 55 -170.5t163 -51.5
q163 0 252 136v464h40v-624h-38z" />
    <glyph glyph-name="germandbls" unicode="&#xdf;" horiz-adv-x="611" 
d="M376 -15q-65 0 -109 36t-51 86l30 24q11 -50 45.5 -79t86.5 -29q59 0 98 35.5t39 101.5q0 79 -56 120.5t-174 35.5v10l158 211q-31 37 -64 50.5t-79 13.5q-79 0 -122.5 -52.5t-43.5 -160.5v-388h-38v389q0 71 18.5 122.5t50 78t65 38t72.5 11.5q126 0 182 -96v-10
l-138 -185q97 -4 153 -52t56 -132q0 -82 -49 -130.5t-130 -48.5z" />
    <glyph glyph-name="agrave" unicode="&#xe0;" horiz-adv-x="564" 
d="M288 544h-31l-78 159h42zM254 22q104 0 174 90v91q-83 63 -174 63q-64 0 -101.5 -34t-37.5 -86q0 -58 38.5 -91t100.5 -33zM428 0l2 71q-27 -35 -74.5 -60.5t-103.5 -25.5q-82 0 -129 45t-47 116q0 69 49.5 113t126.5 44q104 0 176 -62v75q0 72 -40 114.5t-116 42.5
q-118 0 -171 -112l-20 36q29 56 79.5 85t112.5 29q94 0 144.5 -54.5t50.5 -141.5v-315h-40z" />
    <glyph glyph-name="acircumflex" unicode="&#xe2;" horiz-adv-x="564" 
d="M337 544l-73 128l-74 -128l-35 2l89 157h39l89 -157zM254 22q104 0 174 90v91q-83 63 -174 63q-64 0 -101.5 -34t-37.5 -86q0 -58 38.5 -91t100.5 -33zM428 0l2 71q-27 -35 -74.5 -60.5t-103.5 -25.5q-82 0 -129 45t-47 116q0 69 49.5 113t126.5 44q104 0 176 -62v75
q0 72 -40 114.5t-116 42.5q-118 0 -171 -112l-20 36q29 56 79.5 85t112.5 29q94 0 144.5 -54.5t50.5 -141.5v-315h-40z" />
    <glyph glyph-name="adieresis" unicode="&#xe4;" horiz-adv-x="564" 
d="M330 589q-12 0 -20.5 8.5t-8.5 20.5t8 20.5t21 8.5t21 -8.5t8 -20.5t-8 -20.5t-21 -8.5zM192 589q-12 0 -20.5 8.5t-8.5 20.5t8 20.5t21 8.5t21 -8.5t8 -20.5t-8.5 -20.5t-20.5 -8.5zM254 22q104 0 174 90v91q-83 63 -174 63q-64 0 -101.5 -34t-37.5 -86q0 -58 38.5 -91
t100.5 -33zM428 0l2 71q-27 -35 -74.5 -60.5t-103.5 -25.5q-82 0 -129 45t-47 116q0 69 49.5 113t126.5 44q104 0 176 -62v75q0 72 -40 114.5t-116 42.5q-118 0 -171 -112l-20 36q29 56 79.5 85t112.5 29q94 0 144.5 -54.5t50.5 -141.5v-315h-40z" />
    <glyph glyph-name="ae" unicode="&#xe6;" horiz-adv-x="946" 
d="M666 479q-79 0 -129.5 -48t-64.5 -125h366q-1 85 -48 129t-124 44zM693 -15q-157 0 -227 117q-32 -46 -87.5 -81.5t-123.5 -35.5q-84 0 -131.5 45t-47.5 116q0 69 49.5 113t125.5 44q105 0 177 -62v75q0 72 -38.5 114.5t-114.5 42.5q-115 0 -168 -112l-20 36
q59 114 190 114q72 0 118 -32t63 -88q28 58 81.5 92t126.5 34q111 0 166 -70t46 -177h-410v-43q7 -90 66 -147t161 -57q108 0 174 72l8 -45q-69 -65 -184 -65zM257 22q111 0 193 113q-13 31 -18 65q-87 66 -178 66q-64 0 -101.5 -34t-37.5 -87q0 -57 39 -90t103 -33z" />
    <glyph glyph-name="ccedilla" unicode="&#xe7;" horiz-adv-x="596" 
d="M346 -15h-1l-36 -84h-42l47 85q-112 11 -175 86.5t-63 178.5q0 111 65.5 188.5t190.5 77.5q113 0 182 -64l-7 -43q-69 69 -172 69q-104 0 -161.5 -65t-57.5 -163q0 -96 62.5 -162t167.5 -66q106 0 183 69l7 -42q-73 -65 -190 -65z" />
    <glyph glyph-name="egrave" unicode="&#xe8;" horiz-adv-x="594" 
d="M324 544h-31l-78 159h42zM314 479q-79 0 -129.5 -48t-64.5 -125h366q-1 85 -48 129t-124 44zM525 50q-69 -65 -184 -65q-130 0 -197.5 77.5t-67.5 188.5q0 115 62.5 190.5t175.5 75.5q111 0 166 -70t46 -177h-410q-1 -6 -1 -19q0 -99 59.5 -163.5t168.5 -64.5
q108 0 174 72z" />
    <glyph glyph-name="eacute" unicode="&#xe9;" horiz-adv-x="594" 
d="M328 544h-31l67 159h42zM314 479q-79 0 -129.5 -48t-64.5 -125h366q-1 85 -48 129t-124 44zM525 50q-69 -65 -184 -65q-130 0 -197.5 77.5t-67.5 188.5q0 115 62.5 190.5t175.5 75.5q111 0 166 -70t46 -177h-410q-1 -6 -1 -19q0 -99 59.5 -163.5t168.5 -64.5
q108 0 174 72z" />
    <glyph glyph-name="ecircumflex" unicode="&#xea;" horiz-adv-x="594" 
d="M375 544l-73 128l-74 -128l-35 2l89 157h39l89 -157zM314 479q-79 0 -129.5 -48t-64.5 -125h366q-1 85 -48 129t-124 44zM525 50q-69 -65 -184 -65q-130 0 -197.5 77.5t-67.5 188.5q0 115 62.5 190.5t175.5 75.5q111 0 166 -70t46 -177h-410q-1 -6 -1 -19
q0 -99 59.5 -163.5t168.5 -64.5q108 0 174 72z" />
    <glyph glyph-name="edieresis" unicode="&#xeb;" horiz-adv-x="594" 
d="M374 589q-12 0 -20.5 8.5t-8.5 20.5t8 20.5t21 8.5t21 -8.5t8 -20.5t-8 -20.5t-21 -8.5zM236 589q-12 0 -20.5 8.5t-8.5 20.5t8 20.5t21 8.5t21 -8.5t8 -20.5t-8.5 -20.5t-20.5 -8.5zM314 479q-79 0 -129.5 -48t-64.5 -125h366q-1 85 -48 129t-124 44zM525 50
q-69 -65 -184 -65q-130 0 -197.5 77.5t-67.5 188.5q0 115 62.5 190.5t175.5 75.5q111 0 166 -70t46 -177h-410q-1 -6 -1 -19q0 -99 59.5 -163.5t168.5 -64.5q108 0 174 72z" />
    <glyph glyph-name="icircumflex" unicode="&#xee;" horiz-adv-x="232" 
d="M184 544l-73 128l-74 -128l-35 2l89 157h39l89 -157zM136 0h-40v503h40v-503z" />
    <glyph glyph-name="idieresis" unicode="&#xef;" horiz-adv-x="232" 
d="M180 589q-12 0 -20.5 8.5t-8.5 20.5t8 20.5t21 8.5t21 -8.5t8 -20.5t-8 -20.5t-21 -8.5zM42 589q-12 0 -20.5 8.5t-8.5 20.5t8 20.5t21 8.5t21 -8.5t8 -20.5t-8.5 -20.5t-20.5 -8.5zM136 0h-40v503h40v-503z" />
    <glyph glyph-name="ocircumflex" unicode="&#xf4;" horiz-adv-x="682" 
d="M408 544l-73 128l-74 -128l-35 2l89 157h39l89 -157zM341 -15q-126 0 -195.5 78t-69.5 188t69.5 188t195.5 78t195.5 -78t69.5 -188t-69.5 -188t-195.5 -78zM341 23q97 0 161 62t64 166t-63 166t-162 62t-162 -62t-63 -166t64 -166t161 -62z" />
    <glyph glyph-name="odieresis" unicode="&#xf6;" horiz-adv-x="682" 
d="M403 589q-12 0 -20.5 8.5t-8.5 20.5t8 20.5t21 8.5t21 -8.5t8 -20.5t-8 -20.5t-21 -8.5zM265 589q-12 0 -20.5 8.5t-8.5 20.5t8 20.5t21 8.5t21 -8.5t8 -20.5t-8.5 -20.5t-20.5 -8.5zM341 -15q-126 0 -195.5 78t-69.5 188t69.5 188t195.5 78t195.5 -78t69.5 -188
t-69.5 -188t-195.5 -78zM341 23q97 0 161 62t64 166t-63 166t-162 62t-162 -62t-63 -166t64 -166t161 -62z" />
    <glyph glyph-name="divide" unicode="&#xf7;" horiz-adv-x="521" 
d="M268 459q-12 0 -19.5 8.5t-7.5 18.5q0 11 7.5 18.5t19.5 7.5t19.5 -7.5t7.5 -18.5q0 -10 -7.5 -18.5t-19.5 -8.5zM465 349v-41h-409v41h409zM268 144q-12 0 -19.5 8.5t-7.5 18.5t7.5 18t19.5 8t19.5 -8t7.5 -18t-7.5 -18.5t-19.5 -8.5z" />
    <glyph glyph-name="ugrave" unicode="&#xf9;" 
d="M325 544h-31l-78 159h42zM484 0v81q-33 -38 -84 -65t-112 -27q-85 0 -138.5 50.5t-53.5 137.5v326h39v-322q0 -73 43.5 -113.5t113.5 -40.5q54 0 105 27t87 74v375h39v-503h-39z" />
    <glyph glyph-name="ucircumflex" unicode="&#xfb;" 
d="M378 544l-74 128l-74 -128l-34 2l89 157h38l89 -157zM484 0v81q-33 -38 -84 -65t-112 -27q-85 0 -138.5 50.5t-53.5 137.5v326h39v-322q0 -73 43.5 -113.5t113.5 -40.5q54 0 105 27t87 74v375h39v-503h-39z" />
    <glyph glyph-name="udieresis" unicode="&#xfc;" 
d="M369 589q-13 0 -21 8.5t-8 20.5t8 20.5t21 8.5t21 -8.5t8 -20.5t-8.5 -20.5t-20.5 -8.5zM231 589q-13 0 -21 8.5t-8 20.5t8 20.5t21 8.5t21 -8.5t8 -20.5t-8.5 -20.5t-20.5 -8.5zM484 0v81q-33 -38 -84 -65t-112 -27q-85 0 -138.5 50.5t-53.5 137.5v326h39v-322
q0 -73 43.5 -113.5t113.5 -40.5q54 0 105 27t87 74v375h39v-503h-39z" />
    <glyph glyph-name="dotlessi" unicode="&#x131;" horiz-adv-x="232" 
d="M136 0h-40v503h40v-503z" />
    <glyph glyph-name="OE" unicode="&#x152;" horiz-adv-x="1053" 
d="M394 601q-126 0 -201.5 -81t-75.5 -208t75.5 -208t201.5 -81t201.5 81t75.5 208t-75.5 208t-201.5 81zM957 0h-456q-48 -15 -107 -15q-80 0 -143 28.5t-100 76t-56 104t-19 118.5t19 118.5t56 104t100 76t143 28.5q59 0 107 -15h456v-39h-375q115 -81 129 -240h236v-39
h-235q-2 -80 -34.5 -151.5t-95.5 -115.5h375v-39z" />
    <glyph glyph-name="oe" unicode="&#x153;" horiz-adv-x="1084" 
d="M804 479q-79 0 -129.5 -48t-63.5 -125h366q-1 85 -48.5 129t-124.5 44zM341 23q97 0 161 62t64 166t-63 166t-162 62t-162 -62t-63 -166t64 -166t161 -62zM1015 50q-69 -65 -184 -65q-95 0 -157.5 44.5t-88.5 118.5q-28 -73 -91 -118t-153 -45q-126 0 -195.5 78
t-69.5 188t69.5 188t195.5 78q90 0 152.5 -44.5t90.5 -115.5q25 73 82 116.5t138 43.5q111 0 166 -70t46 -177h-409q-1 -6 -1 -19q0 -99 59 -163.5t168 -64.5q108 0 174 72z" />
    <glyph glyph-name="florin" unicode="&#x192;" horiz-adv-x="390" 
d="M335 278h-216v-278h-39v278h-34v3l34 35v124q0 98 43.5 149.5t123.5 50.5q47 -1 83 -24.5t52 -62.5l-24 -30q-14 35 -42.5 57t-68.5 22q-128 0 -128 -163v-123h216v-38z" />
    <glyph glyph-name="circumflex" unicode="&#x2c6;" horiz-adv-x="349" 
d="M248 544l-73 128l-74 -128l-35 2l89 157h39l89 -157z" />
    <glyph glyph-name="endash" unicode="&#x2013;" horiz-adv-x="546" 
d="M486 348v-40h-426v40h426z" />
    <glyph glyph-name="emdash" unicode="&#x2014;" horiz-adv-x="857" 
d="M797 348v-40h-737v40h737z" />
    <glyph glyph-name="quoteleft" unicode="&#x2018;" horiz-adv-x="161" 
d="M78 475h-42l66 179l23 -12z" />
    <glyph glyph-name="quoteright" unicode="&#x2019;" horiz-adv-x="161" 
d="M83 624h42l-66 -179l-23 12z" />
    <glyph glyph-name="quotesinglbase" unicode="&#x201a;" horiz-adv-x="161" 
d="M75 76h42l-66 -179l-23 12z" />
    <glyph glyph-name="quotedblleft" unicode="&#x201c;" horiz-adv-x="313" 
d="M206 445h-42l66 179l23 -12zM54 445h-42l66 179l23 -12z" />
    <glyph glyph-name="quotedblright" unicode="&#x201d;" horiz-adv-x="313" 
d="M227 624h42l-66 -179l-23 12zM75 624h42l-66 -179l-23 12z" />
    <glyph glyph-name="quotedblbase" unicode="&#x201e;" horiz-adv-x="313" 
d="M227 76h42l-66 -179l-23 12zM75 76h42l-66 -179l-23 12z" />
    <glyph glyph-name="bullet" unicode="&#x2022;" horiz-adv-x="364" 
d="M182 184q-52 0 -89 37t-37 89t37 89t89 37t89 -37t37 -89t-37 -89t-89 -37z" />
    <glyph glyph-name="ellipsis" unicode="&#x2026;" horiz-adv-x="479" 
d="M397 -10q-12 0 -19 8t-7 18t7 18t19 8q13 0 20 -7.5t7 -18.5q0 -10 -7 -18t-20 -8zM239 -10q-13 0 -20 8t-7 18q0 11 7 18.5t20 7.5q26 0 26 -26q0 -10 -6.5 -18t-19.5 -8zM80 -10q-13 0 -19.5 8t-6.5 18q0 26 26 26q13 0 20 -7.5t7 -18.5q0 -10 -7 -18t-20 -8z" />
    <glyph glyph-name="guilsinglleft" unicode="&#x2039;" horiz-adv-x="264" 
d="M179 73l-143 193v9l142 193l50 -4l-147 -193l147 -194z" />
    <glyph glyph-name="guilsinglright" unicode="&#x203a;" horiz-adv-x="264" 
d="M212 266l-142 -193l-50 4l147 194l-147 193l49 4l143 -193v-9z" />
    <glyph glyph-name="fraction" unicode="&#x2044;" horiz-adv-x="304" 
d="M57 0h-41l231 624h41z" />
    <glyph glyph-name="zerosuperior" unicode="&#x2070;" horiz-adv-x="478" 
d="M239 234q-88 0 -137 59.5t-49 143.5t49 143.5t137 59.5t137 -59.5t49 -143.5t-49 -143.5t-137 -59.5zM239 603q-64 0 -105 -45.5t-41 -120.5t41 -120.5t105 -45.5t105 45.5t41 120.5t-41 120.5t-105 45.5z" />
    <glyph glyph-name="foursuperior" unicode="&#x2074;" horiz-adv-x="403" 
d="M360 321h-78v-77h-37v77h-221l21 32l193 279h42l-192 -279h157v130h37v-130h78v-32z" />
    <glyph glyph-name="fivesuperior" unicode="&#x2075;" horiz-adv-x="377" 
d="M182 234q-60 0 -96.5 31t-42.5 75l32 17q5 -39 32.5 -63.5t73.5 -24.5q50 0 77 26t27 71q0 52 -41 79t-133 2v2q-4 -1 -8 -2.5t-9 -3t-7 -2.5v190h210v-34h-174v-114q87 23 144 -7.5t57 -108.5q0 -58 -37.5 -95.5t-104.5 -37.5z" />
    <glyph glyph-name="sixsuperior" unicode="&#x2076;" horiz-adv-x="408" 
d="M353 359q0 -54 -38 -89.5t-102 -35.5q-70 0 -115 47.5t-45 151.5q0 91 40 149t116 58q94 0 126 -75l-25 -26q-32 65 -101 65q-58 0 -88.5 -46t-30.5 -125v-3q51 47 126 47q61 0 99 -31.5t38 -86.5zM213 270q47 0 74 23.5t27 62.5q0 40 -27.5 63t-70.5 23q-73 0 -124 -49
q15 -123 121 -123z" />
    <glyph glyph-name="sevensuperior" unicode="&#x2077;" horiz-adv-x="337" 
d="M105 244h-42l226 353h-245v35h306v-6z" />
    <glyph glyph-name="eightsuperior" unicode="&#x2078;" horiz-adv-x="397" 
d="M199 234q-67 0 -106.5 34t-39.5 86q0 41 23 69.5t61 40.5q-44 28 -44 81q0 38 27.5 66.5t78.5 28.5q52 0 80 -28.5t28 -66.5q0 -27 -13.5 -49t-33.5 -33q38 -13 61 -41t23 -68q0 -52 -39 -86t-106 -34zM129 543q0 -30 18 -49.5t52 -19.5t53 20t19 49q0 28 -18.5 46.5
t-53.5 18.5q-34 0 -52 -18t-18 -47zM91 356q0 -39 28 -64t80 -25t79.5 25t27.5 64t-27.5 64.5t-79.5 25.5q-53 0 -80.5 -25t-27.5 -65z" />
    <glyph glyph-name="ninesuperior" unicode="&#x2079;" horiz-adv-x="403" 
d="M186 433q73 0 123 48q-15 123 -119 123q-47 0 -73.5 -23.5t-26.5 -62.5q0 -40 27 -62.5t69 -22.5zM178 234q-101 0 -137 81l27 27q31 -72 111 -72q64 0 98 46t34 125v4q-48 -48 -125 -48q-60 0 -98 31.5t-38 86.5q0 54 39 89.5t102 35.5q69 0 113 -47.5t44 -151.5
q0 -92 -43.5 -149.5t-126.5 -57.5z" />
    <glyph glyph-name="Euro" unicode="&#x20ac;" horiz-adv-x="733" 
d="M675 63q-83 -78 -231 -78q-128 0 -206.5 69t-102.5 175h-59v36h53q-3 24 -3 47q0 13 2 37h-52v36h57q21 110 100.5 182t210.5 72q144 0 231 -78v-49q-95 87 -229 87q-107 0 -179 -57.5t-92 -156.5h340v-36h-345q-2 -24 -2 -37q0 -24 3 -47h344v-36h-338q23 -94 94 -149
t175 -55q134 0 229 87v-49z" />
    <glyph glyph-name="trademark" unicode="&#x2122;" horiz-adv-x="710" 
d="M498 447l160 182h5v-317h-37v230l-128 -148l-129 148v-230h-37v317h6zM118 588h-121v36h279v-36h-121v-276h-37v276z" />
    <glyph glyph-name="minus" unicode="&#x2212;" horiz-adv-x="521" 
d="M465 349v-41h-409v41h409z" />
    <glyph glyph-name="star" unicode="&#x22c6;" horiz-adv-x="723" 
d="M360 499h4q0 -80 52.5 -133.5t131.5 -53.5v-3q-79 0 -131.5 -52t-52.5 -131h-4q0 79 -52.5 131t-132.5 52v3q79 0 132 53.5t53 133.5z" />
    <glyph glyph-name="u2661" unicode="&#x2661;" horiz-adv-x="694" 
d="M618 358q0 -44 -21.5 -85t-56 -74.5t-70.5 -66t-70.5 -74t-51.5 -83.5q-17 42 -52.5 83.5t-71.5 74t-70.5 66.5t-56 74.5t-21.5 85.5q0 68 37 106t95 38q94 0 140 -105q44 105 132 105q60 0 99 -38.5t39 -106.5z" />
    <glyph glyph-name="u2662" unicode="&#x2662;" horiz-adv-x="690" 
d="M66 251q106 42 172 108.5t107 167.5q41 -101 107.5 -167t171.5 -109q-105 -43 -171.5 -109t-107.5 -167q-41 101 -107 167.5t-172 108.5z" />
    <glyph glyph-name="u2664" unicode="&#x2664;" horiz-adv-x="636" 
d="M409 -3q-88 7 -182 0q62 96 70 163q-38 -59 -100 -59q-56 0 -88.5 34t-32.5 89q0 40 19 69.5t49 50.5t62 42.5t63.5 57.5t48.5 83q17 -47 48.5 -83t63.5 -57.5t62 -42.5t49 -50.5t19 -69.5q0 -54 -31 -88.5t-78 -34.5q-40 0 -66 12.5t-45 46.5q5 -44 20.5 -78.5
t48.5 -84.5z" />
    <glyph glyph-name="u2667" unicode="&#x2667;" horiz-adv-x="712" 
d="M373 225q0 -69 17 -117t60 -112q-90 7 -186 0q43 65 59.5 112.5t15.5 116.5q-15 0 -27.5 -9.5t-22.5 -22.5t-21.5 -26t-32 -22.5t-48.5 -9.5q-43 0 -77 28.5t-34 77.5q0 50 34 78.5t77 28.5q34 0 58 -14t34.5 -31t26 -31t34.5 -14q0 18 -14.5 36t-32 31.5t-32 37.5
t-14.5 53q0 41 29.5 71t79.5 30t80 -30t30 -71q0 -29 -14.5 -53t-32.5 -37.5t-32.5 -31.5t-14.5 -36q19 0 34.5 14t26 31t34.5 31t58 14q43 0 77 -28.5t34 -78.5q0 -49 -34 -77.5t-77 -28.5q-34 0 -57.5 14t-34 31t-26 31t-34.5 14z" />
    <glyph glyph-name="leftwardsarrow" horiz-adv-x="712" 
d="M346 79l-48 -10l-232 255v12l232 255l48 -10l-217 -231h517v-40h-517z" />
    <glyph glyph-name="rightwardsarrow" horiz-adv-x="712" 
d="M614 324l-232 -255l-48 10l217 231h-517v40h517l-217 231l48 10l232 -255v-12z" />
    <glyph glyph-name="downwardsarrow" horiz-adv-x="714" 
d="M351 0l-255 232l10 48l231 -217v517h40v-517l231 217l10 -48l-255 -232h-12z" />
    <glyph glyph-name="upwardsarrow" horiz-adv-x="714" 
d="M390 0h-40v517l-231 -217l-10 48l255 232h12l255 -232l-10 -48l-231 217v-517z" />
    <glyph glyph-name="acute.cap" horiz-adv-x="335" 
d="M218 757l-49 -99h-33l40 99h42z" />
    <glyph glyph-name="grave.cap" horiz-adv-x="335" 
d="M165 658l-49 99h42l40 -99h-33z" />
    <glyph glyph-name="circumflex.cap" horiz-adv-x="412" 
d="M324 660l-118 42l-118 -42l-2 31l120 50l120 -50z" />
    <glyph glyph-name="dieresis.cap" horiz-adv-x="342" 
d="M250 672q-12 0 -20.5 8t-8.5 20t8.5 21t20.5 9q13 0 21 -9t8 -21t-8 -20t-21 -8zM92 672q-12 0 -20.5 8t-8.5 20t8.5 21t20.5 9t20.5 -9t8.5 -21t-8.5 -20t-20.5 -8z" />
    <glyph glyph-name="a.alt" horiz-adv-x="630" 
d="M320 23q107 0 175 83v298q-71 76 -170 76q-93 0 -151 -65.5t-58 -169.5q0 -102 58.5 -162t145.5 -60zM496 60v1q-70 -76 -179 -76q-106 0 -173.5 70t-67.5 190q0 122 68.5 197.5t176.5 75.5q103 0 176 -69l-2 54h39v-503h-41z" />
    <glyph glyph-name="g.alt" horiz-adv-x="632" 
d="M321 23q107 0 176 83v298q-71 76 -171 76q-93 0 -151.5 -65.5t-58.5 -169.5q0 -102 59 -162t146 -60zM307 -260q-58 0 -107.5 20t-80.5 48l-6 49q82 -79 191 -79q193 0 193 207v75q-69 -75 -179 -75q-106 0 -174 70t-68 190q0 122 68.5 197.5t177.5 75.5q104 0 177 -69
l-2 54h39v-518q0 -126 -62.5 -185.5t-166.5 -59.5z" />
    <glyph glyph-name="y.alt" horiz-adv-x="529" 
d="M185 -260l-26 33l89 204l-220 526h45l195 -479l190 479h43z" />
    <glyph glyph-name="hyphen.alt" horiz-adv-x="460" 
d="M404 399v-41l-348 -100v41z" />
    <glyph glyph-name="zero.osf" horiz-adv-x="730" 
d="M348 -15q-128 0 -200 81.5t-72 199.5q0 119 72 200.5t200 81.5t200 -82t72 -200t-72 -199.5t-200 -81.5zM348 23q101 0 166 65.5t65 177.5q0 113 -64.5 178.5t-166.5 65.5t-166.5 -65.5t-64.5 -178.5q0 -112 65 -177.5t166 -65.5z" />
    <glyph glyph-name="one.osf" horiz-adv-x="383" 
d="M267 0h-40v467l-151 -118v47l171 137h20v-533z" />
    <glyph glyph-name="two.osf" horiz-adv-x="609" 
d="M523 0h-451v10q22 15 72 47.5t71 46.5t60.5 42t57.5 44t43.5 42t36.5 46.5t20 46t9 51.5q0 61 -39.5 98t-105.5 37q-88 0 -131 -60.5t-19 -171.5l-40 10q-23 125 33.5 192.5t156.5 67.5q85 0 135 -48.5t50 -126.5q0 -48 -21.5 -91.5t-69 -86.5t-93.5 -76t-124 -82h349
v-38z" />
    <glyph glyph-name="three.osf" horiz-adv-x="573" 
d="M264 -106q-81 0 -138 44t-68 104l32 25q12 -62 58.5 -98.5t117.5 -36.5q74 0 123.5 40t49.5 115q0 73 -43 119.5t-145 46.5q-35 0 -86 -8v10l222 239h-295v39h372v-10l-220 -239q118 11 177 -45t59 -150q0 -87 -60 -141t-156 -54z" />
    <glyph glyph-name="four.osf" horiz-adv-x="624" 
d="M547 37h-135v-128h-40v128h-347v5l21 31l321 460h45l-319 -460h279v224h40v-224h135v-36z" />
    <glyph glyph-name="five.osf" horiz-adv-x="594" 
d="M281 -106q-95 0 -151.5 50t-63.5 121l36 19q6 -66 52 -109t127 -43q84 0 130 47t46 127q0 33 -9 61.5t-32.5 53t-59 37t-92.5 9.5t-128 -26l-3 3v289h321v-38h-282v-207q139 40 232.5 -8t93.5 -174q0 -93 -57.5 -152.5t-159.5 -59.5z" />
    <glyph glyph-name="six.osf" horiz-adv-x="646" 
d="M550 182q0 -85 -59.5 -141t-157.5 -56q-51 0 -93 16t-78 51.5t-56 100.5t-20 154q0 146 61 239t177 93q73 0 121.5 -34t71.5 -88l-29 -29q-52 113 -164 113q-98 0 -148 -81t-50 -215v-19q33 36 89.5 61.5t121.5 25.5q94 0 153.5 -51.5t59.5 -139.5zM332 23q81 0 128 42.5
t47 114.5q0 70 -47.5 111.5t-122.5 41.5q-127 0 -208 -91q13 -115 67.5 -167t135.5 -52z" />
    <glyph glyph-name="seven.osf" horiz-adv-x="525" 
d="M144 -91h-45l370 586h-406v38h469v-10z" />
    <glyph glyph-name="eight.osf" horiz-adv-x="602" 
d="M300 -15q-103 0 -163.5 54.5t-60.5 136.5q0 66 38 113t102 65q-33 17 -56 52.5t-23 80.5q0 61 43 106.5t122 45.5t122 -45t43 -106q0 -45 -23.5 -81.5t-57.5 -53.5q63 -19 101.5 -65.5t38.5 -111.5q0 -82 -61 -136.5t-165 -54.5zM177 488q0 -52 32.5 -86.5t92.5 -34.5
t93 34.5t33 86.5q0 50 -32.5 82.5t-93.5 32.5q-60 0 -92.5 -32.5t-32.5 -82.5zM117 177q0 -66 47 -110.5t136 -44.5t137.5 44.5t48.5 110.5t-48.5 110.5t-137.5 44.5t-136 -44.5t-47 -110.5z" />
    <glyph glyph-name="nine.osf" horiz-adv-x="624" 
d="M299 200q128 0 207 92q-13 113 -66.5 165.5t-132.5 52.5t-127 -42.5t-48 -112.5q0 -71 46.5 -113t120.5 -42zM282 -106q-76 0 -129 36.5t-77 95.5l30 29q50 -123 177 -123q111 0 168.5 80.5t57.5 215.5v19q-33 -35 -88.5 -60t-121.5 -25q-92 0 -150.5 50.5t-58.5 138.5
q0 85 60 141t156 56q107 0 174.5 -76t67.5 -246q0 -147 -68 -239.5t-198 -92.5z" />
    <glyph glyph-name="dollar.osf" horiz-adv-x="548" 
d="M312 -120h-40v105q-83 4 -135.5 50.5t-72.5 116.5l33 25q46 -155 187 -155q78 0 119.5 32t41.5 82q0 43 -32 70.5t-78 42.5t-92.5 31.5t-78.5 50.5t-32 87q0 52 34.5 88.5t94.5 41.5v76h40v-76q113 -11 151 -128l-30 -27q-38 119 -142 119q-49 0 -78.5 -27t-29.5 -67
q0 -37 23 -62.5t58 -37.5t75 -26.5t75 -29.5t58 -47t23 -77q0 -60 -44.5 -103t-127.5 -49v-106z" />
    <glyph glyph-name="cent.osf" horiz-adv-x="611" 
d="M571 50q-70 -61 -194 -65v-105h-40v106q-120 7 -186.5 83.5t-66.5 181.5q0 107 65 184t188 82v107h40v-108q113 -6 176 -63l-8 -43q-69 69 -190 69q-109 0 -170 -66t-61 -162q0 -97 64 -162.5t175 -65.5q126 0 201 69z" />
    <glyph glyph-name="sterling.osf" horiz-adv-x="566" 
d="M503 0h-417v38h85q27 32 39.5 59.5t11 53t-7 43t-18.5 43.5h-93v38h74q-24 52 -24 96q0 80 46.5 128.5t129.5 48.5q71 0 112.5 -43.5t48.5 -102.5l-34 -21q-6 55 -38.5 91.5t-85.5 36.5q-69 0 -103.5 -37t-34.5 -100q0 -39 28 -97h217l-10 -38h-189q14 -32 19 -58
t-3.5 -64t-35.5 -77h283v-38z" />
    <glyph glyph-name="yen.osf" horiz-adv-x="547" 
d="M478 177h-184v-177h-40v177h-184v36h166l-188 319h48l178 -318l179 319l48 -1l-189 -319h166v-36z" />
    <glyph glyph-name="Euro.osf" horiz-adv-x="625" 
d="M585 61q-74 -76 -200 -76q-106 0 -173 57.5t-89 146.5h-83v36h77q-3 21 -3 42t3 42h-77v36h83q20 89 85.5 146.5t172.5 57.5q116 0 183 -76l-3 -44q-73 82 -179 82q-85 0 -142 -44t-77 -122h310v-36h-317q-2 -26 -2 -42q0 -23 3 -42h316v-36h-310q21 -78 80 -122t143 -44
q118 0 194 80z" />
    <glyph glyph-name="florin.osf" horiz-adv-x="388" 
d="M317 238h-208v-238h-39v238h-33v3l33 35v74q0 97 43.5 149t123.5 51q47 -1 83 -24t52 -62l-24 -31q-31 79 -111 79q-128 0 -128 -163v-73h208v-38z" />
    <glyph glyph-name="rightpointedhand" horiz-adv-x="1185" 
d="M98 535v-408l142 7l9 392zM1042 524l-377 3l98 -96l278 8q55 1 55 44q0 41 -54 41zM226 448q-48 -3 -50 -49h-7q-2 47 -50 49v7q48 2 50 51h7q2 -49 50 -51v-7zM569 91q30 0 57 8q-1 3 -1 12q-2 6 -1 11q-19 4 -31.5 20t-12.5 36q0 9 2 19q-63 14 -63 70q0 9 3 17
q-24 -6 -50 -6q-54 0 -99 34l5 35q38 -31 95 -31q75 0 113 48q-14 10 -29 21.5t-24 19.5t-17.5 16t-9.5 9l7 30q29 -33 90 -72.5t106 -39.5q28 0 44 13.5t14 34.5l-148 145q-41 37 -82 37q-33 0 -80 -30t-98.5 -64t-91.5 -41l-6 -237q48 -7 92 -26.5t71.5 -38.5t66 -34.5
t78.5 -15.5zM574 229l240 99q5 9 5 23q0 28 -25 39q-1 -28 -16 -49q-23 -29 -70 -29q-39 0 -92 32q-33 -36 -67 -50q-6 -9 -6 -26q0 -35 31 -39zM626 155l210 79q8 8 8 20q0 14 -9 24t-21 12l-207 -86q-3 -12 -3 -19q0 -24 22 -30zM670 85l173 57q9 9 9 23q0 20 -20 31
l-180 -69q-4 -9 -4 -19q0 -19 22 -23zM569 53q-45 0 -88.5 16t-73 36t-69.5 38.5t-77 21.5l-2 -71l-181 -9v472l191 -13l-2 -80q31 6 81.5 40t100 64t83.5 31q57 2 97 -37l13 -13l395 -4q38 0 60.5 -18t22.5 -49q0 -70 -83 -74l-211 -7q20 -18 20 -45q0 -23 -12 -49
q34 -14 34 -52q0 -22 -16 -41q24 -18 24 -47q0 -48 -43 -61l-160 -49q-17 3 -26 11q-34 -11 -78 -11z" />
    </font>
</defs>
</svg>
