<?xml version="1.0" standalone="no"?>
<!DOCTYPE svg PUBLIC "-//W3C//DTD SVG 1.1//EN" "http://www.w3.org/Graphics/SVG/1.1/DTD/svg11.dtd" >
<svg xmlns="http://www.w3.org/2000/svg" xmlns:xlink="http://www.w3.org/1999/xlink" version="1.1">
<metadata>
Created by FontForge 20161013 at Fri Feb 20 16:41:09 2015
 By ,,,
(c)2015 Wcie All right reserved.
</metadata>
<defs>
<font id="Lucien-Regular" horiz-adv-x="632" >
  <font-face 
    font-family="Lucien Regular"
    font-weight="400"
    font-stretch="normal"
    units-per-em="1000"
    panose-1="2 0 0 0 0 0 0 0 0 0"
    ascent="800"
    descent="-200"
    x-height="503"
    cap-height="624"
    bbox="-60 -261 1104 767"
    underline-thickness="100"
    underline-position="-290"
    unicode-range="U+0020-FB04"
  />
<missing-glyph horiz-adv-x="551" 
d="M343 382v-1q67 -5 117.5 -40.5t50.5 -96.5q0 -67 -56.5 -106t-139.5 -39v4q58 0 87.5 42t29.5 99q0 59 -32 95t-102 36h-44q-48 0 -76 -25t-30 -65h-3v339h148q75 0 133.5 -30t58.5 -95q0 -47 -43.5 -79.5t-98.5 -37.5zM224 386h74q52 0 84 32t32 83q0 53 -37 82.5
t-98 29.5h-55v-227zM145 216h3q0 -49 35 -81t87 -32v-4q-52 0 -87 -31.5t-35 -80.5h-3q0 49 -35.5 80.5t-89.5 31.5v4q54 0 89.5 32t35.5 81z" />
    <glyph glyph-name="f_f" unicode="ff" horiz-adv-x="678" 
d="M196 511v-8h200v33q0 20 3 38q-45 38 -103 38q-45 0 -72.5 -26t-27.5 -75zM396 0v407h-200v-407h-100v407h-66v96h66v3q0 94 56 146.5t139 52.5q95 0 144 -41q54 71 155 71q52 0 110 -21l18 -102q-62 29 -118 29q-48 0 -76 -25t-28 -75v-38h171v-96h-171v-407h-100z" />
    <glyph glyph-name="fi" unicode="fi" horiz-adv-x="580" 
d="M396 0v407h-200v-407h-100v407h-66l66 96v33q0 90 53 144.5t141 54.5q52 0 110 -21l18 -102q-62 29 -118 29q-48 0 -76 -25t-28 -75v-38h304v-503h-104z" />
    <glyph glyph-name="fl" unicode="fl" horiz-adv-x="576" 
d="M396 0v407h-200v-407h-100v407h-66l66 96v67q0 78 45.5 123.5t119.5 45.5q39 0 79 -13l18 -102q-48 21 -85 21q-77 0 -77 -92v-50h200v221h100v-724h-100z" />
    <glyph glyph-name="f_f_i" unicode="ffi" horiz-adv-x="880" 
d="M196 511v-8h200v33q0 20 3 38q-45 38 -103 38q-45 0 -72.5 -26t-27.5 -75zM396 0v407h-200v-407h-100v407h-66v96h66v3q0 93 59.5 146t144.5 53q81 0 133 -43q54 73 157 73q52 0 110 -21l18 -102q-62 29 -118 29q-48 0 -76 -25t-28 -75v-38h304v-503h-104v407h-200v-407
h-100z" />
    <glyph glyph-name="f_f_l" unicode="ffl" horiz-adv-x="876" 
d="M196 511v-8h200v67v6q-45 36 -100 36q-45 0 -72.5 -26t-27.5 -75zM396 0v407h-200v-407h-100v407h-66v96h66v3q0 94 56 146.5t139 52.5q77 0 130 -37q46 71 140 71q39 0 79 -13l18 -102q-48 21 -85 21q-77 0 -77 -92v-50h200v221h100v-724h-100v407h-200v-407h-100z" />
    <glyph glyph-name=".notdef" horiz-adv-x="551" 
d="M343 382v-1q67 -5 117.5 -40.5t50.5 -96.5q0 -67 -56.5 -106t-139.5 -39v4q58 0 87.5 42t29.5 99q0 59 -32 95t-102 36h-44q-48 0 -76 -25t-30 -65h-3v339h148q75 0 133.5 -30t58.5 -95q0 -47 -43.5 -79.5t-98.5 -37.5zM224 386h74q52 0 84 32t32 83q0 53 -37 82.5
t-98 29.5h-55v-227zM145 216h3q0 -49 35 -81t87 -32v-4q-52 0 -87 -31.5t-35 -80.5h-3q0 49 -35.5 80.5t-89.5 31.5v4q54 0 89.5 32t35.5 81z" />
    <glyph glyph-name=".null" horiz-adv-x="0" 
 />
    <glyph glyph-name="nonmarkingreturn" horiz-adv-x="333" 
 />
    <glyph glyph-name="space" unicode=" " horiz-adv-x="240" 
 />
    <glyph glyph-name="exclam" unicode="!" horiz-adv-x="250" 
d="M83 151l-10 473h104l-10 -473h-84zM127 -14q-29 0 -44.5 17t-15.5 41q0 25 15.5 42t44.5 17q30 0 45.5 -17t15.5 -42q0 -24 -15.5 -41t-45.5 -17z" />
    <glyph glyph-name="quotedbl" unicode="&#x22;" horiz-adv-x="278" 
d="M157 624h101l-10 -179h-79zM20 624h101l-10 -179h-79z" />
    <glyph glyph-name="numbersign" unicode="#" horiz-adv-x="667" 
d="M366 254l25 105h-108l-25 -105h108zM306 0l38 162h-108l-38 -162h-101l38 162h-105v92h127l25 105h-132v93h153l41 172h102l-41 -172h108l41 172h101l-41 -172h123v-93h-144l-25 -105h149v-92h-171l-38 -162h-102z" />
    <glyph glyph-name="dollar" unicode="$" horiz-adv-x="594" 
d="M362 -138h-104v126q-82 11 -139 54t-79 103l75 79q43 -146 192 -146q76 0 110.5 25.5t34.5 65.5q0 37 -35.5 62.5t-86 42.5t-101 38t-86 61.5t-35.5 98.5t39 104t111 59v109h104v-111q88 -19 133 -104l-63 -80q-34 97 -125 97q-47 0 -70.5 -20.5t-23.5 -53.5
q0 -34 35 -58t85 -41t100.5 -38t85.5 -63t35 -103q0 -68 -51 -118t-141 -62v-127z" />
    <glyph glyph-name="percent" unicode="%" horiz-adv-x="974" 
d="M223 234q-89 0 -141 60t-52 143t52 143t141 60t141 -60t52 -143t-52 -143t-141 -60zM425 0h-104l230 624h104zM223 549q-43 0 -68 -30.5t-25 -81.5t25 -81.5t68 -30.5t68 30.5t25 81.5t-25 81.5t-68 30.5zM751 -16q-89 0 -141 60t-52 143t52 143t141 60t141 -60t52 -143
t-52 -143t-141 -60zM751 299q-43 0 -68 -30.5t-25 -81.5t25 -81.5t68 -30.5t68 30.5t25 81.5t-25 81.5t-68 30.5z" />
    <glyph glyph-name="ampersand" unicode="&#x26;" horiz-adv-x="706" 
d="M323 74q83 0 136 32l-125 107q-57 49 -86 83q-45 -9 -67.5 -37t-22.5 -69q0 -55 42 -85.5t123 -30.5zM582 0l-52 45q-80 -60 -210 -60q-122 0 -191 54t-69 146q0 65 35.5 113.5t102.5 68.5q-26 51 -26 106q0 69 47.5 117.5t136.5 48.5q77 0 122.5 -42.5t52.5 -104.5
l-86 -42q-8 99 -88 99q-35 0 -59 -22.5t-24 -66.5q0 -40 29.5 -82.5t98.5 -101.5l116 -99q8 19 8 46q0 52 -30 103l93 10q32 -49 32 -112q0 -59 -29 -110l134 -114h-144z" />
    <glyph glyph-name="quotesingle" unicode="'" horiz-adv-x="141" 
d="M20 624h101l-10 -179h-79z" />
    <glyph glyph-name="parenleft" unicode="(" horiz-adv-x="229" 
d="M239 -120h-104q-75 179 -75 432.5t75 431.5h104q-75 -178 -75 -431.5t75 -432.5z" />
    <glyph glyph-name="parenright" unicode=")" horiz-adv-x="229" 
d="M94 -120h-104q75 178 75 432t-75 432h104q75 -178 75 -431.5t-75 -432.5z" />
    <glyph glyph-name="asterisk" unicode="*" horiz-adv-x="416" 
d="M291 254l-83 130l-81 -129l-82 59l80 98l-115 29l31 96l126 -49l-9 136h101l-8 -135l124 50l31 -96l-116 -31l82 -98z" />
    <glyph glyph-name="plus" unicode="+" horiz-adv-x="489" 
d="M449 276h-152v-152h-105v152h-152v105h152v152h105v-152h152v-105z" />
    <glyph glyph-name="comma" unicode="," horiz-adv-x="178" 
d="M44 76h101l-58 -219l-71 30z" />
    <glyph glyph-name="hyphen" unicode="-" horiz-adv-x="468" 
d="M408 380v-105h-348v105h348z" />
    <glyph glyph-name="period" unicode="." horiz-adv-x="201" 
d="M100 -14q-29 0 -44.5 17t-15.5 41q0 25 15.5 42t44.5 17q30 0 45.5 -17t15.5 -42q0 -24 -15.5 -41t-45.5 -17z" />
    <glyph glyph-name="slash" unicode="/" horiz-adv-x="404" 
d="M94 -120h-104l320 864h104z" />
    <glyph glyph-name="zero" unicode="0" horiz-adv-x="728" 
d="M364 -15q-142 0 -223 96.5t-81 230.5t81 230.5t223 96.5t223 -96.5t81 -230.5t-81 -230.5t-223 -96.5zM364 541q-88 0 -142 -63t-54 -166t54 -166t142 -63t142 63t54 166t-54 166t-142 63z" />
    <glyph glyph-name="one" unicode="1" horiz-adv-x="395" 
d="M305 0h-104v478l-151 -115v124l171 137h84v-624z" />
    <glyph glyph-name="two" unicode="2" horiz-adv-x="609" 
d="M539 0h-493v18q90 66 148.5 114.5t110 102t76 102.5t24.5 98q0 50 -28 79.5t-87 29.5q-28 0 -51.5 -8.5t-43 -30t-22.5 -57.5t8 -91l-98 22q-23 124 41.5 192t166.5 68q99 0 157.5 -59t58.5 -149q0 -164 -217 -333h249v-98z" />
    <glyph glyph-name="three" unicode="3" horiz-adv-x="611" 
d="M298 -15q-105 0 -173 53.5t-75 123.5l86 47q4 -57 45.5 -93t116.5 -36q64 0 101.5 31t37.5 86q0 56 -44 90.5t-130 34.5q-45 0 -105 -12v10l184 207h-256v97h453v-10l-189 -218q79 -5 135 -60t56 -139q0 -95 -65.5 -153.5t-177.5 -58.5z" />
    <glyph glyph-name="four" unicode="4" horiz-adv-x="643" 
d="M593 107h-103v-107h-104v107h-366v3l56 85l289 429h119l-284 -429h186v196h104v-196h103v-88z" />
    <glyph glyph-name="five" unicode="5" horiz-adv-x="599" 
d="M298 -15q-105 0 -173 53.5t-75 123.5l86 47q4 -55 48 -92t114 -37q65 0 102 36t37 91q0 85 -78 113.5t-229 -19.5l-4 4v319h369v-97h-272v-116q51 17 106.5 11t102 -26.5t77 -70t30.5 -118.5q0 -95 -64 -158.5t-177 -63.5z" />
    <glyph glyph-name="six" unicode="6" horiz-adv-x="640" 
d="M580 198q0 -93 -62 -153t-172 -60q-59 0 -107.5 16.5t-90 52.5t-65 102.5t-23.5 158.5q0 141 69 232.5t197 91.5q92 0 149 -39t76 -99l-70 -69q-36 112 -155 112q-79 0 -122 -54.5t-47 -157.5q78 63 186 63q105 0 171 -53t66 -144zM346 80q62 0 95.5 31t33.5 85
q0 45 -38 72t-94 27q-107 0 -178 -66q31 -149 181 -149z" />
    <glyph glyph-name="seven" unicode="7" horiz-adv-x="557" 
d="M173 0h-113l343 526h-359v98h533v-10z" />
    <glyph glyph-name="eight" unicode="8" horiz-adv-x="620" 
d="M310 -15q-115 0 -182.5 59t-67.5 151q0 118 111 169q-46 43 -46 105q0 68 50 119t139 51t139 -51t50 -119q0 -65 -51 -109q108 -53 108 -165q0 -92 -67.5 -151t-182.5 -59zM223 472q0 -35 23.5 -58t67.5 -23t68 23t24 58t-24 57.5t-68 22.5t-67.5 -22.5t-23.5 -57.5z
M162 194q0 -51 38 -83t110 -32t110 32t38 83q0 55 -38 88t-110 33t-110 -33t-38 -88z" />
    <glyph glyph-name="nine" unicode="9" horiz-adv-x="637" 
d="M304 331q100 0 169 65q-28 148 -160 148q-55 0 -89.5 -29.5t-34.5 -76.5q0 -50 33 -78.5t82 -28.5zM295 -15q-86 0 -151.5 41t-83.5 106l76 67q15 -55 59.5 -87t101.5 -32q175 0 183 210q-77 -55 -176 -55q-92 0 -156 52t-64 141q0 90 65.5 150.5t163.5 60.5
q118 0 191 -80.5t73 -247.5q0 -148 -71 -237t-211 -89z" />
    <glyph glyph-name="colon" unicode=":" horiz-adv-x="201" 
d="M100 262q-29 0 -44.5 17t-15.5 41q0 25 15.5 42t44.5 17q30 0 45.5 -17t15.5 -42q0 -24 -15.5 -41t-45.5 -17zM100 -14q-29 0 -44.5 17t-15.5 41q0 25 15.5 42t44.5 17q30 0 45.5 -17t15.5 -42q0 -24 -15.5 -41t-45.5 -17z" />
    <glyph glyph-name="semicolon" unicode=";" horiz-adv-x="178" 
d="M93 262q-29 0 -44.5 17t-15.5 41q0 25 15.5 42t44.5 17q30 0 45.5 -17t15.5 -42q0 -24 -15.5 -41t-45.5 -17zM44 76h101l-58 -219l-71 30z" />
    <glyph glyph-name="less" unicode="&#x3c;" horiz-adv-x="347" 
d="M254 85l-234 241v9l234 241l73 -75l-172 -170l172 -171z" />
    <glyph glyph-name="equal" unicode="=" horiz-adv-x="489" 
d="M449 511v-105h-409v105h409zM449 251v-105h-409v105h409z" />
    <glyph glyph-name="greater" unicode="&#x3e;" horiz-adv-x="347" 
d="M327 326l-234 -241l-73 75l172 171l-172 170l73 75l234 -241v-9z" />
    <glyph glyph-name="question" unicode="?" horiz-adv-x="451" 
d="M156 151v109q88 32 133 71t45 106q0 51 -27.5 79t-81.5 28q-63 0 -95.5 -42.5t-14.5 -124.5l-92 22q-17 113 42 176.5t162 63.5q94 0 149 -54.5t55 -141.5q0 -90 -48.5 -142t-132.5 -83l-7 -67h-87zM201 -14q-29 0 -44.5 17t-15.5 41q0 25 15.5 42t44.5 17q30 0 45.5 -17
t15.5 -42q0 -24 -15.5 -41t-45.5 -17z" />
    <glyph glyph-name="at" unicode="@" horiz-adv-x="748" 
d="M423 -86q-166 0 -264.5 86.5t-98.5 249.5q0 142 95 234t236 92q125 0 199.5 -67t74.5 -176v-238h-99l6 45q-58 -60 -151 -60q-82 0 -130 45t-48 116q0 69 50.5 113t126.5 44q90 0 145 -45q0 59 -47.5 95t-127.5 36q-101 0 -168.5 -61.5t-67.5 -172.5q0 -117 70 -184
t209 -67q133 0 235 63l-21 -103q-93 -45 -224 -45zM431 167q72 0 134 41v61q-62 42 -134 42q-42 0 -66.5 -19.5t-24.5 -52.5q0 -34 24.5 -53t66.5 -19z" />
    <glyph glyph-name="A" unicode="A" horiz-adv-x="692" 
d="M452 210l-108 230l-108 -230h216zM551 0l-54 114h-306l-54 -114h-117l320 639h12l320 -639h-121z" />
    <glyph glyph-name="B" unicode="B" horiz-adv-x="649" 
d="M332 523h-128v-164h196q40 32 40 82q0 49 -29.5 65.5t-78.5 16.5zM367 260h-163v-159h173q122 0 122 79q0 44 -33 62t-99 18zM100 0v624h239q101 0 153.5 -47t52.5 -131q0 -77 -50 -124q45 -13 77 -49t32 -93q0 -81 -53 -130.5t-163 -49.5h-288z" />
    <glyph glyph-name="C" unicode="C" horiz-adv-x="689" 
d="M619 455q-89 83 -210 83q-109 0 -174.5 -60.5t-65.5 -165.5t65.5 -165.5t173.5 -60.5q122 0 211 83l20 -106q-37 -33 -101 -55.5t-138 -22.5q-109 0 -188 47.5t-115.5 120.5t-36.5 159t36.5 159t115.5 120.5t188 47.5q74 0 138 -22.5t101 -55.5z" />
    <glyph glyph-name="D" unicode="D" horiz-adv-x="754" 
d="M204 101h106q139 0 207 47.5t68 163.5t-67.5 163t-207.5 48h-106v-422zM100 0v624h240q185 0 269.5 -84.5t84.5 -227.5t-84.5 -227.5t-269.5 -84.5h-240z" />
    <glyph glyph-name="E" unicode="E" 
d="M204 101h348v-101h-452v624h452v-101h-348v-154h338v-101h-338v-167z" />
    <glyph glyph-name="F" unicode="F" horiz-adv-x="592" 
d="M204 349h318v-101h-318v-248h-104v624h432v-101h-328v-174z" />
    <glyph glyph-name="G" unicode="G" horiz-adv-x="753" 
d="M578 0l11 48q-75 -63 -199 -63q-155 0 -242.5 96.5t-87.5 230.5q0 86 36.5 159t115.5 120.5t188 47.5q74 0 138 -22.5t101 -55.5l-20 -106q-89 83 -210 83q-109 0 -174.5 -60.5t-65.5 -165.5q0 -103 62.5 -164.5t158.5 -61.5q114 0 189 77v133h104v-296h-105z" />
    <glyph glyph-name="H" unicode="H" horiz-adv-x="787" 
d="M583 382v242h104v-624h-104v281h-379v-281h-104v624h104v-242h379z" />
    <glyph glyph-name="I" unicode="I" horiz-adv-x="304" 
d="M100 0v624h104v-624h-104z" />
    <glyph glyph-name="J" unicode="J" horiz-adv-x="561" 
d="M466 624v-412q0 -227 -222 -227q-105 0 -154.5 54.5t-48.5 139.5l95 36q2 -74 27 -103.5t86 -29.5q59 0 86 34.5t27 91.5v416h104z" />
    <glyph glyph-name="K" unicode="K" horiz-adv-x="668" 
d="M100 0v624h104v-624h-104zM209 312l250 312h131l-247 -302l325 -322h-144z" />
    <glyph glyph-name="L" unicode="L" horiz-adv-x="582" 
d="M204 101h328v-101h-432v624h104v-523z" />
    <glyph glyph-name="M" unicode="M" horiz-adv-x="884" 
d="M442 280l330 354h12v-634h-104v392l-238 -256l-238 256v-392h-104v634h12z" />
    <glyph glyph-name="N" unicode="N" horiz-adv-x="802" 
d="M702 -10h-12l-486 428v-418h-104v634h12l486 -427v417h104v-634z" />
    <glyph glyph-name="O" unicode="O" horiz-adv-x="788" 
d="M394 -15q-83 0 -148.5 27.5t-105 74t-60 104t-20.5 121.5t20.5 121.5t60 104t105 74t148.5 27.5t148.5 -27.5t105 -74t60 -104t20.5 -121.5t-20.5 -121.5t-60 -104t-105 -74t-148.5 -27.5zM394 541q-103 0 -164.5 -62.5t-61.5 -166.5t61.5 -166.5t164.5 -62.5t164.5 62.5
t61.5 166.5t-61.5 166.5t-164.5 62.5z" />
    <glyph glyph-name="P" unicode="P" horiz-adv-x="643" 
d="M204 303h122q77 0 120.5 23.5t43.5 86.5t-43.5 86.5t-120.5 23.5h-122v-220zM204 202v-202h-104v624h243q127 0 191 -56.5t64 -154.5t-64 -154.5t-191 -56.5h-139z" />
    <glyph glyph-name="Q" unicode="Q" horiz-adv-x="816" 
d="M685 -58l-105 89q-78 -46 -186 -46q-83 0 -148.5 27.5t-105 74t-60 104t-20.5 121.5t20.5 121.5t60 104t105 74t148.5 27.5t148.5 -27.5t105 -74t60 -104t20.5 -121.5q0 -127 -70 -213l109 -92zM394 83q56 0 102 20l-160 136l87 60l154 -131q43 58 43 144
q0 104 -61.5 166.5t-164.5 62.5t-164.5 -62.5t-61.5 -166.5t61.5 -166.5t164.5 -62.5z" />
    <glyph glyph-name="R" unicode="R" horiz-adv-x="666" 
d="M327 523h-123v-220h195q29 14 47.5 44t18.5 66q0 58 -33.5 84t-104.5 26zM515 0l-162 202h-149v-202h-104v624h228q121 0 183 -56.5t62 -154.5q0 -132 -111 -193l184 -220h-131z" />
    <glyph glyph-name="S" unicode="S" horiz-adv-x="594" 
d="M213 472q0 -34 35 -58t85 -41t100.5 -38t85.5 -63t35 -103q0 -79 -66.5 -131.5t-180.5 -52.5q-100 0 -171 45t-96 115l75 79q43 -146 192 -146q76 0 110.5 25.5t34.5 65.5q0 37 -35.5 62.5t-86 42.5t-101 38t-86 61.5t-35.5 98.5q0 68 52.5 117.5t146.5 49.5
q129 0 188 -110l-63 -80q-34 97 -125 97q-47 0 -70.5 -20.5t-23.5 -53.5z" />
    <glyph glyph-name="T" unicode="T" 
d="M264 523h-234v101h572v-101h-234v-523h-104v523z" />
    <glyph glyph-name="U" unicode="U" horiz-adv-x="777" 
d="M583 0l6 54q-87 -69 -217 -69q-277 0 -277 267v372h104v-359q0 -92 42.5 -135.5t135.5 -43.5q119 0 196 73v465h104v-624h-94z" />
    <glyph glyph-name="V" unicode="V" horiz-adv-x="692" 
d="M341 -15l-321 639h114l212 -445l212 445h114l-321 -639h-10z" />
    <glyph glyph-name="W" unicode="W" horiz-adv-x="983" 
d="M640 -18l-149 377l-147 -377h-10l-314 642h119l194 -403l151 418h10l155 -420l195 405h119l-313 -642h-10z" />
    <glyph glyph-name="X" unicode="X" horiz-adv-x="731" 
d="M576 0l-214 257l-207 -257h-125l272 329l-245 295h128l186 -225l175 225h128l-243 -298l270 -326h-125z" />
    <glyph glyph-name="Y" unicode="Y" horiz-adv-x="684" 
d="M394 0h-104v268l-280 356h123l209 -271l209 271h123l-280 -356v-268z" />
    <glyph glyph-name="Z" unicode="Z" horiz-adv-x="676" 
d="M30 0v12l400 511h-312v101h513v-12l-400 -511h388v-101h-589z" />
    <glyph glyph-name="bracketleft" unicode="[" horiz-adv-x="319" 
d="M80 -120v864h279v-98h-175v-668h175v-98h-279z" />
    <glyph glyph-name="bracketright" unicode="]" horiz-adv-x="319" 
d="M-40 -120v98h175v668h-175v98h279v-864h-279z" />
    <glyph glyph-name="underscore" unicode="_" horiz-adv-x="471" 
d="M471 -1v-105h-471v105h471z" />
    <glyph glyph-name="grave" unicode="`" horiz-adv-x="361" 
d="M269 544h-80l-69 159h101z" />
    <glyph glyph-name="a" unicode="a" horiz-adv-x="562" 
d="M248 72q72 0 134 41v61q-62 42 -134 42q-42 0 -66.5 -19.5t-24.5 -52.5q0 -34 24.5 -53t66.5 -19zM383 0l6 45q-58 -60 -151 -60q-82 0 -130 45t-48 116q0 69 50.5 113t126.5 44q90 0 145 -45v43q0 55 -28.5 86.5t-86.5 31.5q-98 0 -148 -96l-50 74q27 56 81 85t125 29
q56 0 98 -19t64.5 -51t33.5 -68t11 -77v-296h-99z" />
    <glyph glyph-name="b" unicode="b" horiz-adv-x="612" 
d="M299 421q-69 0 -119 -39v-285h84q91 0 138 42t47 121q0 76 -43 118.5t-107 42.5zM80 0v724h100v-248q55 42 132 42q106 0 173 -70t67 -190t-76.5 -189.5t-196.5 -68.5h-199z" />
    <glyph glyph-name="c" unicode="c" horiz-adv-x="581" 
d="M60 251q0 111 69.5 188.5t200.5 77.5q121 0 190 -64l-16 -100q-73 68 -167 68q-78 0 -126 -45t-48 -125q0 -83 55 -126.5t130 -43.5q99 0 172 68l16 -101q-70 -63 -190 -63q-133 0 -209.5 78t-76.5 188z" />
    <glyph glyph-name="d" unicode="d" 
d="M313 82q79 0 139 49v249q-57 41 -126 41q-80 0 -121.5 -48t-41.5 -130q0 -76 43 -118.5t107 -42.5zM442 0l11 38q-63 -53 -153 -53q-106 0 -173 70t-67 190q0 121 70.5 197t179.5 76q79 0 142 -44v250h100v-724h-110z" />
    <glyph glyph-name="e" unicode="e" horiz-adv-x="591" 
d="M310 422q-51 0 -88.5 -26.5t-52.5 -76.5h263q-4 48 -38 75.5t-84 27.5zM541 48q-30 -27 -84.5 -45t-115.5 -18q-138 0 -209.5 77.5t-71.5 188.5q0 115 65 190.5t185 75.5q119 0 178.5 -85t45.5 -202h-373q7 -73 59 -111.5t133 -38.5q95 0 172 72z" />
    <glyph glyph-name="f" unicode="f" horiz-adv-x="378" 
d="M367 407h-171v-407h-100v407h-66l8 11l58 85v33q0 90 53 144.5t141 54.5q52 0 110 -21l18 -102q-62 29 -118 29q-48 0 -76 -25t-28 -75v-38h171v-96z" />
    <glyph glyph-name="g" unicode="g" horiz-adv-x="591" 
d="M292 240q125 0 125 95q0 96 -125 96q-124 0 -124 -96q0 -46 32 -70.5t92 -24.5zM551 -74q0 -79 -72 -133t-200 -54q-115 0 -177 40.5t-62 110.5q0 79 72 124q-36 32 -36 82q0 68 65 101q-65 51 -65 138q0 78 54 130t162 52q54 0 96 -14h158v-86l-60 9q23 -39 23 -91
q0 -77 -54.5 -129t-162.5 -52q-34 0 -71 7q-47 -18 -47 -53q0 -15 11 -26t36 -11h166q77 0 120.5 -40t43.5 -105zM285 -174q82 0 125.5 26.5t43.5 70.5q0 26 -19 43.5t-58 17.5h-174h-10q-56 -32 -56 -80q0 -40 33.5 -59t114.5 -19z" />
    <glyph glyph-name="h" unicode="h" 
d="M332 417q-86 0 -152 -77v-340h-100v724h100v-280q72 70 171 70q93 0 147 -56.5t54 -131.5v-326h-100v310q0 107 -120 107z" />
    <glyph glyph-name="i" unicode="i" horiz-adv-x="264" 
d="M132 611q-27 0 -46 19t-19 46t19 46t46 19t46 -19t19 -46t-19 -46t-46 -19zM184 0h-104v503h104v-503z" />
    <glyph glyph-name="j" unicode="j" horiz-adv-x="260" 
d="M132 611q-27 0 -46 19t-19 46t19 46t46 19t46 -19t19 -46t-19 -46t-46 -19zM180 503v-595q0 -81 -39.5 -124.5t-103.5 -43.5q-29 0 -54 9l-38 92q36 -9 53 -9q42 0 62 18.5t20 73.5v579h100z" />
    <glyph glyph-name="k" unicode="k" horiz-adv-x="554" 
d="M180 0h-100v724h100v-724zM185 251l216 252h131l-224 -243l276 -260h-145z" />
    <glyph glyph-name="l" unicode="l" horiz-adv-x="260" 
d="M180 0h-100v724h100v-724z" />
    <glyph glyph-name="m" unicode="m" horiz-adv-x="944" 
d="M322 417q-78 0 -142 -66v-351h-100v503h100v-50q71 61 161 61q112 0 157 -85q75 85 185 85q92 0 136.5 -55t44.5 -133v-326h-100v310q0 107 -100 107q-79 0 -143 -67q1 -8 1 -24v-326h-100v310q0 107 -100 107z" />
    <glyph glyph-name="n" unicode="n" 
d="M337 417q-41 0 -83 -20.5t-74 -57.5v-339h-100v503h100v-60q75 71 176 71q93 0 144.5 -56t51.5 -132v-326h-100v310q0 107 -115 107z" />
    <glyph glyph-name="o" unicode="o" horiz-adv-x="666" 
d="M333 -15q-131 0 -202 78t-71 188t71 188t202 78t202 -78t71 -188t-71 -188t-202 -78zM333 81q76 0 122.5 46t46.5 124t-46 124t-123 46t-123 -46t-46 -124t46.5 -124t122.5 -46z" />
    <glyph glyph-name="p" unicode="p" 
d="M306 82q80 0 121.5 48t41.5 130q0 76 -43 118.5t-107 42.5q-79 0 -139 -49v-249q57 -41 126 -41zM322 -15q-79 0 -142 44v-274h-100v748h110l-11 -38q63 53 153 53q106 0 173 -70t67 -190q0 -121 -70.5 -197t-179.5 -76z" />
    <glyph glyph-name="q" unicode="q" horiz-adv-x="612" 
d="M532 -221h-100v248q-55 -42 -132 -42q-106 0 -173 70t-67 190t76.5 189.5t196.5 68.5h199v-724zM313 82q69 0 119 39v285h-84q-91 0 -138 -42t-47 -121q0 -76 43 -118.5t107 -42.5z" />
    <glyph glyph-name="r" unicode="r" horiz-adv-x="381" 
d="M303 416q-82 0 -123 -70v-346h-100v503h100l-6 -61q45 72 122 72q22 0 44 -6l31 -104q-35 12 -68 12z" />
    <glyph glyph-name="s" unicode="s" horiz-adv-x="504" 
d="M195 369q0 -24 27.5 -41t67.5 -30t79.5 -29.5t67 -49.5t27.5 -80q0 -68 -48.5 -111t-137.5 -43q-84 0 -147 36t-91 93l60 78q50 -118 178 -118q86 0 86 61q0 23 -27.5 40t-67 29.5t-79 29.5t-67 51.5t-27.5 83.5q0 64 44 104.5t122 40.5q58 0 106 -25.5t69 -63.5l-63 -69
q-14 31 -43 50.5t-68 19.5q-68 0 -68 -57z" />
    <glyph glyph-name="t" unicode="t" horiz-adv-x="377" 
d="M367 407h-151v-407h-100v407h-76v8l76 88l92 114h8v-114h151v-96z" />
    <glyph glyph-name="u" unicode="u" 
d="M452 0v60q-75 -71 -176 -71q-93 0 -144.5 56t-51.5 132v326h100v-310q0 -107 115 -107q41 0 83 20.5t74 57.5v339h100v-503h-100z" />
    <glyph glyph-name="v" unicode="v" horiz-adv-x="545" 
d="M277 -15h-8l-259 518h114l149 -317l148 317h114z" />
    <glyph glyph-name="w" unicode="w" horiz-adv-x="785" 
d="M510 -15l-118 293l-116 -293h-9l-257 518h110l143 -307l123 319h8l127 -321l144 309h110l-257 -518h-8z" />
    <glyph glyph-name="x" unicode="x" horiz-adv-x="547" 
d="M413 0l-139 186l-140 -186h-119l198 266l-178 237h121l118 -157l117 157h121l-178 -237l198 -266h-119z" />
    <glyph glyph-name="y" unicode="y" horiz-adv-x="565" 
d="M334 -245h-104v287l-210 461h114l149 -356l148 356h114l-211 -465v-283z" />
    <glyph glyph-name="z" unicode="z" horiz-adv-x="546" 
d="M30 0v8l301 399h-266v96h451v-8l-301 -399h301v-96h-486z" />
    <glyph glyph-name="braceleft" unicode="{" horiz-adv-x="283" 
d="M20 309v6q55 33 70 73t15 130q0 54 8 93t29 73.5t64 50t106 9.5l31 -85q-70 10 -104.5 -9.5t-34.5 -87.5q0 -128 -9 -166q-13 -50 -52 -84q42 -36 51.5 -82.5t9.5 -150.5v-17q0 -68 34.5 -87.5t104.5 -9.5l-31 -85q-63 -6 -106 9.5t-64 50t-29 73.5t-8 93q0 90 -15 130
t-70 73z" />
    <glyph glyph-name="bar" unicode="|" horiz-adv-x="264" 
d="M184 -120h-104v864h104v-864z" />
    <glyph glyph-name="braceright" unicode="}" horiz-adv-x="283" 
d="M263 315v-6q-55 -33 -70 -73t-15 -130q0 -54 -8 -93t-29 -73.5t-64 -50t-106 -9.5l-31 85q70 -10 104.5 9.5t34.5 87.5q0 128 9 166q13 50 52 84q-42 36 -51.5 82.5t-9.5 150.5v17q0 68 -34.5 87.5t-104.5 9.5l31 85q63 6 106 -9.5t64 -50t29 -73.5t8 -93q0 -90 15 -130
t70 -73z" />
    <glyph glyph-name="exclamdown" unicode="&#xa1;" horiz-adv-x="250" 
d="M67 580q0 24 15.5 41t44.5 17q30 0 45.5 -17t15.5 -41q0 -25 -15.5 -42t-45.5 -17q-29 0 -44.5 17t-15.5 42zM73 0l10 473h84l10 -473h-104z" />
    <glyph glyph-name="cent" unicode="&#xa2;" horiz-adv-x="591" 
d="M551 48q-48 -43 -144 -58v-110h-104v107q-115 11 -179 87.5t-64 176.5t64 176.5t179 87.5v109h104v-112q95 -15 144 -59l-16 -100q-73 68 -181 68q-87 0 -139 -43t-52 -127q0 -83 51.5 -126.5t138.5 -43.5q109 0 182 68z" />
    <glyph glyph-name="sterling" unicode="&#xa3;" horiz-adv-x="612" 
d="M562 0h-492v98h111q45 73 23 146h-117v98h76q-24 59 -24 111q0 78 54.5 131.5t149.5 53.5q86 0 138.5 -47t59.5 -111l-90 -49q-4 47 -31 74.5t-72 27.5q-96 0 -96 -97q0 -38 26 -94h178l-10 -98h-132q12 -67 -18 -146h266v-98z" />
    <glyph glyph-name="currency" unicode="&#xa4;" horiz-adv-x="666" 
d="M562 -46l-72 72q-65 -41 -157 -41q-91 0 -156 41l-72 -72l-69 64l72 72q-48 69 -48 161t47 158l-71 71l69 64l69 -69q68 42 159 42q94 0 159 -43l70 70l69 -64l-71 -71q46 -68 46 -158q0 -91 -48 -160l73 -73zM333 81q76 0 122.5 46t46.5 124t-46 124t-123 46t-123 -46
t-46 -124t46.5 -124t122.5 -46z" />
    <glyph glyph-name="yen" unicode="&#xa5;" horiz-adv-x="684" 
d="M562 210h-168v-210h-104v210h-168v88h119l-231 336h123l209 -318l209 318h123l-231 -336h119v-88z" />
    <glyph glyph-name="section" unicode="&#xa7;" horiz-adv-x="536" 
d="M152 292q0 -22 9.5 -39t30.5 -30t39.5 -22t50.5 -21.5t50 -21.5q52 24 52 89q0 22 -9.5 39t-30.5 30t-39.5 22t-50.5 21.5t-50 21.5q-52 -24 -52 -89zM268 -178q-70 0 -121.5 30.5t-77.5 79.5l66 82q35 -99 132 -99q45 0 64.5 21.5t19.5 52.5q0 34 -31 57.5t-75.5 40
t-88.5 37.5t-75 62t-31 100q0 99 73 150q-43 45 -43 114t47.5 118t140.5 49q70 0 121.5 -30.5t77.5 -79.5l-66 -82q-35 99 -132 99q-45 0 -64.5 -21.5t-19.5 -52.5q0 -34 31 -57.5t75.5 -40t88.5 -37.5t75 -62t31 -100q0 -99 -73 -150q43 -45 43 -114t-47.5 -118t-140.5 -49
z" />
    <glyph glyph-name="dieresis" unicode="&#xa8;" horiz-adv-x="419" 
d="M295 567q-27 0 -42 16.5t-15 39.5q0 24 14.5 41t42.5 17t42.5 -17t14.5 -41q0 -23 -15 -39.5t-42 -16.5zM124 567q-28 0 -42.5 16.5t-14.5 39.5q0 24 14.5 41t42.5 17t42.5 -17t14.5 -41q0 -23 -14.5 -39.5t-42.5 -16.5z" />
    <glyph glyph-name="copyright" unicode="&#xa9;" horiz-adv-x="646" 
d="M323 -15q-130 0 -196.5 77t-66.5 189t66.5 189t196.5 77t196.5 -77t66.5 -189t-66.5 -189t-196.5 -77zM323 8q109 0 174 65.5t65 177.5t-64.5 177.5t-174.5 65.5t-174.5 -65.5t-64.5 -177.5t65 -177.5t174 -65.5zM439 286q-43 38 -95 38q-97 0 -97 -76q0 -38 26 -57.5
t69 -19.5q54 0 97 40l21 -87q-18 -16 -53.5 -28t-72.5 -12q-85 0 -133.5 47.5t-48.5 116.5q0 70 48.5 117t133.5 47q38 0 74 -11.5t52 -27.5z" />
    <glyph glyph-name="guillemotleft" unicode="&#xab;" horiz-adv-x="566" 
d="M405 57l-142 209v9l142 209l141 -20l-157 -193l157 -194zM162 57l-142 209v9l142 209l141 -20l-157 -193l157 -194z" />
    <glyph glyph-name="registered" unicode="&#xae;" horiz-adv-x="646" 
d="M323 -15q-130 0 -196.5 77t-66.5 189t66.5 189t196.5 77t196.5 -77t66.5 -189t-66.5 -189t-196.5 -77zM323 8q109 0 174 65.5t65 177.5t-64.5 177.5t-174.5 65.5t-174.5 -65.5t-64.5 -177.5t65 -177.5t174 -65.5zM319 336h-38v-78h61q29 8 29 37q0 23 -12 32t-40 9z
M370 101l-53 79h-36v-79h-90v312h134q67 0 101 -32t34 -86q0 -60 -52 -93l75 -101h-113z" />
    <glyph glyph-name="degree" unicode="&#xb0;" horiz-adv-x="333" 
d="M167 374q-66 0 -104 39.5t-38 94.5t38 94t104 39t103.5 -39.5t37.5 -93.5q0 -55 -37.5 -94.5t-103.5 -39.5zM167 458q22 0 36.5 13.5t14.5 36.5q0 22 -14 36.5t-37 14.5t-37.5 -14.5t-14.5 -36.5q0 -24 14 -37t38 -13z" />
    <glyph glyph-name="twosuperior" unicode="&#xb2;" horiz-adv-x="377" 
d="M335 244h-314v15q204 160 204 243q0 52 -54 52q-28 0 -43.5 -20t-4.5 -68l-84 14q-13 67 23 114t108 47q68 0 108.5 -37t40.5 -95q0 -88 -96 -174h112v-91z" />
    <glyph glyph-name="threesuperior" unicode="&#xb3;" horiz-adv-x="409" 
d="M189 234q-69 0 -110 30t-51 79l78 38q17 -60 86 -60q39 0 59 15.5t20 42.5q0 43 -44 57t-122 0v6l88 101h-143v88h322v-6l-109 -129q45 -8 74 -42t29 -81q0 -60 -48 -99.5t-129 -39.5z" />
    <glyph glyph-name="acute" unicode="&#xb4;" horiz-adv-x="361" 
d="M190 544h-80l48 159h101z" />
    <glyph glyph-name="periodcentered" unicode="&#xb7;" horiz-adv-x="201" 
d="M100 253q-29 0 -44.5 17t-15.5 41q0 25 15.5 42t44.5 17q30 0 45.5 -17t15.5 -42q0 -24 -15.5 -41t-45.5 -17z" />
    <glyph glyph-name="cedilla" unicode="&#xb8;" horiz-adv-x="739" 
d="M340 -99l59 99h80l-38 -99h-101z" />
    <glyph glyph-name="onesuperior" unicode="&#xb9;" horiz-adv-x="272" 
d="M222 244h-97v270l-94 -69v102l106 85h85v-388z" />
    <glyph glyph-name="guillemotright" unicode="&#xbb;" horiz-adv-x="566" 
d="M161 57l-141 20l157 194l-157 193l141 20l142 -209v-9zM404 57l-141 20l157 194l-157 193l141 20l142 -209v-9z" />
    <glyph glyph-name="onequarter" unicode="&#xbc;" horiz-adv-x="822" 
d="M237 244h-97v270l-94 -69v102l106 85h85v-388zM324 0h-104l230 624h104zM794 56h-56v-56h-89v56h-236l50 79l165 253h99l-162 -253h84v87h89v-87h56v-79z" />
    <glyph glyph-name="onehalf" unicode="&#xbd;" horiz-adv-x="822" 
d="M236 244h-97v270l-94 -69v102l106 85h85v-388zM316 0h-104l230 624h104zM794 0h-314v15q204 160 204 243q0 52 -54 52q-28 0 -43.5 -20t-4.5 -68l-84 14q-13 67 23 114t108 47q68 0 108.5 -37t40.5 -95q0 -88 -96 -174h112v-91z" />
    <glyph glyph-name="threequarters" unicode="&#xbe;" horiz-adv-x="914" 
d="M416 0h-104l230 624h104zM191 234q-69 0 -110 30t-51 79l78 38q17 -60 86 -60q39 0 59 15.5t20 42.5q0 43 -44 57t-122 0v6l88 101h-143v88h322v-6l-109 -129q45 -8 74 -42t29 -81q0 -60 -48 -99.5t-129 -39.5zM886 56h-56v-56h-89v56h-236l50 79l165 253h99l-162 -253
h84v87h89v-87h56v-79z" />
    <glyph glyph-name="questiondown" unicode="&#xbf;" horiz-adv-x="451" 
d="M250 638q29 0 44.5 -17t15.5 -41q0 -25 -15.5 -42t-44.5 -17q-30 0 -45.5 17t-15.5 42q0 24 15.5 41t45.5 17zM295 473v-109q-88 -32 -133 -71t-45 -106q0 -51 27.5 -79t81.5 -28q63 0 95.5 42.5t14.5 124.5l92 -22q17 -113 -42 -176.5t-162 -63.5q-94 0 -149 54.5
t-55 141.5q0 90 48.5 142t132.5 83l7 67h87z" />
    <glyph glyph-name="Agrave" unicode="&#xc0;" horiz-adv-x="692" 
d="M302 658l-49 99h101l38 -99h-90zM452 210l-108 230l-108 -230h216zM551 0l-54 114h-306l-54 -114h-117l320 639h12l320 -639h-121z" />
    <glyph glyph-name="Acircumflex" unicode="&#xc2;" horiz-adv-x="692" 
d="M462 647l-118 41l-118 -41l-10 70l128 50l128 -50zM452 210l-108 230l-108 -230h216zM551 0l-54 114h-306l-54 -114h-117l320 639h12l320 -639h-121z" />
    <glyph glyph-name="Adieresis" unicode="&#xc4;" horiz-adv-x="692" 
d="M443 649q-27 0 -42 16.5t-15 39.5q0 24 14.5 41t42.5 17t42.5 -17t14.5 -41q0 -23 -15 -39.5t-42 -16.5zM252 649q-28 0 -42.5 16.5t-14.5 39.5q0 24 14.5 41t42.5 17t42.5 -17t14.5 -41q0 -23 -14.5 -39.5t-42.5 -16.5zM452 210l-108 230l-108 -230h216zM551 0l-54 114
h-306l-54 -114h-117l320 639h12l320 -639h-121z" />
    <glyph glyph-name="AE" unicode="&#xc6;" horiz-adv-x="898" 
d="M453 215l-107 217l-107 -217h214zM558 0l-60 123h-304l-60 -123h-114l315 624h473v-101h-400l78 -154h312v-101h-261l84 -167h187v-101h-250z" />
    <glyph glyph-name="Ccedilla" unicode="&#xc7;" horiz-adv-x="689" 
d="M639 63q-68 -62 -194 -76l-33 -86h-101l51 86q-97 8 -167 56.5t-102.5 118t-32.5 150.5q0 86 36.5 159t115.5 120.5t188 47.5q74 0 138 -22.5t101 -55.5l-20 -106q-89 83 -210 83q-109 0 -174.5 -60.5t-65.5 -165.5t65.5 -165.5t173.5 -60.5q122 0 211 83z" />
    <glyph glyph-name="Egrave" unicode="&#xc8;" 
d="M293 658l-49 99h101l38 -99h-90zM204 101h348v-101h-452v624h452v-101h-348v-154h338v-101h-338v-167z" />
    <glyph glyph-name="Eacute" unicode="&#xc9;" 
d="M427 757l-49 -99h-90l38 99h101zM204 101h348v-101h-452v624h452v-101h-348v-154h338v-101h-338v-167z" />
    <glyph glyph-name="Ecircumflex" unicode="&#xca;" 
d="M446 647l-118 41l-118 -41l-10 70l128 50l128 -50zM204 101h348v-101h-452v624h452v-101h-348v-154h338v-101h-338v-167z" />
    <glyph glyph-name="Edieresis" unicode="&#xcb;" 
d="M422 649q-28 0 -42.5 16.5t-14.5 39.5q0 24 14.5 41t42.5 17t42.5 -17t14.5 -41q0 -23 -14.5 -39.5t-42.5 -16.5zM231 649q-27 0 -42 16.5t-15 39.5q0 24 14.5 41t42.5 17t42.5 -17t14.5 -41q0 -23 -15 -39.5t-42 -16.5zM204 101h348v-101h-452v624h452v-101h-348v-154
h338v-101h-338v-167z" />
    <glyph glyph-name="Icircumflex" unicode="&#xce;" horiz-adv-x="304" 
d="M269 647l-118 41l-118 -41l-10 70l128 50l128 -50zM100 0v624h104v-624h-104z" />
    <glyph glyph-name="Idieresis" unicode="&#xcf;" horiz-adv-x="304" 
d="M248 650q-28 0 -42.5 16.5t-14.5 39.5q0 24 14.5 41t42.5 17t42.5 -17t14.5 -41q0 -23 -14.5 -39.5t-42.5 -16.5zM57 650q-28 0 -42.5 16.5t-14.5 39.5q0 24 14.5 41t42.5 17t42.5 -17t14.5 -41q0 -23 -15 -39.5t-42 -16.5zM100 0v624h104v-624h-104z" />
    <glyph glyph-name="Ocircumflex" unicode="&#xd4;" horiz-adv-x="788" 
d="M510 647l-118 41l-118 -41l-10 70l128 50l128 -50zM394 -15q-83 0 -148.5 27.5t-105 74t-60 104t-20.5 121.5t20.5 121.5t60 104t105 74t148.5 27.5t148.5 -27.5t105 -74t60 -104t20.5 -121.5t-20.5 -121.5t-60 -104t-105 -74t-148.5 -27.5zM394 541q-103 0 -164.5 -62.5
t-61.5 -166.5t61.5 -166.5t164.5 -62.5t164.5 62.5t61.5 166.5t-61.5 166.5t-164.5 62.5z" />
    <glyph glyph-name="Odieresis" unicode="&#xd6;" horiz-adv-x="788" 
d="M490 650q-28 0 -42.5 16.5t-14.5 39.5q0 24 14.5 41t42.5 17t42.5 -17t14.5 -41q0 -23 -14.5 -39.5t-42.5 -16.5zM299 650q-27 0 -42 16.5t-15 39.5q0 24 14.5 41t42.5 17t42.5 -17t14.5 -41q0 -23 -15 -39.5t-42 -16.5zM394 -15q-83 0 -148.5 27.5t-105 74t-60 104
t-20.5 121.5t20.5 121.5t60 104t105 74t148.5 27.5t148.5 -27.5t105 -74t60 -104t20.5 -121.5t-20.5 -121.5t-60 -104t-105 -74t-148.5 -27.5zM394 541q-103 0 -164.5 -62.5t-61.5 -166.5t61.5 -166.5t164.5 -62.5t164.5 62.5t61.5 166.5t-61.5 166.5t-164.5 62.5z" />
    <glyph glyph-name="Ugrave" unicode="&#xd9;" horiz-adv-x="777" 
d="M360 658l-49 99h101l38 -99h-90zM583 0l6 54q-87 -69 -217 -69q-277 0 -277 267v372h104v-359q0 -92 42.5 -135.5t135.5 -43.5q119 0 196 73v465h104v-624h-94z" />
    <glyph glyph-name="Ucircumflex" unicode="&#xdb;" horiz-adv-x="777" 
d="M499 647l-118 41l-118 -41l-10 70l128 50l128 -50zM583 0l6 54q-87 -69 -217 -69q-277 0 -277 267v372h104v-359q0 -92 42.5 -135.5t135.5 -43.5q119 0 196 73v465h104v-624h-94z" />
    <glyph glyph-name="Udieresis" unicode="&#xdc;" horiz-adv-x="777" 
d="M487 650q-27 0 -42 16.5t-15 39.5q0 24 14.5 41t42.5 17t42.5 -17t14.5 -41q0 -23 -15 -39.5t-42 -16.5zM296 650q-28 0 -42.5 16.5t-14.5 39.5q0 24 14.5 41t42.5 17t42.5 -17t14.5 -41q0 -23 -14.5 -39.5t-42.5 -16.5zM583 0l6 54q-87 -69 -217 -69q-277 0 -277 267
v372h104v-359q0 -92 42.5 -135.5t135.5 -43.5q119 0 196 73v465h104v-624h-94z" />
    <glyph glyph-name="germandbls" unicode="&#xdf;" horiz-adv-x="675" 
d="M431 -15q-90 0 -140.5 48t-57.5 119l84 47q7 -55 36.5 -87t77.5 -32q43 0 72 26t29 76q0 69 -60.5 99.5t-180.5 8.5v10l169 204q-48 38 -125 38q-80 0 -120 -40.5t-40 -139.5v-362h-95v389q0 71 23.5 122.5t63.5 78t83 38t93 11.5q150 0 239 -114v-10l-121 -145
q73 -7 123.5 -55.5t50.5 -127.5q0 -91 -56.5 -146.5t-147.5 -55.5z" />
    <glyph glyph-name="agrave" unicode="&#xe0;" horiz-adv-x="562" 
d="M314 544h-80l-69 159h101zM248 72q72 0 134 41v61q-62 42 -134 42q-42 0 -66.5 -19.5t-24.5 -52.5q0 -34 24.5 -53t66.5 -19zM383 0l6 45q-58 -60 -151 -60q-82 0 -130 45t-48 116q0 69 50.5 113t126.5 44q90 0 145 -45v43q0 55 -28.5 86.5t-86.5 31.5q-98 0 -148 -96
l-50 74q27 56 81 85t125 29q56 0 98 -19t64.5 -51t33.5 -68t11 -77v-296h-99z" />
    <glyph glyph-name="acircumflex" unicode="&#xe2;" horiz-adv-x="562" 
d="M319 544l-50 89l-50 -89l-90 10l98 149h84l98 -149zM248 72q72 0 134 41v61q-62 42 -134 42q-42 0 -66.5 -19.5t-24.5 -52.5q0 -34 24.5 -53t66.5 -19zM383 0l6 45q-58 -60 -151 -60q-82 0 -130 45t-48 116q0 69 50.5 113t126.5 44q90 0 145 -45v43q0 55 -28.5 86.5
t-86.5 31.5q-98 0 -148 -96l-50 74q27 56 81 85t125 29q56 0 98 -19t64.5 -51t33.5 -68t11 -77v-296h-99z" />
    <glyph glyph-name="adieresis" unicode="&#xe4;" horiz-adv-x="562" 
d="M353 567q-27 0 -42 16.5t-15 39.5q0 24 14.5 41t42.5 17t42.5 -17t14.5 -41q0 -23 -15 -39.5t-42 -16.5zM182 567q-28 0 -42.5 16.5t-14.5 39.5q0 24 14.5 41t42.5 17t42.5 -17t14.5 -41q0 -23 -14.5 -39.5t-42.5 -16.5zM248 72q72 0 134 41v61q-62 42 -134 42
q-42 0 -66.5 -19.5t-24.5 -52.5q0 -34 24.5 -53t66.5 -19zM383 0l6 45q-58 -60 -151 -60q-82 0 -130 45t-48 116q0 69 50.5 113t126.5 44q90 0 145 -45v43q0 55 -28.5 86.5t-86.5 31.5q-98 0 -148 -96l-50 74q27 56 81 85t125 29q56 0 98 -19t64.5 -51t33.5 -68t11 -77v-296
h-99z" />
    <glyph glyph-name="ae" unicode="&#xe6;" horiz-adv-x="912" 
d="M631 422q-51 0 -88.5 -26.5t-52.5 -76.5h263q-4 48 -38 75.5t-84 27.5zM862 48q-30 -27 -84.5 -45t-115.5 -18q-134 0 -210 78q-74 -78 -200 -78q-89 0 -140.5 45t-51.5 116q0 69 50.5 113t126.5 44q91 0 144 -45q0 4 0.5 10.5t0.5 9.5v23q0 55 -28.5 86.5t-86.5 31.5
q-98 0 -148 -96l-50 74q27 56 81 85t125 29q113 0 166 -75q68 81 190 81q119 0 178.5 -85t45.5 -202h-373q7 -73 59 -111.5t133 -38.5q95 0 172 72zM262 72q85 0 145 57q-6 12 -14 38q-70 49 -145 49q-42 0 -66.5 -19.5t-24.5 -52.5q0 -34 28 -53t77 -19z" />
    <glyph glyph-name="ccedilla" unicode="&#xe7;" horiz-adv-x="580" 
d="M536 48q-65 -57 -172 -63l-32 -84h-101l53 89q-105 18 -164.5 91.5t-59.5 169.5q0 111 69.5 188.5t200.5 77.5q121 0 190 -64l-16 -100q-73 68 -167 68q-78 0 -126 -45t-48 -125q0 -83 55 -126.5t130 -43.5q99 0 172 68z" />
    <glyph glyph-name="egrave" unicode="&#xe8;" horiz-adv-x="591" 
d="M354 544h-80l-69 159h101zM310 422q-51 0 -88.5 -26.5t-52.5 -76.5h263q-4 48 -38 75.5t-84 27.5zM541 48q-30 -27 -84.5 -45t-115.5 -18q-138 0 -209.5 77.5t-71.5 188.5q0 115 65 190.5t185 75.5q119 0 178.5 -85t45.5 -202h-373q7 -73 59 -111.5t133 -38.5
q95 0 172 72z" />
    <glyph glyph-name="eacute" unicode="&#xe9;" horiz-adv-x="591" 
d="M347 544h-80l48 159h101zM310 422q-51 0 -88.5 -26.5t-52.5 -76.5h263q-4 48 -38 75.5t-84 27.5zM541 48q-30 -27 -84.5 -45t-115.5 -18q-138 0 -209.5 77.5t-71.5 188.5q0 115 65 190.5t185 75.5q119 0 178.5 -85t45.5 -202h-373q7 -73 59 -111.5t133 -38.5q95 0 172 72
z" />
    <glyph glyph-name="ecircumflex" unicode="&#xea;" horiz-adv-x="591" 
d="M357 544l-50 89l-50 -89l-90 10l98 149h84l98 -149zM310 422q-51 0 -88.5 -26.5t-52.5 -76.5h263q-4 48 -38 75.5t-84 27.5zM541 48q-30 -27 -84.5 -45t-115.5 -18q-138 0 -209.5 77.5t-71.5 188.5q0 115 65 190.5t185 75.5q119 0 178.5 -85t45.5 -202h-373
q7 -73 59 -111.5t133 -38.5q95 0 172 72z" />
    <glyph glyph-name="edieresis" unicode="&#xeb;" horiz-adv-x="591" 
d="M395 567q-27 0 -42 16.5t-15 39.5q0 24 14.5 41t42.5 17t42.5 -17t14.5 -41q0 -23 -15 -39.5t-42 -16.5zM224 567q-28 0 -42.5 16.5t-14.5 39.5q0 24 14.5 41t42.5 17t42.5 -17t14.5 -41q0 -23 -15 -39.5t-42 -16.5zM310 422q-51 0 -88.5 -26.5t-52.5 -76.5h263
q-4 48 -38 75.5t-84 27.5zM541 48q-30 -27 -84.5 -45t-115.5 -18q-138 0 -209.5 77.5t-71.5 188.5q0 115 65 190.5t185 75.5q119 0 178.5 -85t45.5 -202h-373q7 -73 59 -111.5t133 -38.5q95 0 172 72z" />
    <glyph glyph-name="icircumflex" unicode="&#xee;" horiz-adv-x="264" 
d="M182 544l-50 89l-50 -89l-90 10l98 149h84l98 -149zM184 0h-104v503h104v-503z" />
    <glyph glyph-name="idieresis" unicode="&#xef;" horiz-adv-x="264" 
d="M218 567q-28 0 -42.5 16.5t-14.5 39.5q0 24 14.5 41t42.5 17t42.5 -17t14.5 -41q0 -23 -14.5 -39.5t-42.5 -16.5zM47 567q-28 0 -42.5 16.5t-14.5 39.5q0 24 14.5 41t42.5 17t42.5 -17t14.5 -41q0 -23 -15 -39.5t-42 -16.5zM184 0h-104v503h104v-503z" />
    <glyph glyph-name="ocircumflex" unicode="&#xf4;" horiz-adv-x="666" 
d="M383 544l-50 89l-50 -89l-90 10l98 149h84l98 -149zM333 -15q-131 0 -202 78t-71 188t71 188t202 78t202 -78t71 -188t-71 -188t-202 -78zM333 81q76 0 122.5 46t46.5 124t-46 124t-123 46t-123 -46t-46 -124t46.5 -124t122.5 -46z" />
    <glyph glyph-name="odieresis" unicode="&#xf6;" horiz-adv-x="666" 
d="M418 567q-28 0 -42.5 16.5t-14.5 39.5q0 24 14.5 41t42.5 17t42.5 -17t14.5 -41q0 -23 -14.5 -39.5t-42.5 -16.5zM247 567q-27 0 -42 16.5t-15 39.5q0 24 14.5 41t42.5 17t42.5 -17t14.5 -41q0 -23 -15 -39.5t-42 -16.5zM333 -15q-131 0 -202 78t-71 188t71 188t202 78
t202 -78t71 -188t-71 -188t-202 -78zM333 81q76 0 122.5 46t46.5 124t-46 124t-123 46t-123 -46t-46 -124t46.5 -124t122.5 -46z" />
    <glyph glyph-name="divide" unicode="&#xf7;" horiz-adv-x="489" 
d="M244 418q-24 0 -42 17.5t-18 42.5t18 42.5t42 17.5q25 0 43 -17.5t18 -42.5t-18 -42.5t-43 -17.5zM449 381v-105h-409v105h409zM244 117q-24 0 -42 17.5t-18 42.5t18 42.5t42 17.5q25 0 43 -17.5t18 -42.5t-18 -42.5t-43 -17.5z" />
    <glyph glyph-name="ugrave" unicode="&#xf9;" 
d="M361 544h-80l-69 159h101zM452 0v60q-75 -71 -176 -71q-93 0 -144.5 56t-51.5 132v326h100v-310q0 -107 115 -107q41 0 83 20.5t74 57.5v339h100v-503h-100z" />
    <glyph glyph-name="ucircumflex" unicode="&#xfb;" 
d="M368 544l-50 89l-50 -89l-90 10l98 149h84l98 -149zM452 0v60q-75 -71 -176 -71q-93 0 -144.5 56t-51.5 132v326h100v-310q0 -107 115 -107q41 0 83 20.5t74 57.5v339h100v-503h-100z" />
    <glyph glyph-name="udieresis" unicode="&#xfc;" 
d="M404 567q-28 0 -42.5 16.5t-14.5 39.5q0 24 14.5 41t42.5 17t42.5 -17t14.5 -41q0 -23 -14.5 -39.5t-42.5 -16.5zM233 567q-27 0 -42 16.5t-15 39.5q0 24 14.5 41t42.5 17t42.5 -17t14.5 -41q0 -23 -15 -39.5t-42 -16.5zM452 0v60q-75 -71 -176 -71q-93 0 -144.5 56
t-51.5 132v326h100v-310q0 -107 115 -107q41 0 83 20.5t74 57.5v339h100v-503h-100z" />
    <glyph glyph-name="dotlessi" unicode="&#x131;" horiz-adv-x="264" 
d="M184 0h-104v503h104v-503z" />
    <glyph glyph-name="OE" unicode="&#x152;" horiz-adv-x="1094" 
d="M394 541q-103 0 -164.5 -62.5t-61.5 -166.5t61.5 -166.5t164.5 -62.5t164.5 62.5t61.5 166.5t-61.5 166.5t-164.5 62.5zM1014 0h-507q-49 -15 -113 -15q-83 0 -148.5 27.5t-105 74t-60 104t-20.5 121.5t20.5 121.5t60 104t105 74t148.5 27.5q64 0 113 -15h507v-101h-354
q52 -67 64 -154h280v-101h-278q-11 -96 -66 -167h354v-101z" />
    <glyph glyph-name="oe" unicode="&#x153;" horiz-adv-x="1035" 
d="M754 422q-51 0 -88.5 -26.5t-52.5 -76.5h263q-4 48 -38 75.5t-84 27.5zM333 81q76 0 122.5 46t46.5 124t-46 124t-123 46t-123 -46t-46 -124t46.5 -124t122.5 -46zM985 48q-30 -27 -84.5 -45t-115.5 -18q-79 0 -138 33t-93 89q-36 -56 -93.5 -89t-127.5 -33
q-131 0 -202 78t-71 188t71 188t202 78q69 0 126 -32t92 -86q31 55 83.5 86.5t119.5 31.5q119 0 178.5 -85t45.5 -202h-373q7 -73 59 -111.5t133 -38.5q95 0 172 72z" />
    <glyph glyph-name="florin" unicode="&#x192;" horiz-adv-x="454" 
d="M367 246h-171v-246h-100v246h-66v6l66 90v106q0 88 53.5 139.5t135.5 51.5q123 0 169 -108l-72 -65q-15 40 -37 59.5t-59 19.5q-40 0 -65 -24.5t-25 -71.5v-107h171v-96z" />
    <glyph glyph-name="circumflex" unicode="&#x2c6;" horiz-adv-x="380" 
d="M240 544l-50 89l-50 -89l-90 10l98 149h84l98 -149z" />
    <glyph glyph-name="endash" unicode="&#x2013;" horiz-adv-x="591" 
d="M531 380v-105h-471v105h471z" />
    <glyph glyph-name="emdash" unicode="&#x2014;" horiz-adv-x="903" 
d="M843 380v-105h-783v105h783z" />
    <glyph glyph-name="quoteleft" unicode="&#x2018;" horiz-adv-x="169" 
d="M121 475h-101l68 179l61 -30z" />
    <glyph glyph-name="quoteright" unicode="&#x2019;" horiz-adv-x="169" 
d="M48 624h101l-68 -179l-61 30z" />
    <glyph glyph-name="quotesinglbase" unicode="&#x201a;" horiz-adv-x="169" 
d="M48 76h101l-68 -179l-61 30z" />
    <glyph glyph-name="quotedblleft" unicode="&#x201c;" horiz-adv-x="321" 
d="M273 445h-101l68 179l61 -30zM121 445h-101l68 179l61 -30z" />
    <glyph glyph-name="quotedblright" unicode="&#x201d;" horiz-adv-x="321" 
d="M200 624h101l-68 -179l-61 30zM48 624h101l-68 -179l-61 30z" />
    <glyph glyph-name="quotedblbase" unicode="&#x201e;" horiz-adv-x="321" 
d="M200 76h101l-68 -179l-61 30zM48 76h101l-68 -179l-61 30z" />
    <glyph glyph-name="bullet" unicode="&#x2022;" horiz-adv-x="332" 
d="M166 184q-52 0 -89 37t-37 89t37 89t89 37t89 -37t37 -89t-37 -89t-89 -37z" />
    <glyph glyph-name="ellipsis" unicode="&#x2026;" horiz-adv-x="668" 
d="M566 -14q-29 0 -44.5 17t-15.5 41q0 25 15.5 42t44.5 17q30 0 45.5 -17t15.5 -42q0 -24 -15.5 -41t-45.5 -17zM333 -14q-29 0 -44.5 17t-15.5 41q0 25 15.5 42t44.5 17q30 0 45.5 -17t15.5 -42q0 -24 -15.5 -41t-45.5 -17zM100 -14q-29 0 -44.5 17t-15.5 41q0 25 15.5 42
t44.5 17q30 0 45.5 -17t15.5 -42q0 -24 -15.5 -41t-45.5 -17z" />
    <glyph glyph-name="guilsinglleft" unicode="&#x2039;" horiz-adv-x="328" 
d="M162 57l-142 209v9l142 209l146 -20l-157 -193l157 -194z" />
    <glyph glyph-name="guilsinglright" unicode="&#x203a;" horiz-adv-x="328" 
d="M308 266l-142 -209l-146 20l157 194l-157 193l146 20l142 -209v-9z" />
    <glyph glyph-name="fraction" unicode="&#x2044;" horiz-adv-x="334" 
d="M104 0h-104l230 624h104z" />
    <glyph glyph-name="zerosuperior" unicode="&#x2070;" horiz-adv-x="460" 
d="M230 234q-89 0 -141 60t-52 143t52 143t141 60t141 -60t52 -143t-52 -143t-141 -60zM230 549q-43 0 -68 -30.5t-25 -81.5t25 -81.5t68 -30.5t68 30.5t25 81.5t-25 81.5t-68 30.5z" />
    <glyph glyph-name="foursuperior" unicode="&#x2074;" horiz-adv-x="416" 
d="M389 300h-56v-56h-89v56h-236l50 79l165 253h99l-162 -253h84v87h89v-87h56v-79z" />
    <glyph glyph-name="fivesuperior" unicode="&#x2075;" horiz-adv-x="396" 
d="M188 234q-65 0 -108 31.5t-53 73.5l72 39q6 -25 30 -41t57 -16q80 0 80 51q0 28 -22.5 41t-75.5 13q-42 0 -90 -16v221h254v-79h-164v-50q88 11 139.5 -19.5t51.5 -105.5q0 -60 -45 -101.5t-126 -41.5z" />
    <glyph glyph-name="sixsuperior" unicode="&#x2076;" horiz-adv-x="426" 
d="M387 370q0 -60 -42.5 -98t-121.5 -38q-83 0 -134.5 50.5t-51.5 146.5q0 93 49 151t141 58q114 0 153 -73l-57 -61q-31 49 -96 49q-89 0 -100 -90q45 26 102 26q70 0 114 -32.5t44 -88.5zM224 321q68 0 68 44q0 21 -18 31.5t-45 10.5q-55 0 -96 -22q19 -64 91 -64z" />
    <glyph glyph-name="sevensuperior" unicode="&#x2077;" horiz-adv-x="363" 
d="M133 244h-103l205 304h-207v84h364v-6z" />
    <glyph glyph-name="eightsuperior" unicode="&#x2078;" horiz-adv-x="409" 
d="M206 234q-78 0 -123.5 36t-45.5 93q0 76 72 109q-29 29 -29 69q0 39 34 69t95 30q60 0 95 -30.5t35 -68.5q0 -45 -37 -74q70 -33 70 -104q0 -57 -45 -93t-121 -36zM168 528q0 -16 10.5 -26t30.5 -10t31 10t11 26t-11 26.5t-31 10.5t-30.5 -10.5t-10.5 -26.5zM127 370
q0 -60 79 -60q76 0 76 60q0 61 -76 61q-79 0 -79 -61z" />
    <glyph glyph-name="ninesuperior" unicode="&#x2079;" horiz-adv-x="426" 
d="M195 467q55 0 96 22q-19 64 -91 64q-68 0 -68 -44q0 -21 18 -31.5t45 -10.5zM197 234q-66 0 -109.5 23t-62.5 58l57 61q35 -57 115 -57q89 0 100 90q-45 -26 -102 -26q-69 0 -113.5 33t-44.5 88q0 61 42.5 98.5t121.5 37.5q83 0 134.5 -50.5t51.5 -146.5q0 -93 -49 -151
t-141 -58z" />
    <glyph glyph-name="Euro" unicode="&#x20ac;" horiz-adv-x="719" 
d="M689 63q-37 -33 -101 -55.5t-138 -22.5q-128 0 -211 62t-113 160h-66v88h50v17v15h-50v88h65q30 99 113 161.5t212 62.5q74 0 138 -22.5t101 -55.5l-20 -106q-89 83 -210 83q-78 0 -135.5 -32t-83.5 -91h259v-88h-280v-15v-17h280v-88h-258q27 -58 83.5 -89.5
t133.5 -31.5q122 0 211 83z" />
    <glyph glyph-name="trademark" unicode="&#x2122;" horiz-adv-x="726" 
d="M505 466l177 163h9v-317h-90v110l-96 -78l-95 78v-110h-90v317h8zM93 537h-108v87h305v-87h-107v-225h-90v225z" />
    <glyph glyph-name="minus" unicode="&#x2212;" horiz-adv-x="489" 
d="M449 381v-105h-409v105h409z" />
    <glyph glyph-name="star" unicode="&#x22c6;" horiz-adv-x="723" 
d="M360 499h4q0 -80 52.5 -133.5t131.5 -53.5v-3q-79 0 -131.5 -52t-52.5 -131h-4q0 79 -52.5 131t-132.5 52v3q79 0 132 53.5t53 133.5z" />
    <glyph glyph-name="u2661" unicode="&#x2661;" horiz-adv-x="662" 
d="M602 358q0 -44 -21.5 -85t-56 -74.5t-70.5 -66t-70.5 -74t-51.5 -83.5q-17 42 -52.5 83.5t-71.5 74t-70.5 66.5t-56 74.5t-21.5 85.5q0 68 37 106t95 38q94 0 140 -105q44 105 132 105q60 0 99 -38.5t39 -106.5z" />
    <glyph glyph-name="u2662" unicode="&#x2662;" horiz-adv-x="658" 
d="M50 251q106 42 172 108.5t107 167.5q41 -101 107.5 -167t171.5 -109q-105 -43 -171.5 -109t-107.5 -167q-41 101 -107 167.5t-172 108.5z" />
    <glyph glyph-name="u2664" unicode="&#x2664;" horiz-adv-x="604" 
d="M393 -3q-88 7 -182 0q62 96 70 163q-38 -59 -100 -59q-56 0 -88.5 34t-32.5 89q0 40 19 69.5t49 50.5t62 42.5t63.5 57.5t48.5 83q17 -47 48.5 -83t63.5 -57.5t62 -42.5t49 -50.5t19 -69.5q0 -54 -31 -88.5t-78 -34.5q-40 0 -66 12.5t-45 46.5q5 -44 20.5 -78.5
t48.5 -84.5z" />
    <glyph glyph-name="u2667" unicode="&#x2667;" horiz-adv-x="680" 
d="M357 225q0 -69 17 -117t60 -112q-90 7 -186 0q43 65 59.5 112.5t15.5 116.5q-15 0 -27.5 -9.5t-22.5 -22.5t-21.5 -26t-32 -22.5t-48.5 -9.5q-43 0 -77 28.5t-34 77.5q0 50 34 78.5t77 28.5q34 0 58 -14t34.5 -31t26 -31t34.5 -14q0 18 -14.5 36t-32 31.5t-32 37.5
t-14.5 53q0 41 29.5 71t79.5 30t80 -30t30 -71q0 -29 -14.5 -53t-32.5 -37.5t-32.5 -31.5t-14.5 -36q19 0 34.5 14t26 31t34.5 31t58 14q43 0 77 -28.5t34 -78.5q0 -49 -34 -77.5t-77 -28.5q-34 0 -57.5 14t-34 31t-26 31t-34.5 14z" />
    <glyph glyph-name="leftwardsarrow" horiz-adv-x="757" 
d="M389 95l-123 -26l-216 255v12l216 255l123 -26l-174 -184h492v-102h-492z" />
    <glyph glyph-name="rightwardsarrow" horiz-adv-x="757" 
d="M707 324l-216 -255l-123 26l174 184h-492v102h492l-174 184l123 26l216 -255v-12z" />
    <glyph glyph-name="downwardsarrow" horiz-adv-x="682" 
d="M335 1l-255 216l26 123l184 -174v492h102v-492l184 174l26 -123l-255 -216h-12z" />
    <glyph glyph-name="upwardsarrow" horiz-adv-x="682" 
d="M392 1h-102v492l-184 -174l-26 123l255 216h12l255 -216l-26 -123l-184 174v-492z" />
    <glyph glyph-name="acute.cap" horiz-adv-x="361" 
d="M259 757l-49 -99h-90l38 99h101z" />
    <glyph glyph-name="grave.cap" horiz-adv-x="361" 
d="M149 658l-49 99h101l38 -99h-90z" />
    <glyph glyph-name="circumflex.cap" horiz-adv-x="396" 
d="M316 647l-118 41l-118 -41l-10 70l128 50l128 -50z" />
    <glyph glyph-name="dieresis.cap" horiz-adv-x="399" 
d="M295 650q-27 0 -42 16.5t-15 39.5q0 24 14.5 41t42.5 17t42.5 -17t14.5 -41q0 -23 -15 -39.5t-42 -16.5zM104 650q-28 0 -42.5 16.5t-14.5 39.5q0 24 14.5 41t42.5 17t42.5 -17t14.5 -41q0 -23 -14.5 -39.5t-42.5 -16.5z" />
    <glyph glyph-name="a.alt" horiz-adv-x="622" 
d="M308 82q76 0 134 48v251q-54 40 -121 40q-80 0 -119 -48t-39 -130q0 -76 40.5 -118.5t104.5 -42.5zM432 0l9 35q-62 -50 -146 -50q-105 0 -170 70t-65 190q0 122 68.5 197.5t176.5 75.5q76 0 143 -49l-6 34h100v-503h-110z" />
    <glyph glyph-name="g.alt" horiz-adv-x="633" 
d="M313 82q80 0 140 49l-1 249q-57 41 -126 41q-80 0 -121.5 -48t-41.5 -130q0 -76 43 -118.5t107 -42.5zM308 -260q-99 0 -179 45l-18 118q103 -67 181 -67q76 0 118.5 33.5t42.5 115.5v53q-63 -53 -153 -53q-106 0 -173 70t-67 190q0 121 70.5 197t179.5 76q81 0 148 -50
l-6 35h100l1 -518q0 -120 -68.5 -182.5t-176.5 -62.5z" />
    <glyph glyph-name="y.alt" horiz-adv-x="554" 
d="M216 -261l-74 75l83 184l-205 505h114l145 -375l145 375h110z" />
    <glyph glyph-name="hyphen.alt" horiz-adv-x="428" 
d="M388 431v-105l-348 -100v105z" />
    <glyph glyph-name="zero.osf" horiz-adv-x="728" 
d="M347 -15q-130 0 -208.5 83t-78.5 199t78.5 199t208.5 83t208.5 -83t78.5 -199t-78.5 -199t-208.5 -83zM347 83q80 0 129.5 51.5t49.5 132.5t-49.5 132.5t-129.5 51.5t-129.5 -51.5t-49.5 -132.5t49.5 -132.5t129.5 -51.5z" />
    <glyph glyph-name="one.osf" horiz-adv-x="415" 
d="M315 0h-104v387l-151 -115v124l171 137h84v-533z" />
    <glyph glyph-name="two.osf" horiz-adv-x="609" 
d="M539 0h-483v18q96 62 147 97.5t103 79.5t73 82t21 78q0 47 -25.5 73t-71.5 26q-64 0 -95.5 -46t-6.5 -141l-98 22q-23 125 36.5 192.5t163.5 67.5q93 0 146 -54t53 -140q0 -140 -183 -257h220v-98z" />
    <glyph glyph-name="three.osf" horiz-adv-x="611" 
d="M298 -106q-105 0 -173 53.5t-75 123.5l86 47q4 -57 45.5 -93t116.5 -36q64 0 101.5 31t37.5 86q0 56 -44 90.5t-130 34.5q-45 0 -105 -12v10l184 207h-256v97h453v-10l-189 -218q79 -5 135 -60t56 -139q0 -95 -65.5 -153.5t-177.5 -58.5z" />
    <glyph glyph-name="four.osf" horiz-adv-x="643" 
d="M593 0h-103v-91h-104v91h-366v3l56 85l289 445h119l-286 -445h188v196h104v-196h103v-88z" />
    <glyph glyph-name="five.osf" horiz-adv-x="619" 
d="M298 -106q-105 0 -173 53.5t-75 123.5l86 47q4 -55 48 -92t114 -37q65 0 102 36t37 91q0 85 -78 113.5t-229 -19.5l-4 4v319h369v-97h-272v-116q51 17 106.5 11t102 -26.5t77 -70t30.5 -118.5q0 -95 -64 -158.5t-177 -63.5z" />
    <glyph glyph-name="six.osf" horiz-adv-x="670" 
d="M590 198q0 -93 -62 -153t-172 -60q-59 0 -107.5 16.5t-90 52.5t-65 102.5t-23.5 158.5q0 141 69 232.5t197 91.5q92 0 149 -39t76 -99l-70 -69q-36 112 -155 112q-79 0 -122 -54.5t-47 -157.5q78 63 186 63q105 0 171 -53t66 -144zM356 80q62 0 95.5 31t33.5 85
q0 45 -38 72t-94 27q-107 0 -178 -66q31 -149 181 -149z" />
    <glyph glyph-name="seven.osf" horiz-adv-x="557" 
d="M173 -91h-113l343 526h-359v98h533v-10z" />
    <glyph glyph-name="eight.osf" horiz-adv-x="620" 
d="M310 -15q-115 0 -182.5 59t-67.5 151q0 118 111 169q-46 43 -46 105q0 68 50 119t139 51t139 -51t50 -119q0 -65 -51 -109q108 -53 108 -165q0 -92 -67.5 -151t-182.5 -59zM223 472q0 -35 23.5 -58t67.5 -23t68 23t24 58t-24 57.5t-68 22.5t-67.5 -22.5t-23.5 -57.5z
M162 194q0 -51 38 -83t110 -32t110 32t38 83q0 55 -38 88t-110 33t-110 -33t-38 -88z" />
    <glyph glyph-name="nine.osf" horiz-adv-x="637" 
d="M304 240q100 0 169 65q-28 148 -160 148q-55 0 -89.5 -29.5t-34.5 -76.5q0 -50 33 -78.5t82 -28.5zM295 -106q-86 0 -151.5 41t-83.5 106l76 67q15 -55 59.5 -87t101.5 -32q175 0 183 210q-77 -55 -176 -55q-92 0 -156 52t-64 141q0 90 65.5 150.5t163.5 60.5
q118 0 191 -80.5t73 -247.5q0 -148 -71 -237t-211 -89z" />
    <glyph glyph-name="dollar.osf" horiz-adv-x="514" 
d="M331 -120h-104v109q-78 13 -127 58t-60 105l89 48q33 -123 153 -123q93 0 93 67q0 25 -21 44t-52 30.5t-67.5 27.5t-67.5 33.5t-52 50t-21 76.5q0 48 29 86t84 52v80h104v-79q50 -12 84.5 -43t47.5 -74l-76 -56q-17 42 -41.5 63.5t-64.5 21.5q-30 0 -47.5 -14.5
t-17.5 -36.5q0 -29 28.5 -49.5t69.5 -35t82 -32.5t69.5 -53.5t28.5 -86.5q0 -63 -36.5 -106t-106.5 -54v-109z" />
    <glyph glyph-name="cent.osf" horiz-adv-x="591" 
d="M551 48q-48 -43 -144 -58v-110h-104v107q-115 11 -179 87.5t-64 176.5t64 176.5t179 87.5v109h104v-112q95 -15 144 -59l-16 -100q-73 68 -181 68q-87 0 -139 -43t-52 -127q0 -83 51.5 -126.5t138.5 -43.5q109 0 182 68z" />
    <glyph glyph-name="sterling.osf" horiz-adv-x="552" 
d="M505 0h-435v96h104q34 58 14 114h-103v98h60q-14 38 -14 76q0 69 48 116.5t132 47.5q76 0 122 -42t54 -98l-88 -57q-9 94 -83 94q-37 0 -57 -18.5t-20 -52.5q0 -28 19 -66h154l-10 -98h-109q7 -54 -14 -114h226v-96z" />
    <glyph glyph-name="yen.osf" horiz-adv-x="594" 
d="M522 204h-168v-204h-104v204h-168v88h116l-157 241h120l141 -237l143 237h119l-157 -241h115v-88z" />
    <glyph glyph-name="Euro.osf" horiz-adv-x="636" 
d="M596 52q-32 -29 -85.5 -48t-116.5 -19q-107 0 -181 50t-105 131h-68v88h50v14v18h-50v88h67q26 79 93 127t172 48q127 0 202 -68l-17 -95q-77 72 -178 72q-127 0 -168 -84h238v-88h-260v-18v-14h260v-88h-237q47 -90 184 -90q106 0 183 72z" />
    <glyph glyph-name="florin.osf" horiz-adv-x="444" 
d="M357 211h-171v-211h-100v211h-63v4l63 92v50q0 88 53.5 139.5t135.5 51.5q124 0 169 -105l-72 -65q-15 39 -37 57.5t-59 18.5q-40 0 -65 -25t-25 -71v-51h171v-96z" />
    <glyph glyph-name="rightpointedhand" horiz-adv-x="1153" 
d="M82 529v-362l142 7l9 346zM1026 522l-375 3l80 -77l294 7q51 1 51 34t-50 33zM210 442q-23 -5 -34.5 -16t-15.5 -33h-7q-7 42 -50 49v7q43 7 50 51h7q7 -44 50 -51v-7zM551 123q27 0 45 5q-32 15 -32 50q0 9 2 19q-63 14 -63 70q0 9 3 17q-24 -6 -50 -6q-54 0 -99 34
l9 59q38 -31 95 -31q61 0 96 34q-15 11 -30 23.5t-26 22.5l-11 10l15 50q34 -39 89.5 -80.5t101.5 -41.5q24 0 38 11t15 29l-150 141q-36 33 -76 33q-34 0 -81 -30t-99 -64t-92 -41l-5 -199q59 -8 112 -37t98.5 -53.5t94.5 -24.5zM558 241l236 98q3 9 3 18q0 21 -19 31
q-1 -24 -14 -43q-22 -33 -72 -33q-37 0 -92 32q-31 -34 -62 -48q-5 -8 -5 -23q0 -29 25 -32zM610 167l207 78q5 7 5 15q0 24 -26 29l-201 -83q-3 -9 -3 -15q0 -19 18 -24zM654 97l170 56q6 7 6 18q0 16 -16 24l-174 -66q-2 -5 -2 -14q0 -14 16 -18zM553 53q-45 0 -88.5 16
t-73 36t-69.5 38.5t-77 21.5l-2 -71l-181 -9v472l191 -13l-2 -80q31 6 81.5 40t100 64t83.5 31q57 2 97 -37l13 -13l395 -4q38 0 60.5 -18t22.5 -49q0 -70 -83 -74l-211 -7q20 -18 20 -45q0 -23 -12 -49q34 -14 34 -52q0 -22 -16 -41q24 -18 24 -47q0 -48 -43 -61l-160 -49
q-17 3 -26 11q-34 -11 -78 -11z" />
    </font>
</defs>
</svg>
